<svg width="32" height="32" viewBox="0 0 32 32" fill="none" xmlns="http://www.w3.org/2000/svg">
<g clip-path="url(#clip0_1165_40152)">
<path d="M0.846831 13.3248V30.7205C0.846831 31.1435 1.18971 31.4863 1.61268 31.4863H22.4672C22.6261 31.4863 22.7811 31.4369 22.9107 31.3448L29.8309 26.4281C30.0331 26.2845 30.1532 26.0518 30.1532 25.8038V9.91019C30.1532 9.67491 30.045 9.4527 29.8599 9.30752L18.6411 0.510608C18.0503 0.0473105 17.2198 0.0460857 16.6276 0.507639C15.7898 1.16053 15.7874 2.42643 16.6227 3.08249L26.7401 11.0295C26.851 11.1166 26.9158 11.2498 26.9158 11.3909V24.2435C26.9158 24.3925 26.8436 24.5322 26.7221 24.6183L21.8209 28.0939C21.7433 28.1489 21.6504 28.1785 21.5551 28.1785H4.54373C4.28996 28.1785 4.08423 27.9728 4.08423 27.719V14.7858C4.08423 14.6454 4.14842 14.5127 4.2585 14.4255L12.0508 8.25604C12.2179 8.12372 12.4541 8.12372 12.6212 8.25604L20.4693 14.4697C20.5442 14.529 20.5878 14.6192 20.5878 14.7146V21.855C20.5878 23.1749 22.0824 23.9399 23.153 23.1681C23.5751 22.8639 23.8252 22.3753 23.8252 21.855V13.3248C23.8252 13.0906 23.7181 12.8693 23.5344 12.7241L12.8111 4.24368C12.5326 4.02349 12.1394 4.02349 11.861 4.24368L1.13762 12.7241C0.953955 12.8693 0.846831 13.0906 0.846831 13.3248Z" fill="#F85757" stroke="#F85757" stroke-width="0.306338"/>
</g>
<defs>
<clipPath id="clip0_1165_40152">
<rect width="32" height="32" fill="white"/>
</clipPath>
</defs>
</svg>
