<svg width="38" height="58" viewBox="0 0 38 58" fill="none" xmlns="http://www.w3.org/2000/svg">
<g clip-path="url(#clip0_2023_23263)">
<path d="M9.50002 57.5C14.744 57.5 19 53.244 19 48V38.5H9.50002C4.25601 38.5 0 42.756 0 48C0 53.244 4.25601 57.5 9.50002 57.5Z" fill="#0ACF83"/>
<path d="M0 29.0001C0 23.7561 4.25601 19.5001 9.50002 19.5001H19V38.5002H9.50002C4.25601 38.5002 0 34.2441 0 29.0001Z" fill="#A259FF"/>
<path d="M0 10C0 4.75601 4.25601 0.5 9.50002 0.5H19V19.5H9.50002C4.25601 19.5 0 15.244 0 10Z" fill="#F24E1E"/>
<path d="M19 0.5H28.5C33.744 0.5 38 4.75601 38 10C38 15.244 33.744 19.5 28.5 19.5H19V0.5Z" fill="#FF7262"/>
<path d="M38 29.0001C38 34.2441 33.744 38.5002 28.5 38.5002C23.256 38.5002 19 34.2441 19 29.0001C19 23.7561 23.256 19.5001 28.5 19.5001C33.744 19.5001 38 23.7561 38 29.0001Z" fill="#1ABCFE"/>
</g>
<defs>
<clipPath id="clip0_2023_23263">
<rect width="38" height="58" fill="white"/>
</clipPath>
</defs>
</svg>
