<svg width="86" height="86" viewBox="0 0 86 86" fill="none" xmlns="http://www.w3.org/2000/svg">
<rect width="86" height="86" fill="#FFE0E0"/>
<path d="M58.2762 52.207H27.5186V24.687C27.5186 23.3458 28.6056 22.2588 29.9468 22.2588H55.848C57.1892 22.2588 58.2762 23.3458 58.2762 24.687V52.207Z" fill="white"/>
<path d="M59.6454 38.4473H59.6414C59.2796 38.4473 58.9259 38.5517 58.6223 38.7492L44.6632 47.8227C44.1266 48.1715 43.5122 48.3456 42.8987 48.3456C42.2852 48.3456 41.6708 48.1715 41.1342 47.8227L27.1751 38.7492C26.8723 38.5517 26.5178 38.4473 26.156 38.4473H26.152C25.1192 38.4473 24.2822 39.2842 24.2822 40.317V58.9278C24.2822 61.0274 26.0945 62.7296 28.3293 62.7296H57.4681C59.7029 62.7296 61.5152 61.0274 61.5152 58.9278V40.317C61.5152 39.2842 60.6782 38.4473 59.6454 38.4473Z" fill="#F87E7E"/>
<path d="M61.5146 40.317V58.9254C61.5146 61.0299 59.7015 62.7296 57.4675 62.7296H28.3287C26.7908 62.7296 25.4553 61.9283 24.7754 60.7385L58.625 38.7467C58.9245 38.5525 59.2806 38.4473 59.6368 38.4473H59.6448C60.6809 38.4473 61.5146 39.281 61.5146 40.317Z" fill="#F85757"/>
<path d="M44.5191 31.9715H33.9968C33.1024 31.9715 32.3779 31.2471 32.3779 30.3527C32.3779 29.4583 33.1024 28.7339 33.9968 28.7339H44.5191C45.4135 28.7339 46.1379 29.4583 46.1379 30.3527C46.1379 31.2471 45.4135 31.9715 44.5191 31.9715Z" fill="#222223"/>
<path d="M51.8041 31.9715H50.1852C49.2908 31.9715 48.5664 31.2471 48.5664 30.3527C48.5664 29.4583 49.2908 28.7339 50.1852 28.7339H51.8041C52.6985 28.7339 53.4229 29.4583 53.4229 30.3527C53.4229 31.2471 52.6985 31.9715 51.8041 31.9715Z" fill="#222223"/>
<path d="M38.8532 37.6375H33.9968C33.1024 37.6375 32.3779 36.9131 32.3779 36.0187C32.3779 35.1243 33.1024 34.3999 33.9968 34.3999H38.8532C39.7476 34.3999 40.472 35.1243 40.472 36.0187C40.472 36.9131 39.7476 37.6375 38.8532 37.6375Z" fill="#222223"/>
<path d="M51.8039 37.6375H44.5192C43.6248 37.6375 42.9004 36.9131 42.9004 36.0187C42.9004 35.1243 43.6248 34.3999 44.5192 34.3999H51.8039C52.6983 34.3999 53.4227 35.1243 53.4227 36.0187C53.4227 36.9131 52.6983 37.6375 51.8039 37.6375Z" fill="#222223"/>
</svg>
