<svg width="35" height="35" viewBox="0 0 35 35" fill="none" xmlns="http://www.w3.org/2000/svg">
<path d="M12.5 18.3726V33.3228" stroke="#222223" stroke-width="2" stroke-linecap="round" stroke-linejoin="round"/>
<path d="M1 21.8228C2.51023 21.8228 4.00567 22.1202 5.40094 22.6982C6.79621 23.2761 8.06398 24.1232 9.13187 25.1911C10.1998 26.259 11.0469 27.5268 11.6248 28.922C12.2027 30.3173 12.5002 31.8127 12.5002 33.323C9.45016 33.323 6.52504 32.1113 4.36833 29.9546C2.21162 27.7979 1 24.8728 1 21.8228Z" stroke="#222223" stroke-width="2" stroke-linecap="round" stroke-linejoin="round"/>
<path d="M24.0002 21.8228C20.9502 21.8228 18.025 23.0344 15.8683 25.1911C13.7116 27.3478 12.5 30.2729 12.5 33.323C15.55 33.323 18.4752 32.1113 20.6319 29.9546C22.7886 27.7979 24.0002 24.8728 24.0002 21.8228Z" stroke="#222223" stroke-width="2" stroke-linecap="round" stroke-linejoin="round"/>
<path d="M2.26953 8.14198V3.15089C2.26992 2.93436 2.339 2.72353 2.46684 2.54876C2.59467 2.37399 2.77466 2.24428 2.9809 2.17832C3.18715 2.11235 3.409 2.11352 3.61453 2.18167C3.82006 2.24981 3.99867 2.38141 4.12465 2.55753L8.40779 7.11894L11.612 1.51266C11.7017 1.35683 11.8309 1.22739 11.9865 1.13739C12.1422 1.04739 12.3188 1 12.4986 1C12.6784 1 12.855 1.04739 13.0107 1.13739C13.1663 1.22739 13.2955 1.35683 13.3852 1.51266L16.5921 7.11894L20.8753 2.55753C21.0013 2.38132 21.1801 2.24967 21.3857 2.18156C21.5914 2.11345 21.8134 2.11239 22.0197 2.17853C22.226 2.24467 22.406 2.37459 22.5337 2.54959C22.6614 2.72458 22.7303 2.93561 22.7304 3.15226V8.14198C22.7304 10.8553 21.6526 13.4574 19.734 15.376C17.8154 17.2946 15.2132 18.3724 12.5 18.3724C9.78668 18.3724 7.18453 17.2946 5.26596 15.376C3.34738 13.4574 2.26953 10.8553 2.26953 8.14198Z" stroke="#222223" stroke-width="2" stroke-linecap="round" stroke-linejoin="round"/>
</svg>
