<svg width="123" height="123" viewBox="0 0 123 123" fill="none" xmlns="http://www.w3.org/2000/svg">
<rect width="123" height="123" fill="#616066" fill-opacity="0.1"/>
<path d="M63.2098 36C67.9787 36 71.8412 39.8625 71.8412 44.6314C71.8412 49.4002 67.9787 53.2628 63.2098 53.2628H33M41.6314 79.1569C41.6314 83.9258 45.4939 87.7883 50.2628 87.7883C55.0316 87.7883 58.8942 83.9258 58.8942 79.1569C58.8942 74.3881 55.0316 70.5255 50.2628 70.5255H33" stroke="#222223" stroke-width="3" stroke-miterlimit="10" stroke-linecap="round" stroke-linejoin="round"/>
<path d="M67.7413 74.8418C68.7426 79.766 73.0928 83.4731 78.3148 83.4731C84.2747 83.4731 89.104 78.6439 89.104 72.6839C89.104 66.7239 84.2747 61.8947 78.3148 61.8947H78.0558H33" stroke="#222223" stroke-width="3" stroke-miterlimit="10" stroke-linecap="round" stroke-linejoin="round"/>
</svg>
