<svg width="90" height="90" viewBox="0 0 90 90" fill="none" xmlns="http://www.w3.org/2000/svg">
<rect width="90" height="90" fill="#F85757" fill-opacity="0.1"/>
<g filter="url(#filter0_d_1160_40205)">
<path fill-rule="evenodd" clip-rule="evenodd" d="M19.8218 46.411H15.3789V47.892V50.8539V50.854C18.637 50.854 21.3028 53.5197 21.3028 56.7778V65.6636H30.1886V56.7778C30.1886 53.5197 32.8543 50.854 36.1124 50.854H53.884C57.1421 50.854 59.8079 53.5197 59.8079 56.7778V65.6636H68.6937V56.7778C68.6937 53.5197 71.3594 50.854 74.6175 50.854V50.8539V47.892V46.411H70.1746V41.708C71.5906 41.8768 73.0712 41.9681 74.6175 41.9681V39.0062C57.8826 39.0062 49.1449 27.0104 47.9602 25.0851C47.664 23.7523 46.4792 22.7156 44.9982 22.7156C43.5173 22.7156 42.3325 23.7523 42.0363 25.2332C41.1477 26.8623 33.5948 39.0062 15.3789 39.0062V41.9681C16.9302 41.9681 18.4105 41.8886 19.8218 41.741V46.411ZM21.3028 46.411H24.2647V41.0142C23.3154 41.2285 22.3284 41.4114 21.3028 41.5579V46.411ZM25.7457 40.6468V46.411H28.7076V39.701C27.7675 40.0489 26.7807 40.3666 25.7457 40.6468ZM30.1886 39.1127V46.411H33.1505V37.6742C32.2259 38.1826 31.2393 38.666 30.1886 39.1127ZM34.6315 36.8078V46.411H37.5934V34.7247C36.7 35.4326 35.7142 36.1349 34.6315 36.8078ZM39.0744 33.475V46.411H42.0363V30.4166C41.2428 31.3627 40.2607 32.4093 39.0744 33.475ZM43.5173 46.411H46.4792V43.4491H43.5173V46.411ZM47.9602 46.411H50.9221V32.9236C49.7591 31.8829 48.7741 30.8734 47.9602 29.9723V46.411ZM52.4031 34.182V46.411H55.365V36.3357C54.2904 35.6346 53.3038 34.9082 52.4031 34.182ZM56.846 37.2508V46.411H59.8079V38.7952C58.762 38.3129 57.7751 37.7937 56.846 37.2508ZM61.2888 39.4361V46.411H64.2508V40.4788C63.2193 40.1684 62.2322 39.8181 61.2888 39.4361ZM65.7317 40.8884V46.411H68.6937V41.5002C67.6708 41.3346 66.6837 41.1287 65.7317 40.8884ZM43.5173 31.6014V34.5633H46.4792V31.6014H43.5173ZM43.5173 25.6775V28.6394H46.4792V25.6775H43.5173ZM43.5173 40.4872H46.4792V37.5252H43.5173V40.4872Z" fill="#FF0000" fill-opacity="0.01" shape-rendering="crispEdges"/>
</g>
<path d="M50.9221 31.7495H52.4031V46.5592H50.9221V31.7495ZM55.365 35.1557H56.846V46.4111H55.365V35.1557ZM59.8079 37.2291H61.2888V46.4111H59.8079V37.2291ZM64.2508 39.1543H65.7317V46.5592H64.2508V39.1543ZM68.6937 39.8948H70.1746V46.4111H68.6937V39.8948ZM37.5934 31.7495H39.0744V46.5592H37.5934V31.7495ZM33.1505 35.1557H34.6315V46.4111H33.1505V35.1557ZM28.7076 37.2291H30.1886V46.4111H28.7076V37.2291ZM24.2647 39.1543H25.7457V46.5592H24.2647V39.1543ZM19.8218 39.8948H21.3028V46.4111H19.8218V39.8948ZM74.6175 47.892H15.3789V50.854C18.637 50.854 21.3028 53.5197 21.3028 56.7778V65.6636H30.1886V56.7778C30.1886 53.5197 32.8543 50.854 36.1124 50.854H53.884C57.1421 50.854 59.8079 53.5197 59.8079 56.7778V65.6636H68.6937V56.7778C68.6937 53.5197 71.3594 50.854 74.6175 50.854V47.892Z" fill="white"/>
<path d="M15.3789 46.411H74.6175V50.8539H15.3789V46.411ZM47.9602 25.0851C47.664 23.7523 46.4792 22.7156 44.9982 22.7156C43.5173 22.7156 42.3325 23.7523 42.0363 25.2332C41.1477 26.8623 33.5948 39.0062 15.3789 39.0062V41.9681C29.8924 41.9681 38.1858 35.0076 42.0363 30.4166V46.411H43.5173V43.4491H46.4792V46.411H47.9602V29.9723C52.1069 34.5633 60.6965 41.9681 74.6175 41.9681V39.0062C57.8826 39.0062 49.1449 27.0104 47.9602 25.0851ZM46.4792 40.4872H43.5173V37.5252H46.4792V40.4872ZM46.4792 34.5633H43.5173V31.6014H46.4792V34.5633ZM46.4792 28.6394H43.5173V25.6775H46.4792V28.6394Z" fill="#F85757"/>
<defs>
<filter id="filter0_d_1160_40205" x="11.3789" y="19.7156" width="67.2383" height="50.948" filterUnits="userSpaceOnUse" color-interpolation-filters="sRGB">
<feFlood flood-opacity="0" result="BackgroundImageFix"/>
<feColorMatrix in="SourceAlpha" type="matrix" values="0 0 0 0 0 0 0 0 0 0 0 0 0 0 0 0 0 0 127 0" result="hardAlpha"/>
<feOffset dy="1"/>
<feGaussianBlur stdDeviation="2"/>
<feComposite in2="hardAlpha" operator="out"/>
<feColorMatrix type="matrix" values="0 0 0 0 0.791949 0 0 0 0 0.129791 0 0 0 0 0.129791 0 0 0 0.1 0"/>
<feBlend mode="normal" in2="BackgroundImageFix" result="effect1_dropShadow_1160_40205"/>
<feBlend mode="normal" in="SourceGraphic" in2="effect1_dropShadow_1160_40205" result="shape"/>
</filter>
</defs>
</svg>
