<svg width="64" height="64" viewBox="0 0 64 64" fill="none" xmlns="http://www.w3.org/2000/svg">
<rect width="64" height="64" fill="#FFE0E0"/>
<circle cx="32" cy="32" r="32" fill="#FFE0E0"/>
<g filter="url(#filter0_d_1155_42204)">
<path fill-rule="evenodd" clip-rule="evenodd" d="M20.4275 23.0574L20.4258 23.0585L20.9403 17.6394C21.4276 12.5058 25.7385 8.58398 30.8958 8.58398H31.5449C33.0393 8.58398 34.3655 9.30555 35.1941 10.4192C35.7505 10.4497 36.304 10.5236 36.8417 10.6655C40.7762 11.7064 43.7253 15.1009 44.1198 19.2509L44.8971 27.4164C45.0498 29.0173 43.7907 30.4019 42.1826 30.4019H38.2082C36.5815 31.5475 34.5978 32.2202 32.457 32.2202C30.3162 32.2202 28.3325 31.5475 26.7058 30.4019H22.7271C21.1189 30.4019 19.8598 29.0173 20.0126 27.4164L20.4275 23.0574ZM33.1538 34.584H30.8462C23.1996 34.584 17 41.0316 17 48.984C17 50.9724 18.5496 52.584 20.4615 52.584H43.5385C45.4504 52.584 47 50.9724 47 48.984C47 41.0316 40.8004 34.584 33.1538 34.584Z" fill="#FF0000" fill-opacity="0.01" shape-rendering="crispEdges"/>
</g>
<path d="M33.1538 34.584H30.8462C23.1996 34.584 17 41.0316 17 48.984C17 50.9724 18.5496 52.584 20.4615 52.584H43.5385C45.4504 52.584 47 50.9724 47 48.984C47 41.0316 40.8004 34.584 33.1538 34.584Z" fill="#F85757"/>
<path d="M36.8417 10.6655C36.0907 10.4673 35.3089 10.4019 34.5317 10.4019H31.8517L28.4626 10.8582C24.4762 11.1191 21.268 14.2337 20.8889 18.2109L20.0126 27.4164C19.8598 29.0173 21.1189 30.4019 22.7271 30.4019H42.1826C43.7907 30.4019 45.0498 29.0173 44.8971 27.4164L44.1198 19.2509C43.7253 15.1009 40.7762 11.7064 36.8417 10.6655Z" fill="#222223"/>
<path d="M32.457 12.2202C37.9798 12.2202 42.457 16.6975 42.457 22.2202C42.457 27.7429 37.9798 32.2202 32.457 32.2202C26.9343 32.2202 22.457 27.7429 22.457 22.2202C22.457 16.6975 26.9343 12.2202 32.457 12.2202Z" fill="white"/>
<path d="M38.8196 12.2201L35.1832 11.311H34.2741H30.1332C25.3914 11.311 21.5469 15.1556 21.5469 19.8974V22.2201H25.1832C29.7423 22.2201 33.5805 20.0756 34.7851 15.9038C37.1405 16.1429 39.0551 17.9747 39.3223 20.3738L39.3278 20.4238C39.556 22.4819 41.2951 24.0383 43.3651 24.0383V16.7656L38.8196 12.2201Z" fill="#222223"/>
<path d="M20.4258 23.0585L33.0603 14.6785L36.0903 15.8567V13.1294C36.0903 10.6194 34.0549 8.58398 31.5449 8.58398H30.8958C25.7385 8.58398 21.4276 12.5058 20.9403 17.6394L20.4258 23.0585Z" fill="#222223"/>
<defs>
<filter id="filter0_d_1155_42204" x="13" y="5.58398" width="38" height="52" filterUnits="userSpaceOnUse" color-interpolation-filters="sRGB">
<feFlood flood-opacity="0" result="BackgroundImageFix"/>
<feColorMatrix in="SourceAlpha" type="matrix" values="0 0 0 0 0 0 0 0 0 0 0 0 0 0 0 0 0 0 127 0" result="hardAlpha"/>
<feOffset dy="1"/>
<feGaussianBlur stdDeviation="2"/>
<feComposite in2="hardAlpha" operator="out"/>
<feColorMatrix type="matrix" values="0 0 0 0 0 0 0 0 0 0 0 0 0 0 0 0 0 0 0.13 0"/>
<feBlend mode="normal" in2="BackgroundImageFix" result="effect1_dropShadow_1155_42204"/>
<feBlend mode="normal" in="SourceGraphic" in2="effect1_dropShadow_1155_42204" result="shape"/>
</filter>
</defs>
</svg>
