<svg width="100" height="100" viewBox="0 0 100 100" fill="none" xmlns="http://www.w3.org/2000/svg">
<rect width="100" height="100" fill="#F85757" fill-opacity="0.1"/>
<path d="M24.47 33.4346H62.3098C65.43 33.4346 67.9829 35.9875 67.9829 39.1077V60.5521C67.9829 63.6724 65.43 66.2253 62.3098 66.2253H30.597L18.7969 77.5716L18.7969 66.2253V39.1077C18.7969 35.9307 21.3498 33.4346 24.47 33.4346Z" fill="#F85757"/>
<path opacity="0.08" d="M29.1836 52.6092V33.7744H30.6586H62.3714V60.5516H37.126C32.7009 60.5516 29.1836 56.9775 29.1836 52.6092Z" fill="#222223"/>
<path d="M75.5279 22.4282H40.5247C37.4045 22.4282 34.8516 24.9811 34.8516 28.1014V49.5458C34.8516 52.666 37.4045 55.2189 40.5247 55.2189H75.0741L81.2011 66.7921V28.1014C81.2011 24.9811 78.6482 22.4282 75.5279 22.4282Z" fill="white"/>
<path d="M45.6333 36.3838C45.2757 36.3838 44.9216 36.4542 44.5912 36.5911C44.2608 36.7279 43.9606 36.9285 43.7077 37.1814C43.4549 37.4342 43.2543 37.7344 43.1174 38.0648C42.9806 38.3952 42.9102 38.7493 42.9102 39.1069C42.9102 39.4645 42.9806 39.8186 43.1174 40.149C43.2543 40.4794 43.4549 40.7796 43.7077 41.0324C43.9606 41.2853 44.2608 41.4859 44.5912 41.6227C44.9216 41.7596 45.2757 41.83 45.6333 41.83C45.9909 41.83 46.345 41.7596 46.6753 41.6227C47.0057 41.4859 47.3059 41.2853 47.5588 41.0324C47.8116 40.7796 48.0122 40.4794 48.1491 40.149C48.2859 39.8186 48.3564 39.4645 48.3564 39.1069C48.3564 38.7493 48.2859 38.3952 48.1491 38.0648C48.0122 37.7344 47.8116 37.4342 47.5588 37.1814C47.3059 36.9285 47.0057 36.7279 46.6753 36.5911C46.345 36.4542 45.9909 36.3838 45.6333 36.3838V36.3838ZM56.5824 36.3838C56.2248 36.3838 55.8707 36.4542 55.5403 36.5911C55.2099 36.7279 54.9097 36.9285 54.6569 37.1814C54.404 37.4342 54.2034 37.7344 54.0666 38.0648C53.9297 38.3952 53.8593 38.7493 53.8593 39.1069C53.8593 39.4645 53.9297 39.8186 54.0666 40.149C54.2034 40.4794 54.404 40.7796 54.6569 41.0324C54.9097 41.2853 55.2099 41.4859 55.5403 41.6227C55.8707 41.7596 56.2248 41.83 56.5824 41.83C56.94 41.83 57.2941 41.7596 57.6245 41.6227C57.9549 41.4859 58.2551 41.2853 58.5079 41.0324C58.7608 40.7796 58.9614 40.4794 59.0982 40.149C59.2351 39.8186 59.3055 39.4645 59.3055 39.1069C59.3055 38.7493 59.2351 38.3952 59.0982 38.0648C58.9614 37.7344 58.7608 37.4342 58.5079 37.1814C58.2551 36.9285 57.9549 36.7279 57.6245 36.5911C57.2941 36.4542 56.94 36.3838 56.5824 36.3838V36.3838ZM67.5316 36.3838C67.174 36.3838 66.8199 36.4542 66.4895 36.5911C66.1591 36.7279 65.8589 36.9285 65.606 37.1814C65.3532 37.4342 65.1526 37.7344 65.0157 38.0648C64.8789 38.3952 64.8085 38.7493 64.8085 39.1069C64.8085 39.4645 64.8789 39.8186 65.0157 40.149C65.1526 40.4794 65.3532 40.7796 65.606 41.0324C65.8589 41.2853 66.1591 41.4859 66.4895 41.6227C66.8199 41.7596 67.174 41.83 67.5316 41.83C67.8892 41.83 68.2433 41.7596 68.5736 41.6227C68.904 41.4859 69.2042 41.2853 69.4571 41.0324C69.71 40.7796 69.9105 40.4794 70.0474 40.149C70.1842 39.8186 70.2547 39.4645 70.2547 39.1069C70.2547 38.7493 70.1842 38.3952 70.0474 38.0648C69.9105 37.7344 69.71 37.4342 69.4571 37.1814C69.2042 36.9285 68.904 36.7279 68.5736 36.5911C68.2433 36.4542 67.8892 36.3838 67.5316 36.3838V36.3838Z" fill="#222223"/>
</svg>
