<svg width="123" height="123" viewBox="0 0 123 123" fill="none" xmlns="http://www.w3.org/2000/svg">
<rect width="123" height="123" fill="#616066" fill-opacity="0.1"/>
<path d="M61.5439 63.6479V89.0544Z" fill="white"/>
<path d="M61.5439 63.6479V89.0544" stroke="#222223" stroke-width="3" stroke-linecap="round" stroke-linejoin="round"/>
<path d="M42 69.511C44.5665 69.511 47.1078 70.0165 49.479 70.9986C51.8501 71.9808 54.0045 73.4203 55.8193 75.2351C57.6341 77.0499 59.0737 79.2043 60.0558 81.5755C61.038 83.9466 61.5435 86.4879 61.5435 89.0544C56.3602 89.0544 51.3893 86.9954 47.7241 83.3303C44.059 79.6652 42 74.6942 42 69.511Z" fill="white" stroke="#222223" stroke-width="3" stroke-linecap="round" stroke-linejoin="round"/>
<path d="M81.0874 69.511C75.9042 69.511 70.9332 71.57 67.2681 75.2351C63.603 78.9002 61.5439 83.8712 61.5439 89.0544C66.7272 89.0544 71.6982 86.9954 75.3633 83.3303C79.0284 79.6652 81.0874 74.6942 81.0874 69.511Z" fill="white" stroke="#222223" stroke-width="3" stroke-linecap="round" stroke-linejoin="round"/>
<path d="M44.1567 46.2621V37.7802C44.1574 37.4123 44.2748 37.054 44.492 36.757C44.7093 36.46 45.0152 36.2395 45.3656 36.1274C45.7161 36.0153 46.0932 36.0173 46.4424 36.1331C46.7917 36.2489 47.0952 36.4726 47.3093 36.7719L54.5881 44.5235L60.0333 34.9962C60.1857 34.7314 60.4053 34.5114 60.6698 34.3585C60.9343 34.2055 61.2345 34.125 61.54 34.125C61.8456 34.125 62.1458 34.2055 62.4103 34.3585C62.6748 34.5114 62.8943 34.7314 63.0468 34.9962L68.4966 44.5235L75.7754 36.7719C75.9896 36.4724 76.2933 36.2487 76.6428 36.1329C76.9923 36.0172 77.3696 36.0154 77.7202 36.1278C78.0708 36.2402 78.3766 36.461 78.5937 36.7584C78.8107 37.0558 78.9278 37.4144 78.928 37.7825V46.2621C78.928 50.873 77.0963 55.2951 73.8358 58.5556C70.5754 61.816 66.1533 63.6477 61.5424 63.6477C56.9314 63.6477 52.5093 61.816 49.2489 58.5556C45.9884 55.2951 44.1567 50.873 44.1567 46.2621Z" fill="white" stroke="#222223" stroke-width="3" stroke-linecap="round" stroke-linejoin="round"/>
</svg>
