<svg width="114" height="114" viewBox="0 0 114 114" fill="none" xmlns="http://www.w3.org/2000/svg">
<rect width="114" height="114" fill="#F85757" fill-opacity="0.1"/>
<path d="M79.1931 85.643L63.8711 69.7683L68.8963 65.0781L85.2233 79.6127C86.8984 81.2878 86.8984 83.9679 85.2233 85.643C84.5533 86.648 83.2132 86.983 82.2082 86.983C81.2031 86.983 80.1981 86.648 79.1931 85.643Z" fill="#222223"/>
<path opacity="0.5" d="M51.7203 30.0303C48.8166 30.0303 45.9414 30.6022 43.2588 31.7134C40.5762 32.8245 38.1387 34.4532 36.0855 36.5064C34.0323 38.5596 32.4036 40.9971 31.2925 43.6797C30.1813 46.3623 29.6094 49.2375 29.6094 52.1412C29.6094 55.0448 30.1813 57.92 31.2925 60.6027C32.4036 63.2853 34.0323 65.7227 36.0855 67.7759C38.1387 69.8291 40.5762 71.4578 43.2588 72.569C45.9414 73.6802 48.8166 74.2521 51.7203 74.2521C54.6239 74.2521 57.4991 73.6802 60.1817 72.569C62.8644 71.4578 65.3019 69.8291 67.355 67.7759C69.4082 65.7227 71.0369 63.2853 72.1481 60.6027C73.2593 57.92 73.8312 55.0448 73.8312 52.1412C73.8312 49.2375 73.2593 46.3623 72.1481 43.6797C71.0369 40.9971 69.4082 38.5596 67.355 36.5064C65.3019 34.4532 62.8644 32.8245 60.1817 31.7134C57.4991 30.6022 54.6239 30.0303 51.7203 30.0303Z" fill="white"/>
<path d="M51.7235 31.7056C62.7789 31.7056 72.1593 40.751 72.1593 52.1414C72.1593 63.5319 63.1139 72.5773 51.7235 72.5773C40.333 72.5773 31.2876 63.5319 31.2876 52.1414C31.2876 40.751 40.333 31.7056 51.7235 31.7056ZM51.7235 28.3555C38.6579 28.3555 27.9375 39.0759 27.9375 52.1414C27.9375 65.207 38.3229 75.9274 51.3885 75.9274C64.454 75.9274 75.1744 65.207 75.1744 52.1414C75.1744 39.0759 64.789 28.3555 51.7235 28.3555Z" fill="#F85757"/>
<path d="M61.137 38.969C60.4546 41.5159 56.2115 38.1368 53.6646 37.4544C51.1177 36.7719 47.6931 37.4056 48.3755 34.8587C49.058 32.3118 52.4214 33.0856 54.9683 33.768C57.5152 34.4504 61.8194 36.4221 61.137 38.969Z" fill="#222223"/>
</svg>
