<svg width="84" height="84" viewBox="0 0 84 84" fill="none" xmlns="http://www.w3.org/2000/svg">
<rect width="84" height="84" fill="#F85757" fill-opacity="0.1"/>
<path d="M58.2274 52.3251H26.1572V23.6307C26.1572 22.2323 27.2907 21.0989 28.6891 21.0989H55.6955C57.0939 21.0989 58.2274 22.2323 58.2274 23.6307V52.3251Z" fill="white"/>
<path d="M59.6554 37.978H59.6512C59.274 37.978 58.9051 38.0869 58.5887 38.2928L44.0339 47.7535C43.4743 48.1173 42.8338 48.2987 42.1941 48.2987C41.5544 48.2987 40.9138 48.1173 40.3543 47.7535L25.7995 38.2928C25.4838 38.0869 25.1142 37.978 24.7369 37.978H24.7327C23.6558 37.978 22.7832 38.8507 22.7832 39.9276V59.3325C22.7832 61.5217 24.6728 63.2966 27.003 63.2966H57.3852C59.7153 63.2966 61.6049 61.5217 61.6049 59.3325V39.9276C61.6049 38.8507 60.7323 37.978 59.6554 37.978Z" fill="#F87E7E"/>
<path d="M61.6038 39.9276V59.33C61.6038 61.5243 59.7134 63.2966 57.384 63.2966H27.0018C25.3983 63.2966 24.0058 62.461 23.2969 61.2204L58.5909 38.2903C58.9032 38.0877 59.2745 37.978 59.6458 37.978H59.6543C60.7345 37.978 61.6038 38.8473 61.6038 39.9276Z" fill="#F85757"/>
<path d="M43.8839 31.2261H32.9125C31.9799 31.2261 31.2246 30.4708 31.2246 29.5382C31.2246 28.6057 31.9799 27.8503 32.9125 27.8503H43.8839C44.8164 27.8503 45.5718 28.6057 45.5718 29.5382C45.5718 30.4708 44.8164 31.2261 43.8839 31.2261Z" fill="#222223"/>
<path d="M51.4793 31.2261H49.7914C48.8589 31.2261 48.1035 30.4708 48.1035 29.5382C48.1035 28.6057 48.8589 27.8503 49.7914 27.8503H51.4793C52.4119 27.8503 53.1672 28.6057 53.1672 29.5382C53.1672 30.4708 52.4119 31.2261 51.4793 31.2261Z" fill="#222223"/>
<path d="M37.9762 37.1339H32.9125C31.9799 37.1339 31.2246 36.3785 31.2246 35.446C31.2246 34.5134 31.9799 33.7581 32.9125 33.7581H37.9762C38.9088 33.7581 39.6641 34.5134 39.6641 35.446C39.6641 36.3785 38.9088 37.1339 37.9762 37.1339Z" fill="#222223"/>
<path d="M51.4797 37.1339H43.8842C42.9516 37.1339 42.1963 36.3785 42.1963 35.446C42.1963 34.5134 42.9516 33.7581 43.8842 33.7581H51.4797C52.4123 33.7581 53.1676 34.5134 53.1676 35.446C53.1676 36.3785 52.4123 37.1339 51.4797 37.1339Z" fill="#222223"/>
</svg>
