<svg width="84" height="84" viewBox="0 0 84 84" fill="none" xmlns="http://www.w3.org/2000/svg">
<rect width="84" height="84" fill="#F85757" fill-opacity="0.1"/>
<path d="M42.534 51.2736C41.8769 50.6576 40.8502 50.5754 40.0289 51.0682L39.2897 51.52L37.1542 52.8752C36.3328 53.409 35.2651 53.2037 34.7723 52.4645L31.6923 47.6597L28.6533 42.8959C28.1605 42.1567 28.448 41.0889 29.2693 40.5551L31.4048 39.1999L32.144 38.7481C32.9653 38.2142 33.3349 37.2286 33.0475 36.4073L29.7621 27.5368C29.3925 26.5101 28.1605 26.0584 27.0517 26.5923L26.8053 26.7155L22.8218 28.851C20.9327 29.7955 19.7007 31.7257 19.8239 33.6969C20.0703 37.6393 21.3434 44.785 25.6554 51.52C29.9674 58.2549 36.0043 62.4848 39.495 64.3739C41.2609 65.3185 43.5196 65.031 45.1622 63.7169L48.7761 60.9654L48.9815 60.8011C49.926 60.0619 50.0492 58.7477 49.2279 57.9675L42.534 51.2736Z" fill="#F85757"/>
<path d="M30.3371 29.0974L29.7621 27.5368C29.3925 26.5101 28.1605 26.0584 27.0517 26.5923L26.8053 26.7155L22.8218 28.851C20.9327 29.7955 19.7007 31.7257 19.8239 33.6969C19.9471 35.8324 20.3988 38.8713 21.4255 42.2799C22.4933 38.2142 24.8751 32.9166 30.3371 29.0974Z" fill="white"/>
<path d="M41.7543 66.1399C40.7687 66.1399 39.7831 65.8935 38.9207 65.4418C36.8673 64.333 29.7217 60.1031 24.6293 52.1771C19.7424 44.5797 18.7978 36.777 18.5925 33.7791C18.4282 31.3151 19.9066 28.8921 22.2475 27.7423L26.5184 25.4836C26.9702 25.2372 27.504 25.155 27.9968 25.155C29.311 25.155 30.4609 25.9353 30.9126 27.1262L34.1569 35.9557C34.6497 37.3519 34.0748 38.9535 32.7606 39.7749L29.8859 41.6229C29.7627 41.705 29.6395 41.8693 29.5985 41.9925C29.5574 42.0746 29.5985 42.1568 29.6395 42.2389L35.7996 51.8486C35.8817 51.9718 36.046 52.0129 36.1281 52.0129C36.2102 52.0129 36.3334 52.0129 36.4566 51.8897L39.3313 50.0416C39.9063 49.672 40.5223 49.5078 41.1794 49.5078C42.0418 49.5078 42.822 49.8363 43.397 50.4112L50.0909 57.0641C50.7069 57.6801 50.9944 58.4604 50.9533 59.3639C50.9122 60.2673 50.4605 61.1708 49.7213 61.7457L49.516 61.91L45.9021 64.7026C44.7522 65.606 43.2738 66.1399 41.7543 66.1399ZM27.9968 27.6191C27.8736 27.6191 27.7094 27.6601 27.5862 27.7012L27.3398 27.8244L23.3563 29.9188C21.8779 30.658 20.9333 32.1364 21.0155 33.6148C21.1797 36.4074 22.0832 43.7173 26.6416 50.863C31.4054 58.255 38.0993 62.2385 40.0295 63.2652C40.5223 63.5527 41.0972 63.6759 41.7132 63.6759C42.6578 63.6759 43.6023 63.3474 44.3415 62.7313L48.1608 59.7745C48.3661 59.6103 48.4893 59.4049 48.4893 59.1585C48.4893 59.0353 48.4893 58.8711 48.325 58.7478L41.6722 52.1361C41.4668 51.9307 41.0151 51.8897 40.6866 52.095L37.8119 53.943C37.3191 54.2715 36.7441 54.4358 36.1281 54.4358C35.1425 54.4358 34.239 53.943 33.7462 53.1627L27.5862 43.5531C27.1755 42.937 27.0523 42.1978 27.2166 41.4586C27.3808 40.6784 27.8736 39.9802 28.5718 39.5285L31.4465 37.6805C31.775 37.4751 31.9393 37.1055 31.8161 36.777L28.6129 27.9476C28.5307 27.7012 28.2432 27.6191 27.9968 27.6191Z" fill="#F85757"/>
<path d="M64.5482 32.013C64.466 38.7891 58.7577 44.1278 52.0227 44.1278H41.181C40.565 44.1278 40.1133 43.635 40.1133 43.019V32.0541C40.1133 25.278 45.452 19.5697 52.1459 19.4465C59.0452 19.4054 64.6714 25.0316 64.5482 32.013Z" fill="white"/>
<path d="M52.0575 45.36H41.1748C39.9017 45.36 38.875 44.3333 38.875 43.0192V32.0953C38.875 24.5801 44.8297 18.379 52.1396 18.2558C55.7946 18.2147 59.2442 19.611 61.8315 22.1982C64.4598 24.8265 65.856 28.3172 65.815 32.0132C65.6918 39.3642 59.4906 45.36 52.0575 45.36ZM41.298 42.896H52.0164C58.1354 42.896 63.2277 38.009 63.3099 31.9721C63.3509 28.9332 62.2011 26.0585 60.0656 23.923C57.9301 21.7875 55.1375 20.6787 52.1396 20.7198C46.1849 20.8019 41.298 25.9353 41.298 32.0953V42.896Z" fill="white"/>
<path d="M52.0641 35.9145H46.6022C45.9041 35.9145 45.3702 35.3806 45.3702 34.6825C45.3702 33.9843 45.9041 33.4505 46.6022 33.4505H52.0231C52.7212 33.4505 53.2551 33.9843 53.2551 34.6825C53.2551 35.3806 52.7212 35.9145 52.0641 35.9145ZM56.9922 35.9145H56.9101C56.2119 35.9145 55.678 35.3806 55.678 34.6825C55.678 33.9843 56.2119 33.4505 56.9101 33.4505H56.9922C57.6903 33.4505 58.2242 33.9843 58.2242 34.6825C58.2242 35.3806 57.6493 35.9145 56.9922 35.9145ZM57.4029 31.8078H46.5201C45.822 31.8078 45.2881 31.2739 45.2881 30.5758C45.2881 29.8776 45.822 29.3438 46.5201 29.3438H57.4029C58.101 29.3438 58.6349 29.8776 58.6349 30.5758C58.6349 31.2739 58.0599 31.8078 57.4029 31.8078Z" fill="#222223"/>
</svg>
