<svg width="123" height="123" viewBox="0 0 123 123" fill="none" xmlns="http://www.w3.org/2000/svg">
<rect width="123" height="123" fill="#616066" fill-opacity="0.1"/>
<path d="M87.9907 81.1577H47.0669C46.7635 81.1578 46.4646 81.0851 46.1953 80.9456C45.9259 80.8061 45.694 80.604 45.5191 80.3562C45.3441 80.1084 45.2313 79.8222 45.19 79.5217C45.1487 79.2212 45.1802 78.9151 45.2819 78.6293L53.408 55.8742C53.5382 55.5048 53.7798 55.1848 54.0995 54.9584C54.4192 54.732 54.8012 54.6103 55.193 54.6101H78.2363C78.6075 54.61 78.9704 54.719 79.2801 54.9236C79.5899 55.1281 79.8326 55.4191 79.9783 55.7605L89.7327 78.5156C89.856 78.8039 89.9059 79.1183 89.878 79.4306C89.85 79.7429 89.745 80.0434 89.5724 80.3052C89.3998 80.567 89.1649 80.7819 88.8889 80.9307C88.6129 81.0795 88.3042 81.1575 87.9907 81.1577V81.1577Z" fill="white" stroke="#222223" stroke-width="3" stroke-linecap="round" stroke-linejoin="round"/>
<path d="M61.4438 81.1577V88.7427" stroke="#222223" stroke-width="3" stroke-linecap="round" stroke-linejoin="round"/>
<path d="M72.8213 81.1577V88.7427" stroke="#222223" stroke-width="3" stroke-linecap="round" stroke-linejoin="round"/>
<path d="M43.4932 58.4051C42.4254 57.2193 41.6189 55.8222 41.1262 54.3044C40.6335 52.7866 40.4656 51.1822 40.6334 49.5953C40.8011 48.0084 41.3008 46.4745 42.1 45.0934C42.8992 43.7122 43.98 42.5145 45.2722 41.5782C46.5644 40.642 48.039 39.988 49.6005 39.6587C51.1619 39.3295 52.7751 39.3324 54.3353 39.6672C55.8955 40.0021 57.3678 40.6614 58.6566 41.6023C59.9454 42.5432 61.0219 43.7447 61.8161 45.1288" stroke="#222223" stroke-width="3" stroke-linecap="round" stroke-linejoin="round"/>
<path d="M51.9624 33.7512V31.855" stroke="#222223" stroke-width="3" stroke-linecap="round" stroke-linejoin="round"/>
<path d="M65.2363 39.44L67.1326 37.5438" stroke="#222223" stroke-width="3" stroke-linecap="round" stroke-linejoin="round"/>
<path d="M38.6887 39.44L36.7925 37.5438" stroke="#222223" stroke-width="3" stroke-linecap="round" stroke-linejoin="round"/>
<path d="M34.8963 50.8176H33" stroke="#222223" stroke-width="3" stroke-linecap="round" stroke-linejoin="round"/>
<path d="M38.6887 62.1951L36.7925 64.0914" stroke="#222223" stroke-width="3" stroke-linecap="round" stroke-linejoin="round"/>
<path d="M67.1328 54.6101V81.1577" stroke="#222223" stroke-width="3" stroke-linecap="round" stroke-linejoin="round"/>
<path d="M49.7959 65.9876H84.3761" stroke="#222223" stroke-width="3" stroke-linecap="round" stroke-linejoin="round"/>
</svg>
