<svg width="24" height="24" viewBox="0 0 24 24" fill="none" xmlns="http://www.w3.org/2000/svg">
<path d="M14.7472 21.3731L14.7588 21.3812C15.7598 22.0185 16.9482 22.2953 18.1278 22.1658C19.3074 22.0362 20.4074 21.5081 21.2462 20.6687L21.9749 19.9401C22.1364 19.7787 22.2645 19.5871 22.3519 19.3762C22.4393 19.1653 22.4843 18.9392 22.4843 18.7109C22.4843 18.4826 22.4393 18.2566 22.3519 18.0457C22.2645 17.8348 22.1364 17.6432 21.9749 17.4818L18.9015 14.4107C18.7401 14.2492 18.5485 14.1211 18.3376 14.0337C18.1267 13.9463 17.9007 13.9013 17.6724 13.9013C17.4441 13.9013 17.218 13.9463 17.0071 14.0337C16.7962 14.1211 16.6046 14.2492 16.4432 14.4107C16.1173 14.7364 15.6754 14.9195 15.2147 14.9195C14.7539 14.9195 14.312 14.7364 13.9861 14.4107L9.07186 9.49528C8.74609 9.16941 8.56309 8.7275 8.56309 8.26672C8.56309 7.80594 8.74609 7.36403 9.07186 7.03816C9.23334 6.87679 9.36144 6.68517 9.44884 6.47427C9.53623 6.26337 9.58122 6.03732 9.58122 5.80902C9.58122 5.58073 9.53623 5.35468 9.44884 5.14378C9.36144 4.93287 9.23334 4.74126 9.07186 4.57989L5.99959 1.50878C5.67373 1.18301 5.23181 1 4.77104 1C4.31026 1 3.86834 1.18301 3.54248 1.50878L2.81264 2.23746C1.97343 3.0764 1.44555 4.17654 1.31622 5.3561C1.18689 6.53566 1.46385 7.72405 2.10134 8.7249L2.10829 8.73648C5.47502 13.7177 9.76542 18.0073 14.7472 21.3731Z" stroke="#F85757" stroke-width="1.4" stroke-linecap="round" stroke-linejoin="round"/>
</svg>
