<svg width="35" height="35" viewBox="0 0 35 35" fill="none" xmlns="http://www.w3.org/2000/svg">
<path d="M1.00879 33.1074H33.3382" stroke="#222223" stroke-width="2" stroke-linecap="round" stroke-linejoin="round"/>
<path d="M3.16406 13.71H31.1829V33.1076H3.16406V13.71Z" stroke="#222223" stroke-width="2" stroke-linecap="round" stroke-linejoin="round"/>
<path d="M33.3381 11.1237C33.3374 10.928 33.2836 10.7361 33.1823 10.5685C33.0811 10.401 32.9363 10.2641 32.7633 10.1725L17.6762 2.12607C17.52 2.04328 17.3458 2 17.169 2C16.9922 2 16.8181 2.04328 16.6618 2.12607L1.57475 10.1725C1.40177 10.2641 1.25693 10.401 1.15571 10.5685C1.05448 10.7361 1.00066 10.928 1 11.1237V12.6324C1 12.9182 1.11354 13.1923 1.31564 13.3944C1.51773 13.5965 1.79184 13.7101 2.07765 13.7101H32.2518C32.5376 13.7101 32.8117 13.5965 33.0138 13.3944C33.2159 13.1923 33.3294 12.9182 33.3294 12.6324L33.3381 11.1237Z" stroke="#222223" stroke-width="2" stroke-linecap="round" stroke-linejoin="round"/>
<path d="M7.47461 18.0205H26.8723V33.1076H7.47461V18.0205Z" stroke="#222223" stroke-width="2" stroke-linecap="round" stroke-linejoin="round"/>
<path d="M11.7852 24.4863H22.5616" stroke="#222223" stroke-width="2" stroke-linecap="round" stroke-linejoin="round"/>
<path d="M11.7852 28.7969H22.5616" stroke="#222223" stroke-width="2" stroke-linecap="round" stroke-linejoin="round"/>
</svg>
