<svg width="64" height="64" viewBox="0 0 64 64" fill="none" xmlns="http://www.w3.org/2000/svg">
<rect width="64" height="64" fill="#FFE0E0"/>
<circle cx="32" cy="32" r="32" fill="#FFE0E0"/>
<g filter="url(#filter0_d_1155_42228)">
<path fill-rule="evenodd" clip-rule="evenodd" d="M49.6676 29.1447L34.3291 47.0524C34.2896 47.0985 34.249 47.1431 34.2075 47.1863C33.6074 47.8104 32.8042 48.1227 32.0009 48.1232L31.9993 48.1273L31.9977 48.1232C31.1389 48.1229 30.2802 47.7662 29.6695 47.0532L14.3317 29.1454C14.2542 29.055 14.1856 28.96 14.1259 28.8615C13.599 27.9972 13.7422 26.8603 14.5121 26.1531L22.7778 18.5644C23.3895 18.0039 24.1905 17.6921 25.0226 17.6921H25.0231H25.0238H31.9993H38.9767H38.9773H38.978L38.9935 17.6922L38.9936 17.6922C39.8199 17.6962 40.6144 18.0076 41.2213 18.5644L49.4878 26.1531C49.6476 26.2999 49.78 26.4651 49.8847 26.6426C50.3452 27.4177 50.2831 28.4259 49.6676 29.1447Z" fill="#FF0000" fill-opacity="0.01" shape-rendering="crispEdges"/>
</g>
<path d="M50.0796 27.0996C50.1783 27.4195 50.2065 27.7588 50.1523 28.0891L39.0517 29.5693H24.9476L13.8462 28.0891C13.792 27.758 13.8202 27.4195 13.919 27.0996C13.7037 27.7863 13.8306 28.5605 14.3317 29.1454L29.6695 47.0532C30.8914 48.4799 33.1064 48.4799 34.3283 47.0532L49.6661 29.1454C50.1687 28.5598 50.2949 27.7855 50.0796 27.0996Z" fill="url(#paint0_linear_1155_42228)"/>
<path d="M49.6676 29.1447L34.3291 47.0524C33.1072 48.4791 30.8921 48.4791 29.6703 47.0524L14.3317 29.1447C13.5745 28.2613 13.6547 26.9407 14.5121 26.1531L22.7778 18.5644C23.3895 18.0039 24.1905 17.6921 25.0226 17.6921H38.9767C39.8081 17.6921 40.6098 18.0039 41.2208 18.5644L49.4865 26.1531C50.3446 26.9407 50.4241 28.2613 49.6676 29.1447Z" fill="#F85757"/>
<path d="M41.2213 18.5644C40.6104 18.0039 39.8094 17.6921 38.9773 17.6921H25.0231C24.1918 17.6921 23.39 18.0039 22.7791 18.5644L14.5126 26.1531C13.9574 26.6631 13.7339 27.395 13.8468 28.0891L24.9482 29.5693H39.0523L50.1537 28.0891C50.2665 27.3957 50.0431 26.6631 49.4878 26.1531L41.2213 18.5644Z" fill="#E44242"/>
<path d="M39.0514 29.5693L31.9993 48.1273L24.9473 29.5693H39.0514Z" fill="#E44242"/>
<path d="M38.978 17.6921H25.0238C24.4916 17.6921 23.9772 17.8324 23.5117 18.0715L24.9489 29.5693H39.0529L40.4901 18.0715C40.0246 17.8324 39.5109 17.6921 38.978 17.6921Z" fill="url(#paint1_linear_1155_42228)"/>
<path d="M38.978 17.6921H25.0238C24.4916 17.6921 23.9772 17.8324 23.5117 18.0715L24.9489 29.5693H39.0529L40.4901 18.0715C40.0246 17.8324 39.5109 17.6921 38.978 17.6921Z" fill="#F85757"/>
<path d="M39.0514 29.5693H24.9473L31.9993 17.6921L39.0514 29.5693Z" fill="#D33333"/>
<defs>
<filter id="filter0_d_1155_42228" x="9.8125" y="14.6921" width="44.373" height="38.4353" filterUnits="userSpaceOnUse" color-interpolation-filters="sRGB">
<feFlood flood-opacity="0" result="BackgroundImageFix"/>
<feColorMatrix in="SourceAlpha" type="matrix" values="0 0 0 0 0 0 0 0 0 0 0 0 0 0 0 0 0 0 127 0" result="hardAlpha"/>
<feOffset dy="1"/>
<feGaussianBlur stdDeviation="2"/>
<feComposite in2="hardAlpha" operator="out"/>
<feColorMatrix type="matrix" values="0 0 0 0 0.972549 0 0 0 0 0.341176 0 0 0 0 0.341176 0 0 0 0.42 0"/>
<feBlend mode="normal" in2="BackgroundImageFix" result="effect1_dropShadow_1155_42228"/>
<feBlend mode="normal" in="SourceGraphic" in2="effect1_dropShadow_1155_42228" result="shape"/>
</filter>
<linearGradient id="paint0_linear_1155_42228" x1="31.9996" y1="51.467" x2="31.9996" y2="36.1715" gradientUnits="userSpaceOnUse">
<stop stop-color="#3162AF"/>
<stop offset="0.299" stop-color="#3573C1"/>
<stop offset="0.706" stop-color="#3984D3"/>
<stop offset="1" stop-color="#3B8AD9"/>
</linearGradient>
<linearGradient id="paint1_linear_1155_42228" x1="32.0009" y1="33.4598" x2="32.0009" y2="21.5826" gradientUnits="userSpaceOnUse">
<stop stop-color="#2D91DE"/>
<stop offset="0.557" stop-color="#2EA1EB"/>
<stop offset="1" stop-color="#2FA7F0"/>
</linearGradient>
</defs>
</svg>
