<svg width="123" height="123" viewBox="0 0 123 123" fill="none" xmlns="http://www.w3.org/2000/svg">
<rect width="123" height="123" fill="#616066" fill-opacity="0.1"/>
<path d="M87.4512 48.4773L74.3384 52.8482V48.4773C74.3384 46.7384 73.6476 45.0708 72.4181 43.8412C71.1885 42.6117 69.5208 41.9209 67.782 41.9209H41.5564C39.8175 41.9209 38.1499 42.6117 36.9203 43.8412C35.6908 45.0708 35 46.7384 35 48.4773V74.7029C35 76.4417 35.6908 78.1094 36.9203 79.339C38.1499 80.5685 39.8175 81.2593 41.5564 81.2593H67.782C69.5208 81.2593 71.1885 80.5685 72.4181 79.339C73.6476 78.1094 74.3384 76.4417 74.3384 74.7029V70.332L87.4512 74.7029V48.4773Z" fill="white" stroke="#222223" stroke-width="3" stroke-linecap="round" stroke-linejoin="round"/>
</svg>
