<svg width="114" height="114" viewBox="0 0 114 114" fill="none" xmlns="http://www.w3.org/2000/svg">
<rect width="114" height="114" fill="#F85757" fill-opacity="0.1"/>
<path d="M68.1261 48.5836C68.1261 47.4642 68.1261 38.5091 68.1261 37.3897C68.1261 31.1211 63.2008 26.1958 56.9322 26.1958C50.6636 26.1958 45.7383 31.1211 45.7383 37.3897C45.7383 38.5091 45.7383 47.4642 45.7383 48.5836" stroke="#222223" stroke-width="4.47757"/>
<path d="M70.3635 46.3447H43.4981C38.5728 46.3447 34.543 50.3745 34.543 55.2999V73.2101C34.543 78.1354 38.5728 82.1652 43.4981 82.1652H70.3635C75.2888 82.1652 79.3186 78.1354 79.3186 73.2101V55.2999C79.3186 50.3745 75.2888 46.3447 70.3635 46.3447ZM59.1696 65.8221V70.9713C59.1696 72.3146 58.2741 73.2101 56.9308 73.2101C55.5875 73.2101 54.692 72.3146 54.692 70.9713V65.8221C53.3487 65.1505 52.4532 63.5834 52.4532 62.0162C52.4532 59.5535 54.4681 57.5386 56.9308 57.5386C59.3935 57.5386 61.4084 59.5535 61.4084 62.0162C61.4084 63.5834 60.5128 65.1505 59.1696 65.8221Z" fill="#F85757"/>
<path d="M42.5093 48.9199H54.9263C54.4922 50.4929 39.6924 50.2122 38.3704 61.3369C38.1435 58.9509 38.3704 53.0589 38.3704 53.0589C38.3704 50.7825 40.2329 48.9199 42.5093 48.9199Z" fill="white"/>
</svg>
