<svg width="123" height="123" viewBox="0 0 123 123" fill="none" xmlns="http://www.w3.org/2000/svg">
<rect width="123" height="123" fill="#616066" fill-opacity="0.1"/>
<path d="M39.9517 58.5154L42.2994 52.9982L79.8631 52.2939L82.9152 61.2153V68.0237L80.8022 74.3626L76.6937 81.171L72.3504 84.223L64.1333 87.2751H58.264L49.9296 84.223L42.2994 77.532L38.7778 67.3194L39.9517 58.5154Z" fill="white"/>
<path d="M84.0956 36.1528H38.5496L35.4976 39.0875L38.5496 50.3566L41.8364 53.0565L81.3957 52.2348L84.7999 49.3001L86.5607 38.3831L84.0956 36.1528Z" fill="white"/>
<path d="M61.1216 88.7611C57.9686 88.7584 54.8487 88.1193 51.9486 86.8822C48.4139 85.4059 45.2906 83.0934 42.8469 80.1434C40.4033 77.1935 38.7125 73.6943 37.9198 69.9466C36.7503 64.502 37.5358 58.8195 40.1383 53.8962C38.981 53.3163 37.9705 52.4811 37.183 51.4537C36.3956 50.4262 35.8518 49.2334 35.5926 47.9651L34.1008 40.5104C33.9678 39.8546 33.9664 39.1789 34.0966 38.5225C34.2268 37.8662 34.486 37.2422 34.8592 36.6868C35.3172 35.9928 35.9396 35.4226 36.671 35.0269C37.4024 34.6312 38.2202 34.4222 39.0517 34.4185H83.2367C84.5972 34.4185 85.8763 34.9482 86.8384 35.9103C87.4358 36.4997 87.8765 37.2289 88.1204 38.0319C88.3643 38.8349 88.4038 39.686 88.2352 40.5081L86.7433 47.9651C86.4838 49.2359 85.9384 50.4311 85.1485 51.4599C84.3585 52.4887 83.3448 53.3242 82.184 53.903C84.1674 57.635 85.1146 61.8303 84.9271 66.0524C84.7395 70.2745 83.4242 74.3692 81.1178 77.9107C79.4266 80.5361 77.2315 82.7999 74.6594 84.5711C72.0874 86.3422 69.1895 87.5856 66.1336 88.2291C64.4788 88.5823 62.7945 88.7611 61.1216 88.7611V88.7611ZM54.3777 84.1973C56.5466 84.971 58.8324 85.3662 61.1351 85.3654C63.4599 85.3625 65.7675 84.9668 67.9605 84.195V71.7713C67.9605 68.0269 64.9134 64.9798 61.1691 64.9798C57.4248 64.9798 54.3777 68.0269 54.3777 71.7713V84.1973V84.1973ZM61.1691 61.5819C66.7856 61.5819 71.3562 66.1525 71.3562 71.769V82.6398C74.1478 81.0262 76.5165 78.7731 78.2676 76.0657C82.4149 69.6682 82.6028 61.3713 78.7906 54.7814C78.6669 54.7877 78.5431 54.7907 78.4193 54.7904H43.9189C43.7967 54.7904 43.6721 54.7882 43.5408 54.7791C41.0009 59.1436 40.1815 64.2989 41.2431 69.2358C41.8311 72.0277 43.0027 74.6638 44.6811 76.9711C46.3595 79.2784 48.5067 81.2048 50.982 82.6239V71.7667C50.9856 69.0662 52.0601 66.4774 53.9698 64.5681C55.8796 62.6588 58.4686 61.5849 61.1691 61.5819V61.5819ZM39.0925 37.8119C38.8418 37.8132 38.5946 37.8698 38.3683 37.9777C38.1421 38.0857 37.9425 38.2422 37.7838 38.4362C37.625 38.6302 37.5111 38.8568 37.4501 39.0999C37.3891 39.343 37.3825 39.5966 37.4308 39.8425L38.9227 47.2995C39.1559 48.4534 39.7806 49.4912 40.691 50.2374C41.6015 50.9837 42.7417 51.3925 43.9189 51.3947H78.4193C79.5964 51.3921 80.7364 50.9831 81.6468 50.2369C82.5571 49.4908 83.1819 48.4532 83.4155 47.2995L84.9051 39.8425C84.9609 39.5684 84.9475 39.2848 84.8661 39.0172C84.7847 38.7495 84.6378 38.5065 84.4388 38.3099C84.2813 38.1521 84.0943 38.0269 83.8884 37.9415C83.6826 37.856 83.4619 37.812 83.2389 37.8119H39.0925V37.8119Z" fill="#222223"/>
<path d="M61.169 79.4095C61.0704 79.4093 60.972 79.4009 60.8747 79.3846C60.3082 79.3162 59.7811 79.0598 59.3776 78.6564C58.9742 78.2529 58.7177 77.7257 58.6494 77.1593C58.613 76.9633 58.613 76.7622 58.6494 76.5662C58.7852 75.4048 59.7134 74.4789 60.8747 74.3431C61.0699 74.3062 61.2703 74.3062 61.4656 74.3431C62.6269 74.4789 63.5551 75.4071 63.6909 76.5684C63.7232 76.7648 63.7232 76.9652 63.6909 77.1615C63.6174 77.7795 63.3204 78.3492 62.8558 78.7633C62.3913 79.1774 61.7913 79.4072 61.169 79.4095V79.4095Z" fill="#222223"/>
</svg>
