<svg width="123" height="123" viewBox="0 0 123 123" fill="none" xmlns="http://www.w3.org/2000/svg">
<rect width="123" height="123" fill="#616066" fill-opacity="0.1"/>
<path d="M83.7339 59.3464C83.7339 74.4629 71.4834 86.7133 56.3669 86.7133C41.2504 86.7133 29 74.4629 29 59.3464C29 50.3004 33.3887 42.2844 40.1508 37.2986C44.6887 33.9549 50.2964 31.9795 56.3669 31.9795C63.6266 31.9795 70.2295 34.8057 75.1307 39.4233" fill="white"/>
<path d="M83.7339 59.3464C83.7339 74.4629 71.4834 86.7133 56.3669 86.7133C41.2504 86.7133 29 74.4629 29 59.3464C29 50.3004 33.3887 42.2844 40.1508 37.2986C44.6887 33.9549 50.2964 31.9795 56.3669 31.9795C63.6266 31.9795 70.2295 34.8057 75.1307 39.4233" stroke="#222223" stroke-width="3" stroke-linecap="round" stroke-linejoin="round"/>
<path d="M68.806 71.532C65.6464 74.7613 61.2378 76.7616 56.3665 76.7616C46.7483 76.7616 38.9512 68.9645 38.9512 59.3463C38.9512 53.5893 41.7426 48.4891 46.0467 45.3145C48.3007 43.6526 50.9727 42.5231 53.8786 42.1051" stroke="#222223" stroke-width="3" stroke-linecap="round" stroke-linejoin="round"/>
<path d="M93.6874 46.6776C93.6874 52.37 89.2341 56.9875 83.7358 56.9825C78.2375 56.9776 73.7792 52.37 73.7842 46.6776C73.7892 40.9853 78.2375 32.1035 83.7408 32.1035C89.244 32.1035 93.6874 40.9853 93.6874 46.6776Z" fill="white"/>
<path d="M83.7358 57.296V89.2009M93.6874 46.6776C93.6874 52.37 89.2341 56.9875 83.7358 56.9825C78.2375 56.9776 73.7792 52.37 73.7842 46.6776C73.7892 40.9853 78.2375 32.1035 83.7408 32.1035C89.244 32.1035 93.6874 40.9853 93.6874 46.6776Z" stroke="#222223" stroke-width="3" stroke-linecap="round" stroke-linejoin="round"/>
</svg>
