<svg width="90" height="90" viewBox="0 0 90 90" fill="none" xmlns="http://www.w3.org/2000/svg">
<rect width="90" height="90" fill="#F85757" fill-opacity="0.1"/>
<g filter="url(#filter0_d_1160_40296)">
<path fill-rule="evenodd" clip-rule="evenodd" d="M45.0018 16.7341C43.7862 16.7341 42.6203 17.217 41.7607 18.0766C41.1703 18.6671 40.7576 19.402 40.557 20.1982C36.7139 20.9121 33.179 22.5328 30.1847 24.8278C30.1073 24.7905 30.0288 24.7554 29.9492 24.7224C29.3931 24.4921 28.7971 24.3735 28.1952 24.3735C27.5932 24.3735 26.9972 24.4921 26.4411 24.7224C25.885 24.9528 25.3797 25.2904 24.954 25.716C24.5284 26.1417 24.1908 26.647 23.9604 27.2031C23.7301 27.7592 23.6115 28.3552 23.6115 28.9572C23.6115 29.5591 23.7301 30.1551 23.9604 30.7113C24.0486 30.924 24.1524 31.1294 24.2709 31.3257C22.6742 33.8747 21.5338 36.7352 20.9666 39.7905C20.1694 39.9909 19.4336 40.4038 18.8425 40.9948C17.9829 41.8544 17.5 43.0203 17.5 44.236C17.5 45.4516 17.9829 46.6175 18.8425 47.4771C19.4335 48.0681 20.1694 48.4811 20.9666 48.6814C21.5338 51.7367 22.6741 54.5973 24.2708 57.1463C23.8431 57.8552 23.6115 58.673 23.6115 59.5148C23.6115 60.7304 24.0944 61.8963 24.954 62.7559C25.8136 63.6155 26.9795 64.0984 28.1952 64.0984C28.8906 64.0984 29.5698 63.9404 30.1846 63.6441C32.0016 65.0368 34.0176 66.1812 36.1808 67.0253L35.2254 70.2099H34.3097C32.629 70.2099 31.2539 71.585 31.2539 73.2657H34.3087L34.3086 73.2659H37.3644L37.3644 73.2657H37.3654V73.2624L39.0291 67.9385C39.5325 68.0662 40.042 68.1782 40.557 68.2738C40.7576 69.0701 41.1703 69.8049 41.7607 70.3953C42.6203 71.2549 43.7862 71.7378 45.0018 71.7378C46.2175 71.7378 47.3834 71.2549 48.243 70.3953C48.8331 69.8052 49.2456 69.0708 49.4463 68.275C49.9628 68.1792 50.4737 68.067 50.9785 67.939L52.6432 73.2659H56.1573L56.1572 73.2657H58.7557C58.7557 71.585 57.3807 70.2099 55.7 70.2099H55.1947L54.1511 66.8969C56.1915 66.0669 58.0969 64.9684 59.8227 63.6459C60.4366 63.941 61.1144 64.0984 61.8085 64.0984C63.0242 64.0984 64.19 63.6155 65.0496 62.7559C65.9092 61.8963 66.3922 60.7304 66.3922 59.5148C66.3922 58.675 66.1617 57.8589 65.7358 57.1512C67.3344 54.6005 68.4759 51.7377 69.0434 48.6798C69.8382 48.4789 70.5717 48.0666 71.1612 47.4771C72.0208 46.6175 72.5037 45.4516 72.5037 44.236C72.5037 43.0203 72.0208 41.8544 71.1612 40.9948C70.5717 40.4054 69.8382 39.993 69.0434 39.7921C68.4759 36.7343 67.3343 33.8715 65.7357 31.3208C65.853 31.126 65.9558 30.9223 66.0433 30.7113C66.2736 30.1551 66.3922 29.5591 66.3922 28.9572C66.3922 28.3552 66.2736 27.7592 66.0433 27.2031C65.8129 26.647 65.4753 26.1417 65.0496 25.716C64.624 25.2904 64.1187 24.9528 63.5626 24.7224C63.0065 24.4921 62.4105 24.3735 61.8085 24.3735C61.2066 24.3735 60.6105 24.4921 60.0544 24.7224C59.9761 24.7549 59.8988 24.7894 59.8226 24.8261C56.8272 22.5307 53.2909 20.9102 49.4464 20.1971C49.2457 19.4012 48.8331 18.6668 48.243 18.0766C47.3834 17.217 46.2175 16.7341 45.0018 16.7341ZM32.349 27.0193C34.8312 25.187 37.7192 23.8766 40.8473 23.2541C41.0712 23.7345 41.3788 24.1769 41.7607 24.5589C42.2494 25.0476 42.837 25.4145 43.4766 25.6402V40.5492L32.7047 29.7778C32.7539 29.5077 32.7788 29.233 32.7788 28.9572C32.7788 28.3552 32.6602 27.7592 32.4299 27.2031C32.4043 27.1412 32.3773 27.0799 32.349 27.0193ZM46.5323 40.5465V25.6384C47.1698 25.4125 47.7556 25.0462 48.243 24.5589C48.6252 24.1766 48.933 23.7338 49.1569 23.253C52.2852 23.8747 55.1736 25.1843 57.6562 27.016C57.6274 27.0777 57.5999 27.1401 57.5738 27.2031C57.3434 27.7592 57.2249 28.3552 57.2249 28.9572C57.2249 29.2338 57.2499 29.5091 57.2993 29.7799L46.5323 40.5465ZM48.6921 42.7083L58.9005 32.5002C59.2484 32.7858 59.6371 33.019 60.0544 33.1919C60.6105 33.4223 61.2066 33.5408 61.8085 33.5408C62.3351 33.5408 62.8571 33.4501 63.3519 33.2732C64.5967 35.3433 65.5014 37.6385 65.9871 40.0798C65.5054 40.3039 65.0618 40.612 64.6789 40.9948C64.1909 41.4829 63.8242 42.0697 63.5985 42.7083H48.6921ZM48.6915 45.764H63.5986C63.8244 46.4025 64.1909 46.9891 64.6789 47.4771C65.0618 47.8599 65.5054 48.1681 65.9871 48.3921C65.5014 50.8335 64.5967 53.1286 63.3519 55.1988C62.8612 55.0233 62.3396 54.9311 61.8085 54.9311C60.7433 54.9311 59.7162 55.302 58.9 55.9721L48.6915 45.764ZM48.9308 50.3247L57.2992 58.6928C57.2501 58.9621 57.2249 59.2372 57.2249 59.5148C57.2249 60.1921 57.3748 60.8539 57.6562 61.456C56.2938 62.4612 54.8093 63.3092 53.2299 63.9725L48.9308 50.3247ZM28.1952 33.5408C27.6704 33.5408 27.15 33.4507 26.6568 33.2749C25.412 35.3453 24.5076 37.6408 24.0221 40.0824C24.5017 40.3062 24.9434 40.6135 25.3248 40.9948C25.8128 41.4829 26.1794 42.0697 26.4052 42.7083H41.3141L31.1046 32.4991C30.7563 32.7851 30.3671 33.0188 29.9492 33.1919C29.3931 33.4223 28.7971 33.5408 28.1952 33.5408ZM25.3248 47.4771C24.9434 47.8585 24.5017 48.1657 24.0221 48.3895C24.5075 50.8312 25.412 53.1266 26.6567 55.197C27.146 55.0227 27.6658 54.9311 28.1952 54.9311C29.261 54.9311 30.2886 55.3024 31.1051 55.9733L41.3147 45.764H26.4051C26.1793 46.4025 25.8127 46.9891 25.3248 47.4771ZM32.7788 59.5148C32.7788 60.1909 32.6294 60.8515 32.349 61.4527C33.7934 62.519 35.3752 63.4085 37.0618 64.0886L41.2405 50.1597L32.7049 58.6949C32.7537 58.9636 32.7788 59.2379 32.7788 59.5148ZM41.7607 63.9131C42.2494 63.4244 42.837 63.0574 43.4766 62.8318V53.7068L39.9421 65.0171C40.2414 65.0905 40.5432 65.1575 40.8472 65.218C41.0711 64.7375 41.3787 64.295 41.7607 63.9131ZM48.243 63.9131C48.6252 64.2953 48.933 64.7382 49.157 65.2191C49.4622 65.1584 49.7651 65.0912 50.0656 65.0176L46.5323 53.7112V62.8336C47.1698 63.0594 47.7556 63.4257 48.243 63.9131Z" fill="#FF0000" fill-opacity="0.01" shape-rendering="crispEdges"/>
</g>
<path d="M43.4766 21.3176H46.5323V67.154H43.4766V21.3176Z" fill="white"/>
<path d="M22.0859 42.7083H67.9223V45.764H22.0859V42.7083Z" fill="white"/>
<path d="M60.1289 26.9502L62.2896 29.111L29.8778 61.5216L27.7171 59.3609L60.1289 26.9502Z" fill="white"/>
<path d="M62.2891 59.3611L60.1284 61.5219L27.7166 29.1112L29.8773 26.9504L62.2891 59.3611Z" fill="white"/>
<path d="M45.0048 41.1802C44.1944 41.1802 43.4171 41.5021 42.8441 42.0752C42.271 42.6483 41.9491 43.4255 41.9491 44.2359C41.9491 45.0464 42.271 45.8236 42.8441 46.3967C43.4171 46.9698 44.1944 47.2917 45.0048 47.2917C45.8153 47.2917 46.5925 46.9698 47.1656 46.3967C47.7386 45.8236 48.0606 45.0464 48.0606 44.2359C48.0606 43.4255 47.7386 42.6483 47.1656 42.0752C46.5925 41.5021 45.8153 41.1802 45.0048 41.1802ZM58.7557 73.2657H52.6442V70.2099H55.7C57.3807 70.2099 58.7557 71.585 58.7557 73.2657ZM37.3654 73.2657H31.2539C31.2539 71.585 32.629 70.2099 34.3097 70.2099H37.3654V73.2657Z" fill="#B7B7B7"/>
<path d="M46.5316 42.7083H43.4759L34.3086 73.2659H37.3644L45.0038 48.8198L52.6432 73.2659H56.1573L46.5316 42.7083Z" fill="#B7B7B7"/>
<path d="M45.0047 19.79C31.5593 19.79 20.5586 30.7908 20.5586 44.2361C20.5586 57.6815 31.5593 68.6822 45.0047 68.6822C58.45 68.6822 69.4508 57.6815 69.4508 44.2361C69.4508 30.7908 58.45 19.79 45.0047 19.79ZM45.0047 65.6264C33.24 65.6264 23.6144 56.0008 23.6144 44.2361C23.6144 32.4714 33.24 22.8458 45.0047 22.8458C56.7694 22.8458 66.395 32.4714 66.395 44.2361C66.395 56.0008 56.7694 65.6264 45.0047 65.6264Z" fill="#F85757"/>
<path d="M45.0018 16.7341C43.7862 16.7341 42.6203 17.217 41.7607 18.0766C40.9011 18.9362 40.4182 20.1021 40.4182 21.3178C40.4182 22.5334 40.9011 23.6993 41.7607 24.5589C42.6203 25.4185 43.7862 25.9014 45.0018 25.9014C46.2175 25.9014 47.3834 25.4185 48.243 24.5589C49.1026 23.6993 49.5855 22.5334 49.5855 21.3178C49.5855 20.1021 49.1026 18.9362 48.243 18.0766C47.3834 17.217 46.2175 16.7341 45.0018 16.7341ZM45.0018 62.5705C43.7862 62.5705 42.6203 63.0535 41.7607 63.9131C40.9011 64.7727 40.4182 65.9385 40.4182 67.1542C40.4182 68.3698 40.9011 69.5357 41.7607 70.3953C42.6203 71.2549 43.7862 71.7378 45.0018 71.7378C46.2175 71.7378 47.3834 71.2549 48.243 70.3953C49.1026 69.5357 49.5855 68.3698 49.5855 67.1542C49.5855 65.9385 49.1026 64.7727 48.243 63.9131C47.3834 63.0535 46.2175 62.5705 45.0018 62.5705ZM67.92 39.6523C66.7044 39.6523 65.5385 40.1352 64.6789 40.9948C63.8193 41.8544 63.3364 43.0203 63.3364 44.236C63.3364 45.4516 63.8193 46.6175 64.6789 47.4771C65.5385 48.3367 66.7044 48.8196 67.92 48.8196C69.1357 48.8196 70.3016 48.3367 71.1612 47.4771C72.0208 46.6175 72.5037 45.4516 72.5037 44.236C72.5037 43.0203 72.0208 41.8544 71.1612 40.9948C70.3016 40.1352 69.1357 39.6523 67.92 39.6523ZM22.0836 39.6523C20.868 39.6523 19.7021 40.1352 18.8425 40.9948C17.9829 41.8544 17.5 43.0203 17.5 44.236C17.5 45.4516 17.9829 46.6175 18.8425 47.4771C19.7021 48.3367 20.868 48.8196 22.0836 48.8196C23.2993 48.8196 24.4652 48.3367 25.3248 47.4771C26.1844 46.6175 26.6673 45.4516 26.6673 44.236C26.6673 43.0203 26.1844 41.8544 25.3248 40.9948C24.4652 40.1352 23.2993 39.6523 22.0836 39.6523ZM61.8085 24.3735C61.2066 24.3735 60.6105 24.4921 60.0544 24.7224C59.4983 24.9528 58.993 25.2904 58.5674 25.716C58.1418 26.1417 57.8041 26.647 57.5738 27.2031C57.3434 27.7592 57.2249 28.3552 57.2249 28.9572C57.2249 29.5591 57.3434 30.1551 57.5738 30.7113C57.8041 31.2674 58.1418 31.7727 58.5674 32.1983C58.993 32.6239 59.4983 32.9616 60.0544 33.1919C60.6105 33.4223 61.2066 33.5408 61.8085 33.5408C62.4105 33.5408 63.0065 33.4223 63.5626 33.1919C64.1187 32.9616 64.624 32.6239 65.0496 32.1983C65.4753 31.7727 65.8129 31.2674 66.0433 30.7113C66.2736 30.1551 66.3922 29.5591 66.3922 28.9572C66.3922 28.3552 66.2736 27.7592 66.0433 27.2031C65.8129 26.647 65.4753 26.1417 65.0496 25.716C64.624 25.2904 64.1187 24.9528 63.5626 24.7224C63.0065 24.4921 62.4105 24.3735 61.8085 24.3735V24.3735ZM28.1952 24.3735C27.5932 24.3735 26.9972 24.4921 26.4411 24.7224C25.885 24.9528 25.3797 25.2904 24.954 25.716C24.5284 26.1417 24.1908 26.647 23.9604 27.2031C23.7301 27.7592 23.6115 28.3552 23.6115 28.9572C23.6115 29.5591 23.7301 30.1551 23.9604 30.7113C24.1908 31.2674 24.5284 31.7727 24.954 32.1983C25.3797 32.6239 25.885 32.9616 26.4411 33.1919C26.9972 33.4223 27.5932 33.5408 28.1952 33.5408C28.7971 33.5408 29.3931 33.4223 29.9492 33.1919C30.5054 32.9616 31.0107 32.6239 31.4363 32.1983C31.8619 31.7727 32.1995 31.2674 32.4299 30.7113C32.6602 30.1551 32.7788 29.5591 32.7788 28.9572C32.7788 28.3552 32.6602 27.7592 32.4299 27.2031C32.1995 26.647 31.8619 26.1417 31.4363 25.716C31.0107 25.2904 30.5054 24.9528 29.9492 24.7224C29.3931 24.4921 28.7971 24.3735 28.1952 24.3735V24.3735ZM61.8085 54.9311C60.5929 54.9311 59.427 55.414 58.5674 56.2736C57.7078 57.1332 57.2249 58.2991 57.2249 59.5148C57.2249 60.7304 57.7078 61.8963 58.5674 62.7559C59.427 63.6155 60.5929 64.0984 61.8085 64.0984C63.0242 64.0984 64.19 63.6155 65.0496 62.7559C65.9092 61.8963 66.3922 60.7304 66.3922 59.5148C66.3922 58.2991 65.9092 57.1332 65.0496 56.2736C64.19 55.414 63.0242 54.9311 61.8085 54.9311ZM28.1952 54.9311C26.9795 54.9311 25.8136 55.414 24.954 56.2736C24.0944 57.1332 23.6115 58.2991 23.6115 59.5148C23.6115 60.7304 24.0944 61.8963 24.954 62.7559C25.8136 63.6155 26.9795 64.0984 28.1952 64.0984C29.4108 64.0984 30.5767 63.6155 31.4363 62.7559C32.2959 61.8963 32.7788 60.7304 32.7788 59.5148C32.7788 58.2991 32.2959 57.1332 31.4363 56.2736C30.5767 55.414 29.4108 54.9311 28.1952 54.9311Z" fill="#F85757"/>
<path d="M45.003 19.0259C43.7807 19.0259 42.7112 20.0954 42.7112 21.3177H47.2948C47.2948 20.0954 46.2253 19.0259 45.003 19.0259ZM45.003 64.8623C43.7807 64.8623 42.7112 65.9318 42.7112 67.1541H47.2948C47.2948 65.9318 46.2253 64.8623 45.003 64.8623ZM67.9212 41.9441C66.6989 41.9441 65.6294 43.0136 65.6294 44.2359H70.213C70.213 43.0136 69.1435 41.9441 67.9212 41.9441ZM22.0848 42.2497C20.8625 42.2497 19.793 43.3192 19.793 44.5415H24.3766C24.3766 43.1664 23.3071 42.2497 22.0848 42.2497ZM61.8097 26.6653C60.5874 26.6653 59.5179 27.7348 59.5179 28.9571H64.1015C64.1015 27.7348 63.032 26.6653 61.8097 26.6653ZM28.1963 26.9709C26.974 26.9709 25.9045 28.0404 25.9045 29.2627H30.4881C30.4881 27.8876 29.4186 26.9709 28.1963 26.9709ZM61.8097 57.2229C60.5874 57.2229 59.5179 58.2924 59.5179 59.5147H64.1015C64.1015 58.2924 63.032 57.2229 61.8097 57.2229ZM28.1963 57.2229C26.974 57.2229 25.9045 58.2924 25.9045 59.5147H30.4881C30.4881 58.2924 29.4186 57.2229 28.1963 57.2229Z" fill="white"/>
<defs>
<filter id="filter0_d_1160_40296" x="13.5" y="13.7341" width="63.0039" height="64.5317" filterUnits="userSpaceOnUse" color-interpolation-filters="sRGB">
<feFlood flood-opacity="0" result="BackgroundImageFix"/>
<feColorMatrix in="SourceAlpha" type="matrix" values="0 0 0 0 0 0 0 0 0 0 0 0 0 0 0 0 0 0 127 0" result="hardAlpha"/>
<feOffset dy="1"/>
<feGaussianBlur stdDeviation="2"/>
<feComposite in2="hardAlpha" operator="out"/>
<feColorMatrix type="matrix" values="0 0 0 0 0.791949 0 0 0 0 0.129791 0 0 0 0 0.129791 0 0 0 0.1 0"/>
<feBlend mode="normal" in2="BackgroundImageFix" result="effect1_dropShadow_1160_40296"/>
<feBlend mode="normal" in="SourceGraphic" in2="effect1_dropShadow_1160_40296" result="shape"/>
</filter>
</defs>
</svg>
