<svg width="123" height="123" viewBox="0 0 123 123" fill="none" xmlns="http://www.w3.org/2000/svg">
<rect width="123" height="123" fill="#616066" fill-opacity="0.1"/>
<path d="M36 80.4612V52.2567C36 50.8966 36.5403 49.5923 37.502 48.6306C38.4637 47.6689 39.768 47.1286 41.1281 47.1286H82.1528C83.5128 47.1286 84.8172 47.6689 85.7789 48.6306C86.7406 49.5923 87.2809 50.8966 87.2809 52.2567V80.4612C87.2809 81.8212 86.7406 83.1256 85.7789 84.0873C84.8172 85.049 83.5128 85.5893 82.1528 85.5893H41.1281C39.768 85.5893 38.4637 85.049 37.502 84.0873C36.5403 83.1256 36 81.8212 36 80.4612Z" fill="white" stroke="#222223" stroke-width="3"/>
<path d="M52.6665 35.5904L61.6407 44.5646L70.6148 35.5904" stroke="#222223" stroke-width="3" stroke-linecap="round" stroke-linejoin="round"/>
</svg>
