<svg width="90" height="90" viewBox="0 0 90 90" fill="none" xmlns="http://www.w3.org/2000/svg">
<rect width="90" height="90" fill="#F85757" fill-opacity="0.1"/>
<g filter="url(#filter0_d_1160_40206)">
<path fill-rule="evenodd" clip-rule="evenodd" d="M46.2658 22.2276C46.266 22.2234 46.2661 22.2191 46.2661 22.2148V20.949C46.2661 20.2489 45.7002 19.6831 45.0002 19.6831C44.3002 19.6831 43.7344 20.2489 43.7344 20.949V22.2148C43.7344 22.219 43.7345 22.2232 43.7346 22.2273C24.4991 22.7054 20.6031 36.7575 19.8537 41.1617C19.7427 41.5785 19.6836 42.0165 19.6836 42.4684V42.4684C19.6836 45.2659 21.9495 47.5318 24.747 47.5318C27.5445 47.5318 29.8104 45.2659 29.8104 42.4684V42.4684H29.8359V42.4684C29.8359 45.2659 32.1018 47.5318 34.8993 47.5318C37.6568 47.5318 39.8977 45.3304 39.9613 42.5883C40.0147 44.8874 41.5986 46.8064 43.7344 47.3665V63.994C38.8245 64.042 34.1772 64.368 30.6782 64.9147C26.8799 65.5082 24.7461 66.3131 24.7461 67.1524C24.7461 67.9917 26.8799 68.7967 30.6782 69.3901C34.4765 69.9836 39.6281 70.317 44.9997 70.317C50.3712 70.317 55.5228 69.9836 59.3211 69.3901C63.1194 68.7967 65.2532 67.9917 65.2532 67.1524C65.2532 66.3131 63.1194 65.5082 59.3211 64.9147C55.8224 64.368 51.1755 64.042 46.2661 63.994V47.3783C48.3623 46.8499 49.9376 45.0151 50.0767 42.7895C50.2422 45.4373 52.4404 47.5318 55.1301 47.5318C57.8876 47.5318 60.1285 45.3304 60.1921 42.5882C60.2557 45.3304 62.4966 47.5318 65.2541 47.5318C68.0516 47.5318 70.3175 45.2659 70.3175 42.4684V42.4684C70.3175 42.0132 70.2575 41.5722 70.145 41.1527C69.3901 36.7557 65.4841 22.8144 46.2658 22.2276ZM44.9985 47.5318C44.9498 47.5315 44.9014 47.5306 44.853 47.529C44.9013 47.5308 44.9497 47.5317 44.9985 47.5318Z" fill="#FF0000" fill-opacity="0.01" shape-rendering="crispEdges"/>
</g>
<path opacity="0.4" d="M44.9997 63.9878C39.6281 63.9878 34.4765 64.3212 30.6782 64.9147C26.8799 65.5082 24.7461 66.3131 24.7461 67.1524C24.7461 67.9917 26.8799 68.7967 30.6782 69.3901C34.4765 69.9836 39.6281 70.317 44.9997 70.317C50.3712 70.317 55.5228 69.9836 59.3211 69.3901C63.1194 68.7967 65.2532 67.9917 65.2532 67.1524C65.2532 66.3131 63.1194 65.5082 59.3211 64.9147C55.5228 64.3212 50.3712 63.9878 44.9997 63.9878V63.9878Z" fill="#F85757"/>
<path d="M29.8104 42.4684C29.8104 45.2659 27.5445 47.5318 24.747 47.5318C21.9495 47.5318 19.6836 45.2659 19.6836 42.4684C19.6836 39.6709 21.9495 37.405 24.747 37.405C27.5445 37.405 29.8104 39.6709 29.8104 42.4684ZM50.0867 42.4684C50.0867 45.2659 47.8209 47.5318 45.0233 47.5318C42.2258 47.5318 39.9599 45.2659 39.9599 42.4684C39.9599 39.6709 42.2258 37.405 45.0233 37.405C47.8209 37.405 50.0867 39.6709 50.0867 42.4684ZM70.3175 42.4684C70.3175 45.2659 68.0516 47.5318 65.2541 47.5318C62.4566 47.5318 60.1907 45.2659 60.1907 42.4684C60.1907 39.6709 62.4566 37.405 65.2541 37.405C68.0516 37.405 70.3175 39.6709 70.3175 42.4684Z" fill="#EA4949"/>
<path d="M60.1935 42.4684C60.1935 45.2659 57.9276 47.5318 55.1301 47.5318C52.3326 47.5318 50.0667 45.2659 50.0667 42.4684C50.0667 39.6709 52.3326 37.405 55.1301 37.405C57.9276 37.405 60.1935 39.6709 60.1935 42.4684ZM39.9627 42.4684C39.9627 39.6709 37.6969 37.405 34.8993 37.405C32.1018 37.405 29.8359 39.6709 29.8359 42.4684C29.8359 45.2659 32.1018 47.5318 34.8993 47.5318C37.6969 47.5318 39.9627 45.2659 39.9627 42.4684Z" fill="#F4C7C7"/>
<path d="M45.0005 22.2085C45.0005 22.2085 44.9094 22.2148 44.7499 22.2148C20.9494 22.2148 19.6836 42.4684 19.6836 42.4684H70.3175C70.3175 42.4684 69.0516 22.2085 45.0005 22.2085Z" fill="#F85757"/>
<path d="M45.0252 22.2085C45.0252 22.2085 39.9618 27.2782 39.9618 42.4684H29.835C29.835 42.4684 28.5692 27.2719 45.0252 22.2085Z" fill="white"/>
<path d="M45.0039 22.2085C45.0039 22.2085 50.0673 27.2782 50.0673 42.4684H60.1941C60.1941 42.4684 61.4599 27.2719 45.0039 22.2085Z" fill="white"/>
<path d="M46.2661 22.2148C46.2661 22.9148 43.7344 22.9148 43.7344 22.2148V20.949C43.7344 20.2489 44.3002 19.6831 45.0002 19.6831C45.7002 19.6831 46.2661 20.2489 46.2661 20.949V22.2148ZM45.0002 47.5318C44.5597 47.5318 44.1407 47.4571 43.7344 47.352V65.2536C43.7344 65.2536 43.7344 66.5195 45.0002 66.5195C46.2661 66.5195 46.2661 65.2536 46.2661 65.2536V47.352C45.8597 47.4571 45.4407 47.5318 45.0002 47.5318Z" fill="#616066"/>
<defs>
<filter id="filter0_d_1160_40206" x="15.6836" y="16.6831" width="58.6328" height="58.634" filterUnits="userSpaceOnUse" color-interpolation-filters="sRGB">
<feFlood flood-opacity="0" result="BackgroundImageFix"/>
<feColorMatrix in="SourceAlpha" type="matrix" values="0 0 0 0 0 0 0 0 0 0 0 0 0 0 0 0 0 0 127 0" result="hardAlpha"/>
<feOffset dy="1"/>
<feGaussianBlur stdDeviation="2"/>
<feComposite in2="hardAlpha" operator="out"/>
<feColorMatrix type="matrix" values="0 0 0 0 0.791949 0 0 0 0 0.129791 0 0 0 0 0.129791 0 0 0 0.1 0"/>
<feBlend mode="normal" in2="BackgroundImageFix" result="effect1_dropShadow_1160_40206"/>
<feBlend mode="normal" in="SourceGraphic" in2="effect1_dropShadow_1160_40206" result="shape"/>
</filter>
</defs>
</svg>
