<svg width="207" height="27" viewBox="0 0 207 27" fill="none" xmlns="http://www.w3.org/2000/svg">
<path d="M9.35666 8.15109L13.0486 0.716129C13.156 0.50096 13.3213 0.319983 13.5259 0.193492C13.7304 0.0670019 13.9662 0 14.2067 0C14.4472 0 14.683 0.0670019 14.8876 0.193492C15.0921 0.319983 15.2574 0.50096 15.3649 0.716129L19.0568 8.15109L27.3103 9.35046C27.5483 9.38347 27.7723 9.48274 27.9567 9.63696C28.141 9.79117 28.2783 9.9941 28.3528 10.2226C28.4273 10.4511 28.4361 10.6959 28.3782 10.9292C28.3202 11.1624 28.1979 11.3747 28.0251 11.5417L22.0538 17.3254L23.4635 25.4965C23.6439 26.5452 22.5355 27.3439 21.5877 26.8493L14.2067 22.9897L6.82434 26.8493C5.87792 27.3453 4.7695 26.5452 4.94997 25.4951L6.35966 17.324L0.388386 11.5403C0.216419 11.3732 0.0947935 11.1611 0.0373345 10.9283C-0.0201244 10.6954 -0.0111121 10.4512 0.063347 10.2232C0.137806 9.99523 0.274725 9.79272 0.458542 9.63869C0.642358 9.48467 0.865698 9.3853 1.10318 9.35188L9.35666 8.15109Z" fill="#FFD028"/>
<path d="M53.7727 8.15109L57.4646 0.716129C57.572 0.50096 57.7373 0.319983 57.9419 0.193492C58.1465 0.0670019 58.3822 0 58.6227 0C58.8633 0 59.099 0.0670019 59.3036 0.193492C59.5081 0.319983 59.6734 0.50096 59.7809 0.716129L63.4728 8.15109L71.7263 9.35046C71.9643 9.38347 72.1883 9.48274 72.3727 9.63696C72.557 9.79117 72.6943 9.9941 72.7688 10.2226C72.8434 10.4511 72.8522 10.6959 72.7942 10.9292C72.7362 11.1624 72.6139 11.3747 72.4411 11.5417L66.4698 17.3254L67.8795 25.4965C68.06 26.5452 66.9515 27.3439 66.0037 26.8493L58.6227 22.9897L51.2404 26.8493C50.2939 27.3453 49.1855 26.5452 49.366 25.4951L50.7757 17.324L44.8044 11.5403C44.6324 11.3732 44.5108 11.1611 44.4534 10.9283C44.3959 10.6954 44.4049 10.4512 44.4794 10.2232C44.5538 9.99523 44.6907 9.79272 44.8746 9.63869C45.0584 9.48467 45.2817 9.3853 45.5192 9.35188L53.7727 8.15109Z" fill="#FFD028"/>
<path d="M98.1887 8.15109L101.881 0.716129C101.988 0.50096 102.153 0.319983 102.358 0.193492C102.562 0.0670019 102.798 0 103.039 0C103.279 0 103.515 0.0670019 103.72 0.193492C103.924 0.319983 104.089 0.50096 104.197 0.716129L107.889 8.15109L116.142 9.35046C116.38 9.38347 116.604 9.48274 116.789 9.63696C116.973 9.79117 117.11 9.9941 117.185 10.2226C117.259 10.4511 117.268 10.6959 117.21 10.9292C117.152 11.1624 117.03 11.3747 116.857 11.5417L110.886 17.3254L112.296 25.4965C112.476 26.5452 111.368 27.3439 110.42 26.8493L103.039 22.9897L95.6564 26.8493C94.71 27.3453 93.6015 26.5452 93.782 25.4951L95.1917 17.324L89.2204 11.5403C89.0485 11.3732 88.9268 11.1611 88.8694 10.9283C88.8119 10.6954 88.8209 10.4512 88.8954 10.2232C88.9698 9.99523 89.1068 9.79272 89.2906 9.63869C89.4744 9.48467 89.6977 9.3853 89.9352 9.35188L98.1887 8.15109Z" fill="#FFD028"/>
<path d="M142.605 8.15109L146.297 0.716129C146.404 0.50096 146.569 0.319983 146.774 0.193492C146.978 0.0670019 147.214 0 147.455 0C147.695 0 147.931 0.0670019 148.136 0.193492C148.34 0.319983 148.505 0.50096 148.613 0.716129L152.305 8.15109L160.558 9.35046C160.796 9.38347 161.02 9.48274 161.205 9.63696C161.389 9.79117 161.526 9.9941 161.601 10.2226C161.675 10.4511 161.684 10.6959 161.626 10.9292C161.568 11.1624 161.446 11.3747 161.273 11.5417L155.302 17.3254L156.712 25.4965C156.892 26.5452 155.784 27.3439 154.836 26.8493L147.455 22.9897L140.072 26.8493C139.126 27.3453 138.018 26.5452 138.198 25.4951L139.608 17.324L133.636 11.5403C133.464 11.3732 133.343 11.1611 133.285 10.9283C133.228 10.6954 133.237 10.4512 133.311 10.2232C133.386 9.99523 133.523 9.79272 133.707 9.63869C133.89 9.48467 134.114 9.3853 134.351 9.35188L142.605 8.15109Z" fill="#FFD028"/>
<path d="M187.021 8.15109L190.713 0.716129C190.82 0.50096 190.985 0.319983 191.19 0.193492C191.395 0.0670019 191.63 0 191.871 0C192.111 0 192.347 0.0670019 192.552 0.193492C192.756 0.319983 192.921 0.50096 193.029 0.716129L196.721 8.15109L204.974 9.35046C205.212 9.38347 205.436 9.48274 205.621 9.63696C205.805 9.79117 205.942 9.9941 206.017 10.2226C206.091 10.4511 206.1 10.6959 206.042 10.9292C205.984 11.1624 205.862 11.3747 205.689 11.5417L199.718 17.3254L201.128 25.4965C201.308 26.5452 200.2 27.3439 199.252 26.8493L191.871 22.9897L184.488 26.8493C183.542 27.3453 182.434 26.5452 182.614 25.4951L184.024 17.324L178.052 11.5403C177.88 11.3732 177.759 11.1611 177.701 10.9283C177.644 10.6954 177.653 10.4512 177.727 10.2232C177.802 9.99523 177.939 9.79272 178.123 9.63869C178.306 9.48467 178.53 9.3853 178.767 9.35188L187.021 8.15109Z" fill="#FFD028"/>
</svg>
