<svg width="878" height="480" viewBox="0 0 878 480" fill="none" xmlns="http://www.w3.org/2000/svg">
<path d="M103.246 176.013H233.826C233.826 176.013 225.899 163.585 212.346 169.799C212.346 169.799 209.801 156.751 201.043 156.522C198.644 156.344 196.246 156.866 194.139 158.024C192.031 159.182 190.305 160.927 189.169 163.046C189.169 163.046 178.991 147.225 163.447 150.618C159.122 151.454 155.164 153.617 152.124 156.806C149.084 159.995 147.113 164.052 146.485 168.413C146.485 168.413 123.275 156.522 103.246 176.013Z" fill="#E9E9E9"/>
<path d="M391.761 476V243.468C391.761 242.224 391.182 241.051 390.194 240.294L304.504 174.611C303.037 173.487 300.991 173.514 299.554 174.676L213.73 244.123C212.791 244.882 212.246 246.025 212.246 247.232V476C212.246 478.209 214.037 480 216.246 480H387.761C389.97 480 391.761 478.209 391.761 476Z" fill="#F6F6F6"/>
<g opacity="0.3">
<path opacity="0.3" d="M317.353 243.977H286.648C285.544 243.977 284.648 244.872 284.648 245.977V288.559C284.648 289.663 285.544 290.559 286.648 290.559H317.353C318.457 290.559 319.353 289.663 319.353 288.559V245.977C319.353 244.872 318.457 243.977 317.353 243.977Z" fill="#616066"/>
</g>
<g opacity="0.3">
<path opacity="0.3" d="M317.353 307.44H286.648C285.544 307.44 284.648 308.335 284.648 309.44V352.022C284.648 353.126 285.544 354.022 286.648 354.022H317.353C318.457 354.022 319.353 353.126 319.353 352.022V309.44C319.353 308.335 318.457 307.44 317.353 307.44Z" fill="#616066"/>
</g>
<g opacity="0.3">
<path opacity="0.3" d="M317.353 370.881H286.648C285.544 370.881 284.648 371.777 284.648 372.881V415.463C284.648 416.568 285.544 417.463 286.648 417.463H317.353C318.457 417.463 319.353 416.568 319.353 415.463V372.881C319.353 371.777 318.457 370.881 317.353 370.881Z" fill="#616066"/>
</g>
<path d="M689.741 475.999V214.144C689.741 212.979 689.233 211.872 688.35 211.112L602.664 137.396C601.134 136.079 598.861 136.109 597.367 137.467L511.537 215.416C510.703 216.174 510.227 217.25 510.227 218.377V475.999C510.227 478.209 512.017 479.999 514.227 479.999H685.741C687.951 479.999 689.741 478.209 689.741 475.999Z" fill="#F6F6F6"/>
<g opacity="0.3">
<path opacity="0.3" d="M615.341 243.977H584.637C583.532 243.977 582.637 244.872 582.637 245.977V288.559C582.637 289.663 583.532 290.559 584.637 290.559H615.341C616.446 290.559 617.341 289.663 617.341 288.559V245.977C617.341 244.872 616.446 243.977 615.341 243.977Z" fill="#616066"/>
</g>
<g opacity="0.3">
<path opacity="0.3" d="M615.341 307.44H584.637C583.532 307.44 582.637 308.335 582.637 309.44V352.022C582.637 353.126 583.532 354.022 584.637 354.022H615.341C616.446 354.022 617.341 353.126 617.341 352.022V309.44C617.341 308.335 616.446 307.44 615.341 307.44Z" fill="#616066"/>
</g>
<g opacity="0.3">
<path opacity="0.3" d="M615.341 370.881H584.637C583.532 370.881 582.637 371.776 582.637 372.881V415.463C582.637 416.567 583.532 417.463 584.637 417.463H615.341C616.446 417.463 617.341 416.567 617.341 415.463V372.881C617.341 371.776 616.446 370.881 615.341 370.881Z" fill="#616066"/>
</g>
<path d="M533.624 37.2061H354.109V480H533.624V37.2061Z" fill="#E9E9E9"/>
<path d="M527.615 0H360.691C359.587 0 358.691 0.895428 358.691 2V22.6559H529.615V2C529.615 0.895431 528.72 0 527.615 0Z" fill="#E9E9E9"/>
<path d="M537.56 22.6782H350.75C349.645 22.6782 348.75 23.5737 348.75 24.6782V35.1817C348.75 36.2862 349.645 37.1817 350.75 37.1817H537.56C538.665 37.1817 539.56 36.2862 539.56 35.1817V24.6782C539.56 23.5737 538.665 22.6782 537.56 22.6782Z" fill="#B7B7B7"/>
<path opacity="0.1" d="M537.56 22.6782H350.75C349.645 22.6782 348.75 23.5737 348.75 24.6782V35.1817C348.75 36.2862 349.645 37.1817 350.75 37.1817H537.56C538.665 37.1817 539.56 36.2862 539.56 35.1817V24.6782C539.56 23.5737 538.665 22.6782 537.56 22.6782Z" fill="#616066"/>
<g opacity="0.3">
<path opacity="0.3" d="M393.658 53.9722H373.293C372.188 53.9722 371.293 54.8676 371.293 55.9722V98.5541C371.293 99.6587 372.188 100.554 373.293 100.554H393.658C394.762 100.554 395.658 99.6587 395.658 98.5541V55.9722C395.658 54.8676 394.762 53.9722 393.658 53.9722Z" fill="#616066"/>
</g>
<g opacity="0.3">
<path opacity="0.3" d="M393.658 117.436H373.293C372.188 117.436 371.293 118.331 371.293 119.436V162.018C371.293 163.123 372.188 164.018 373.293 164.018H393.658C394.762 164.018 395.658 163.123 395.658 162.018V119.436C395.658 118.331 394.762 117.436 393.658 117.436Z" fill="#616066"/>
</g>
<g opacity="0.3">
<path opacity="0.3" d="M393.658 180.877H373.293C372.188 180.877 371.293 181.773 371.293 182.877V225.459C371.293 226.564 372.188 227.459 373.293 227.459H393.658C394.762 227.459 395.658 226.564 395.658 225.459V182.877C395.658 181.773 394.762 180.877 393.658 180.877Z" fill="#616066"/>
</g>
<g opacity="0.3">
<path opacity="0.3" d="M393.658 244.318H373.293C372.188 244.318 371.293 245.214 371.293 246.318V288.9C371.293 290.005 372.188 290.9 373.293 290.9H393.658C394.762 290.9 395.658 290.005 395.658 288.9V246.318C395.658 245.214 394.762 244.318 393.658 244.318Z" fill="#616066"/>
</g>
<g opacity="0.3">
<path opacity="0.3" d="M393.658 307.782H373.293C372.188 307.782 371.293 308.678 371.293 309.782V352.364C371.293 353.469 372.188 354.364 373.293 354.364H393.658C394.762 354.364 395.658 353.469 395.658 352.364V309.782C395.658 308.678 394.762 307.782 393.658 307.782Z" fill="#616066"/>
</g>
<g opacity="0.3">
<path opacity="0.3" d="M393.658 371.223H373.293C372.188 371.223 371.293 372.119 371.293 373.223V415.805C371.293 416.91 372.188 417.805 373.293 417.805H393.658C394.762 417.805 395.658 416.91 395.658 415.805V373.223C395.658 372.119 394.762 371.223 393.658 371.223Z" fill="#616066"/>
</g>
<g opacity="0.3">
<path opacity="0.3" d="M433.927 53.9722H413.562C412.458 53.9722 411.562 54.8676 411.562 55.9722V98.5541C411.562 99.6587 412.458 100.554 413.563 100.554H433.927C435.032 100.554 435.927 99.6587 435.927 98.5541V55.9722C435.927 54.8676 435.032 53.9722 433.927 53.9722Z" fill="#616066"/>
</g>
<g opacity="0.3">
<path opacity="0.3" d="M433.927 117.436H413.562C412.458 117.436 411.562 118.331 411.562 119.436V162.018C411.562 163.123 412.458 164.018 413.563 164.018H433.927C435.032 164.018 435.927 163.123 435.927 162.018V119.436C435.927 118.331 435.032 117.436 433.927 117.436Z" fill="#616066"/>
</g>
<g opacity="0.3">
<path opacity="0.3" d="M433.927 180.877H413.562C412.458 180.877 411.562 181.773 411.562 182.877V225.459C411.562 226.564 412.458 227.459 413.563 227.459H433.927C435.032 227.459 435.927 226.564 435.927 225.459V182.877C435.927 181.773 435.032 180.877 433.927 180.877Z" fill="#616066"/>
</g>
<g opacity="0.3">
<path opacity="0.3" d="M433.927 244.318H413.562C412.458 244.318 411.562 245.214 411.562 246.318V288.9C411.562 290.005 412.458 290.9 413.563 290.9H433.927C435.032 290.9 435.927 290.005 435.927 288.9V246.318C435.927 245.214 435.032 244.318 433.927 244.318Z" fill="#616066"/>
</g>
<g opacity="0.3">
<path opacity="0.3" d="M433.927 307.782H413.562C412.458 307.782 411.562 308.678 411.562 309.782V352.364C411.562 353.469 412.458 354.364 413.563 354.364H433.927C435.032 354.364 435.927 353.469 435.927 352.364V309.782C435.927 308.678 435.032 307.782 433.927 307.782Z" fill="#616066"/>
</g>
<g opacity="0.3">
<path opacity="0.3" d="M433.927 371.224H413.562C412.458 371.224 411.562 372.119 411.562 373.224V415.806C411.562 416.91 412.458 417.806 413.563 417.806H433.927C435.032 417.806 435.927 416.91 435.927 415.806V373.224C435.927 372.119 435.032 371.224 433.927 371.224Z" fill="#616066"/>
</g>
<g opacity="0.3">
<path opacity="0.3" d="M474.213 53.9731H453.848C452.743 53.9731 451.848 54.8686 451.848 55.9731V98.5551C451.848 99.6596 452.743 100.555 453.848 100.555H474.213C475.317 100.555 476.213 99.6596 476.213 98.5551V55.9731C476.213 54.8686 475.317 53.9731 474.213 53.9731Z" fill="#616066"/>
</g>
<g opacity="0.3">
<path opacity="0.3" d="M474.213 117.437H453.848C452.743 117.437 451.848 118.332 451.848 119.437V162.018C451.848 163.123 452.743 164.018 453.848 164.018H474.213C475.317 164.018 476.213 163.123 476.213 162.018V119.437C476.213 118.332 475.317 117.437 474.213 117.437Z" fill="#616066"/>
</g>
<g opacity="0.3">
<path opacity="0.3" d="M474.213 180.877H453.848C452.743 180.877 451.848 181.772 451.848 182.877V225.459C451.848 226.563 452.743 227.459 453.848 227.459H474.213C475.317 227.459 476.213 226.563 476.213 225.459V182.877C476.213 181.772 475.317 180.877 474.213 180.877Z" fill="#616066"/>
</g>
<g opacity="0.3">
<path opacity="0.3" d="M474.213 244.318H453.848C452.743 244.318 451.848 245.214 451.848 246.318V288.9C451.848 290.005 452.743 290.9 453.848 290.9H474.213C475.317 290.9 476.213 290.005 476.213 288.9V246.318C476.213 245.214 475.317 244.318 474.213 244.318Z" fill="#616066"/>
</g>
<g opacity="0.3">
<path opacity="0.3" d="M474.213 307.782H453.848C452.743 307.782 451.848 308.678 451.848 309.782V352.364C451.848 353.469 452.743 354.364 453.848 354.364H474.213C475.317 354.364 476.213 353.469 476.213 352.364V309.782C476.213 308.678 475.317 307.782 474.213 307.782Z" fill="#616066"/>
</g>
<g opacity="0.3">
<path opacity="0.3" d="M474.213 371.224H453.848C452.743 371.224 451.848 372.119 451.848 373.224V415.806C451.848 416.91 452.743 417.806 453.848 417.806H474.213C475.317 417.806 476.213 416.91 476.213 415.806V373.224C476.213 372.119 475.317 371.224 474.213 371.224Z" fill="#616066"/>
</g>
<g opacity="0.3">
<path opacity="0.3" d="M514.463 53.9722H494.098C492.993 53.9722 492.098 54.8676 492.098 55.9722V98.5541C492.098 99.6587 492.993 100.554 494.098 100.554H514.463C515.567 100.554 516.463 99.6587 516.463 98.5541V55.9722C516.463 54.8676 515.567 53.9722 514.463 53.9722Z" fill="#616066"/>
</g>
<g opacity="0.3">
<path opacity="0.3" d="M514.463 117.436H494.098C492.993 117.436 492.098 118.331 492.098 119.436V162.018C492.098 163.123 492.993 164.018 494.098 164.018H514.463C515.567 164.018 516.463 163.123 516.463 162.018V119.436C516.463 118.331 515.567 117.436 514.463 117.436Z" fill="#616066"/>
</g>
<g opacity="0.3">
<path opacity="0.3" d="M514.463 180.877H494.098C492.993 180.877 492.098 181.772 492.098 182.877V225.459C492.098 226.563 492.993 227.459 494.098 227.459H514.463C515.567 227.459 516.463 226.563 516.463 225.459V182.877C516.463 181.772 515.567 180.877 514.463 180.877Z" fill="#616066"/>
</g>
<g opacity="0.3">
<path opacity="0.3" d="M514.463 244.318H494.098C492.993 244.318 492.098 245.214 492.098 246.318V288.9C492.098 290.005 492.993 290.9 494.098 290.9H514.463C515.567 290.9 516.463 290.005 516.463 288.9V246.318C516.463 245.214 515.567 244.318 514.463 244.318Z" fill="#616066"/>
</g>
<g opacity="0.3">
<path opacity="0.3" d="M514.463 307.782H494.098C492.993 307.782 492.098 308.678 492.098 309.782V352.364C492.098 353.469 492.993 354.364 494.098 354.364H514.463C515.567 354.364 516.463 353.469 516.463 352.364V309.782C516.463 308.678 515.567 307.782 514.463 307.782Z" fill="#616066"/>
</g>
<g opacity="0.3">
<path opacity="0.3" d="M514.463 371.224H494.098C492.993 371.224 492.098 372.119 492.098 373.224V415.806C492.098 416.91 492.993 417.806 494.098 417.806H514.463C515.567 417.806 516.463 416.91 516.463 415.806V373.224C516.463 372.119 515.567 371.224 514.463 371.224Z" fill="#616066"/>
</g>
<path opacity="0.3" d="M476.204 436.096H411.562V479.976H476.204V436.096Z" fill="#616066"/>
<rect y="462.647" width="877.89" height="17.3522" fill="#E9E9E9"/>
<path d="M607.734 50.4196H787.038C787.038 50.4196 776.174 33.3517 757.538 41.8856C757.538 41.8856 754.067 23.9665 742.016 23.6529C738.726 23.4131 735.437 24.1318 732.547 25.7218C729.657 27.3119 727.29 29.7053 725.732 32.6125C725.732 32.6125 711.755 10.8856 690.409 15.5445C684.468 16.6928 679.033 19.663 674.858 24.0425C670.684 28.4219 667.977 33.9931 667.114 39.9817C667.114 39.9817 635.285 23.6529 607.734 50.4196Z" fill="#E9E9E9"/>
<path d="M596.885 458.116L589.809 422.874C589.658 422.121 588.996 421.58 588.229 421.58V421.58C587.464 421.58 586.804 422.117 586.65 422.867L579.398 458.116L574.008 461.418V462.394H602.101V461.418L596.885 458.116Z" fill="#F85757"/>
<path opacity="0.2" d="M602.276 461.418H574.184V462.648H602.276V461.418Z" fill="#616066"/>
<path opacity="0.1" d="M589.816 423.088C589.663 422.336 589.002 421.797 588.235 421.797V421.797C587.469 421.797 586.808 422.336 586.655 423.088L579.492 458.222H596.979L589.816 423.088Z" fill="#616066"/>
<path d="M595.363 450.257H581.023L583.606 437.426H592.753L595.314 450.011L595.363 450.257Z" fill="#E9E9E9"/>
<path d="M539.248 389.022C539.52 388.443 540.257 388.264 540.764 388.653L555.513 399.993C555.938 400.32 556.029 400.924 555.72 401.362L531.846 435.22C531.533 435.665 531.633 436.28 532.072 436.602L548.906 448.965C549.294 449.25 549.424 449.771 549.215 450.205L547.178 454.434C546.918 454.972 546.249 455.164 545.744 454.846L517.665 437.164C517.238 436.895 517.079 436.351 517.293 435.894L539.248 389.022Z" fill="#616066"/>
<path d="M647.912 247.562C651.519 247.562 654.846 249.505 656.62 252.645L696.938 324.041V395.323L651.774 288.992H643.456L557.179 396.903H549.651L638.533 252.325C640.352 249.366 643.577 247.562 647.052 247.562H647.912Z" fill="#B7B7B7"/>
<path d="M778.96 413.36H686.025C682.555 413.36 679.742 410.548 679.742 407.078V372.879C679.742 369.409 682.555 366.596 686.025 366.596H778.96C782.43 366.596 785.243 369.409 785.243 372.879V407.078C785.243 410.548 782.43 413.36 778.96 413.36Z" fill="#B7B7B7"/>
<path d="M778.538 376.712H769.43V319.19C769.43 316.675 771.469 314.636 773.984 314.636C776.499 314.636 778.538 316.675 778.538 319.19V376.712Z" fill="#B7B7B7"/>
<path d="M756.815 393.05C757.92 393.051 758.816 392.155 758.816 391.05V303.558C758.816 302.454 757.921 301.558 756.816 301.558H704.9C700.332 301.556 695.918 303.214 692.48 306.223C689.042 309.232 686.814 313.388 686.211 317.917L676.629 390.733C676.472 391.93 677.403 392.993 678.611 392.994L756.815 393.05Z" fill="#F85757"/>
<path d="M697.395 365.273H736.098C736.52 365.277 736.939 365.217 737.343 365.096C738.253 364.817 739.048 364.25 739.607 363.48C740.167 362.711 740.461 361.78 740.445 360.828V314.069C740.445 312.964 739.549 312.069 738.445 312.069H712.904C711.981 312.063 711.061 312.155 710.158 312.345C706.629 312.94 703.436 314.793 701.168 317.561C699.28 319.808 698.08 322.552 697.711 325.464L693.068 360.374C692.996 360.986 693.054 361.607 693.238 362.196C693.422 362.785 693.728 363.328 694.136 363.791C694.545 364.253 695.046 364.624 695.607 364.88C696.169 365.135 696.778 365.269 697.395 365.273Z" fill="white"/>
<g opacity="0.5">
<path opacity="0.8" d="M695.048 345.457L728.812 312.069H712.908C711.986 312.063 711.065 312.155 710.162 312.345C709.306 312.487 708.466 312.712 707.653 313.017V313.017L698.604 321.967C698.181 323.074 697.889 324.228 697.735 325.404L695.048 345.457Z" fill="#E9E9E9"/>
<path opacity="0.8" d="M697.166 365.253H709.514L740.453 334.69V322.5L697.166 365.253Z" fill="#E9E9E9"/>
<path opacity="0.8" d="M714.374 365.274H716.251L740.453 341.348V339.491L714.374 365.274Z" fill="#E9E9E9"/>
</g>
<path d="M777.719 375.922C777.719 376.664 777.499 377.39 777.086 378.007C776.674 378.625 776.087 379.106 775.401 379.39C774.716 379.674 773.961 379.748 773.233 379.603C772.504 379.459 771.836 379.101 771.311 378.576C770.786 378.051 770.428 377.382 770.283 376.654C770.138 375.926 770.213 375.171 770.497 374.485C770.781 373.799 771.262 373.213 771.879 372.801C772.497 372.388 773.223 372.168 773.965 372.168C774.458 372.168 774.946 372.265 775.401 372.454C775.857 372.642 776.271 372.919 776.619 373.267C776.968 373.616 777.244 374.03 777.433 374.485C777.622 374.941 777.719 375.429 777.719 375.922V375.922Z" fill="#616066"/>
<path d="M777.719 389.297C777.719 390.039 777.499 390.765 777.086 391.382C776.674 391.999 776.087 392.481 775.401 392.765C774.716 393.049 773.961 393.123 773.233 392.978C772.504 392.834 771.836 392.476 771.311 391.951C770.786 391.426 770.428 390.757 770.283 390.029C770.138 389.301 770.213 388.546 770.497 387.86C770.781 387.174 771.262 386.588 771.879 386.176C772.497 385.763 773.223 385.543 773.965 385.543C774.458 385.543 774.946 385.64 775.401 385.829C775.857 386.017 776.271 386.294 776.619 386.642C776.968 386.991 777.244 387.405 777.433 387.86C777.622 388.316 777.719 388.804 777.719 389.297V389.297Z" fill="#616066"/>
<path d="M651.363 274.925C651.363 275.668 651.143 276.393 650.731 277.011C650.318 277.628 649.732 278.109 649.046 278.393C648.36 278.677 647.605 278.752 646.877 278.607C646.149 278.462 645.48 278.104 644.955 277.58C644.43 277.055 644.073 276.386 643.928 275.657C643.783 274.929 643.857 274.175 644.141 273.489C644.426 272.803 644.907 272.216 645.524 271.804C646.141 271.392 646.867 271.171 647.61 271.171C648.102 271.171 648.591 271.268 649.046 271.457C649.501 271.646 649.915 271.922 650.264 272.271C650.612 272.619 650.889 273.033 651.078 273.489C651.266 273.944 651.363 274.432 651.363 274.925V274.925Z" fill="#616066"/>
<path d="M651.363 260.879C651.363 261.621 651.143 262.347 650.731 262.964C650.318 263.582 649.732 264.063 649.046 264.347C648.36 264.631 647.605 264.705 646.877 264.56C646.149 264.416 645.48 264.058 644.955 263.533C644.43 263.008 644.073 262.339 643.928 261.611C643.783 260.883 643.857 260.128 644.141 259.442C644.426 258.756 644.907 258.17 645.524 257.758C646.141 257.345 646.867 257.125 647.61 257.125C648.603 257.13 649.555 257.527 650.258 258.23C650.961 258.933 651.358 259.885 651.363 260.879Z" fill="#616066"/>
<path d="M773.989 421.659H706.855V413.342H773.989V421.659Z" fill="#B7B7B7"/>
<path d="M809.413 421.678H648.672C643.197 421.678 637.945 423.853 634.073 427.725C630.202 431.597 628.027 436.848 628.027 442.324C628.027 447.8 630.202 453.051 634.073 456.923C637.945 460.795 643.197 462.97 648.672 462.97H809.413C814.888 462.97 820.14 460.795 824.012 456.923C827.883 453.051 830.059 447.8 830.059 442.324C830.059 436.848 827.883 431.597 824.012 427.725C820.14 423.853 814.888 421.678 809.413 421.678V421.678Z" fill="#B7B7B7"/>
<path d="M808.521 427.704H649.538C645.661 427.704 641.942 429.244 639.201 431.986C636.459 434.728 634.919 438.447 634.919 442.324C634.919 446.202 636.459 449.92 639.201 452.662C641.942 455.404 645.661 456.944 649.538 456.944H808.521C812.398 456.944 816.117 455.404 818.859 452.662C821.6 449.92 823.141 446.202 823.141 442.324C823.141 438.447 821.6 434.728 818.859 431.986C816.117 429.244 812.398 427.704 808.521 427.704V427.704Z" fill="#B7B7B7"/>
<path d="M705.652 442.324C705.652 444.443 705.024 446.514 703.846 448.275C702.669 450.036 700.995 451.409 699.037 452.219C697.08 453.029 694.926 453.24 692.848 452.825C690.77 452.41 688.862 451.388 687.365 449.889C685.869 448.389 684.85 446.479 684.439 444.401C684.028 442.322 684.243 440.169 685.057 438.212C685.87 436.256 687.246 434.585 689.009 433.411C690.773 432.237 692.845 431.612 694.964 431.616C696.369 431.616 697.761 431.893 699.059 432.431C700.357 432.97 701.536 433.759 702.529 434.753C703.522 435.748 704.308 436.929 704.844 438.228C705.38 439.527 705.655 440.919 705.652 442.324Z" fill="#616066"/>
<path d="M739.727 442.324C739.727 444.443 739.098 446.514 737.921 448.275C736.743 450.036 735.069 451.409 733.112 452.219C731.154 453.029 729 453.24 726.922 452.825C724.844 452.41 722.936 451.388 721.44 449.889C719.943 448.389 718.925 446.479 718.514 444.401C718.103 442.322 718.318 440.169 719.131 438.212C719.945 436.256 721.32 434.585 723.084 433.411C724.847 432.237 726.919 431.612 729.038 431.616C730.443 431.616 731.835 431.893 733.133 432.431C734.431 432.97 735.61 433.759 736.603 434.753C737.596 435.748 738.383 436.929 738.919 438.228C739.455 439.527 739.729 440.919 739.727 442.324Z" fill="#616066"/>
<path d="M671.566 442.324C671.566 444.442 670.938 446.512 669.762 448.273C668.585 450.034 666.913 451.406 664.956 452.217C662.999 453.027 660.846 453.239 658.769 452.826C656.692 452.413 654.784 451.393 653.286 449.896C651.789 448.398 650.769 446.49 650.356 444.413C649.943 442.336 650.155 440.183 650.965 438.226C651.776 436.269 653.148 434.597 654.909 433.42C656.67 432.244 658.74 431.616 660.858 431.616C663.698 431.616 666.422 432.744 668.43 434.752C670.438 436.76 671.566 439.484 671.566 442.324V442.324Z" fill="#616066"/>
<path d="M773.816 442.324C773.816 444.443 773.188 446.514 772.01 448.275C770.833 450.036 769.159 451.409 767.201 452.219C765.244 453.029 763.09 453.24 761.012 452.825C758.934 452.41 757.026 451.388 755.529 449.889C754.033 448.389 753.014 446.479 752.603 444.401C752.193 442.322 752.407 440.169 753.221 438.212C754.034 436.256 755.41 434.585 757.174 433.411C758.937 432.237 761.009 431.612 763.128 431.616C764.533 431.616 765.925 431.893 767.223 432.431C768.521 432.97 769.7 433.759 770.693 434.753C771.686 435.748 772.472 436.929 773.008 438.228C773.544 439.527 773.819 440.919 773.816 442.324Z" fill="#616066"/>
<path d="M807.891 442.324C807.891 444.443 807.262 446.514 806.085 448.275C804.907 450.036 803.234 451.409 801.276 452.219C799.318 453.029 797.164 453.24 795.086 452.825C793.008 452.41 791.1 451.388 789.604 449.889C788.107 448.389 787.089 446.479 786.678 444.401C786.267 442.322 786.482 440.169 787.295 438.212C788.109 436.256 789.484 434.585 791.248 433.411C793.011 432.237 795.084 431.612 797.202 431.616C798.608 431.616 799.999 431.893 801.297 432.431C802.595 432.97 803.774 433.759 804.767 434.753C805.76 435.748 806.547 436.929 807.083 438.228C807.619 439.527 807.893 440.919 807.891 442.324V442.324Z" fill="#616066"/>
<path d="M555.011 398.208L552.857 397.22L608.808 274.175L642.518 248.957L644.02 250.794L610.744 275.676L555.011 398.208Z" fill="#B7B7B7"/>
<path d="M562.578 396.904C562.578 398.51 562.102 400.08 561.21 401.415C560.317 402.75 559.049 403.791 557.566 404.406C556.082 405.02 554.449 405.181 552.874 404.868C551.299 404.554 549.852 403.781 548.716 402.645C547.581 401.51 546.807 400.063 546.494 398.488C546.181 396.913 546.342 395.28 546.956 393.796C547.571 392.313 548.612 391.044 549.947 390.152C551.282 389.26 552.852 388.784 554.458 388.784C556.612 388.784 558.677 389.639 560.2 391.162C561.723 392.685 562.578 394.75 562.578 396.904Z" fill="#616066"/>
<path d="M558.227 396.904C558.23 397.651 558.012 398.382 557.6 399.005C557.188 399.629 556.6 400.115 555.911 400.404C555.222 400.693 554.462 400.77 553.729 400.627C552.996 400.483 552.321 400.126 551.792 399.599C551.262 399.072 550.901 398.399 550.753 397.667C550.606 396.934 550.68 396.175 550.965 395.484C551.25 394.793 551.734 394.203 552.354 393.787C552.975 393.372 553.706 393.15 554.453 393.15C555.45 393.15 556.407 393.545 557.114 394.248C557.821 394.952 558.221 395.906 558.227 396.904V396.904Z" fill="#616066"/>
<path d="M61.4212 419.093L60.8984 422.785L60.3437 426.763L55.2414 462.97H46.8906L51.993 426.763L52.5476 422.785L53.0705 419.093H61.4212Z" fill="#B7B7B7"/>
<path opacity="0.1" d="M60.9014 422.785L60.3468 426.762H51.9961L52.5507 422.785H60.9014Z" fill="#616066"/>
<path d="M102.66 419.093L103.167 422.785L103.738 426.762L108.84 462.97H117.191L112.088 426.762L111.518 422.785L110.995 419.093H102.66Z" fill="#B7B7B7"/>
<path opacity="0.1" d="M103.152 422.785H111.503L112.074 426.762H103.723L103.152 422.785Z" fill="#616066"/>
<path d="M61.1236 411.487H54.5L55.208 406.191C55.2744 405.694 55.6982 405.323 56.1992 405.323H59.4244C59.9255 405.323 60.3492 405.694 60.4156 406.191L61.1236 411.487Z" fill="#B7B7B7"/>
<path d="M109.42 411.487H102.812L103.52 406.191C103.587 405.694 104.011 405.323 104.512 405.323H107.735C108.237 405.323 108.661 405.695 108.726 406.193L109.42 411.487Z" fill="#B7B7B7"/>
<path d="M123.636 408.35H40.4297V424.259H123.636V408.35Z" fill="#E9E9E9"/>
<path d="M57.5466 408.35L51.5094 424.259H40.75L46.8031 408.35H57.5466Z" fill="#F85757"/>
<path d="M79.5661 408.35L73.5288 424.259H62.7695L68.8068 408.35H79.5661Z" fill="#F85757"/>
<path d="M101.585 408.35L95.5482 424.259H84.8047L90.842 408.35H101.585Z" fill="#F85757"/>
<path d="M123.597 408.35L117.56 424.259H106.816L112.854 408.35H123.597Z" fill="#F85757"/>
<path d="M409.871 205.116H408.598V272.964H409.871V205.116Z" fill="#B7B7B7"/>
<path d="M388.297 206.16H387.023V274.009H388.297V206.16Z" fill="#B7B7B7"/>
<path d="M366.715 204.925H365.441V272.773H366.715V204.925Z" fill="#B7B7B7"/>
<path d="M345.145 206.161H343.871V274.009H345.145V206.161Z" fill="#B7B7B7"/>
<path d="M425.86 194.888H424.586V262.737H425.86V194.888Z" fill="#B7B7B7"/>
<path d="M441.321 194.889H440.047V262.737H441.321V194.889Z" fill="#B7B7B7"/>
<path d="M462.199 185.336H460.926V253.184H462.199V185.336Z" fill="#B7B7B7"/>
<path d="M497.395 185.336H496.121V253.184H497.395V185.336Z" fill="#B7B7B7"/>
<path d="M479.805 185.336H478.531V253.184H479.805V185.336Z" fill="#B7B7B7"/>
<path d="M425.267 240.765H345.09V242.039H425.267V240.765Z" fill="#B7B7B7"/>
<path d="M461.726 224.208H345.262V225.482H461.726V224.208Z" fill="#B7B7B7"/>
<path d="M497.832 258.865H345.871C344.767 258.865 343.871 259.76 343.871 260.865V462.97H497.832V258.865Z" fill="#F85757"/>
<path d="M453.627 327.815H443.719C442.614 327.815 441.719 328.71 441.719 329.815V353.054C441.719 354.159 442.614 355.054 443.719 355.054H453.627C454.732 355.054 455.627 354.159 455.627 353.054V329.815C455.627 328.71 454.732 327.815 453.627 327.815Z" fill="white"/>
<path d="M453.619 288.344H443.711C442.606 288.344 441.711 289.239 441.711 290.344V313.583C441.711 314.688 442.606 315.583 443.711 315.583H453.619C454.724 315.583 455.619 314.688 455.619 313.583V290.344C455.619 289.239 454.724 288.344 453.619 288.344Z" fill="white"/>
<path d="M398.002 327.815H388.094C386.989 327.815 386.094 328.71 386.094 329.815V353.054C386.094 354.159 386.989 355.054 388.094 355.054H398.002C399.107 355.054 400.002 354.159 400.002 353.054V329.815C400.002 328.71 399.107 327.815 398.002 327.815Z" fill="white"/>
<path d="M397.998 288.344H388.09C386.985 288.344 386.09 289.239 386.09 290.344V313.583C386.09 314.688 386.985 315.583 388.09 315.583H397.998C399.103 315.583 399.998 314.688 399.998 313.583V290.344C399.998 289.239 399.103 288.344 397.998 288.344Z" fill="white"/>
<path d="M370.194 327.815H360.285C359.181 327.815 358.285 328.71 358.285 329.815V353.054C358.285 354.159 359.181 355.054 360.285 355.054H370.194C371.298 355.054 372.194 354.159 372.194 353.054V329.815C372.194 328.71 371.298 327.815 370.194 327.815Z" fill="white"/>
<path d="M370.194 288.344H360.285C359.181 288.344 358.285 289.239 358.285 290.344V313.583C358.285 314.688 359.181 315.583 360.285 315.583H370.194C371.298 315.583 372.194 314.688 372.194 313.583V290.344C372.194 289.239 371.298 288.344 370.194 288.344Z" fill="white"/>
<path d="M481.436 327.815H471.527C470.423 327.815 469.527 328.71 469.527 329.815V353.054C469.527 354.159 470.423 355.054 471.527 355.054H481.436C482.54 355.054 483.436 354.159 483.436 353.054V329.815C483.436 328.71 482.54 327.815 481.436 327.815Z" fill="white"/>
<path d="M481.428 288.344H471.52C470.415 288.344 469.52 289.239 469.52 290.344V313.583C469.52 314.688 470.415 315.583 471.52 315.583H481.428C482.533 315.583 483.428 314.688 483.428 313.583V290.344C483.428 289.239 482.533 288.344 481.428 288.344Z" fill="white"/>
<path d="M425.819 327.815H415.91C414.806 327.815 413.91 328.71 413.91 329.815V353.054C413.91 354.159 414.806 355.054 415.91 355.054H425.819C426.923 355.054 427.819 354.159 427.819 353.054V329.815C427.819 328.71 426.923 327.815 425.819 327.815Z" fill="white"/>
<path d="M425.811 288.344H415.902C414.798 288.344 413.902 289.239 413.902 290.344V313.583C413.902 314.688 414.798 315.583 415.902 315.583H425.811C426.915 315.583 427.811 314.688 427.811 313.583V290.344C427.811 289.239 426.915 288.344 425.811 288.344Z" fill="white"/>
<path d="M453.627 367.286H443.719C442.614 367.286 441.719 368.182 441.719 369.286V392.525C441.719 393.63 442.614 394.525 443.719 394.525H453.627C454.732 394.525 455.627 393.63 455.627 392.525V369.286C455.627 368.182 454.732 367.286 453.627 367.286Z" fill="white"/>
<path d="M398.002 367.286H388.094C386.989 367.286 386.094 368.182 386.094 369.286V392.525C386.094 393.63 386.989 394.525 388.094 394.525H398.002C399.107 394.525 400.002 393.63 400.002 392.525V369.286C400.002 368.182 399.107 367.286 398.002 367.286Z" fill="white"/>
<path d="M370.194 367.286H360.285C359.181 367.286 358.285 368.182 358.285 369.286V392.525C358.285 393.63 359.181 394.525 360.285 394.525H370.194C371.298 394.525 372.194 393.63 372.194 392.525V369.286C372.194 368.182 371.298 367.286 370.194 367.286Z" fill="white"/>
<path d="M481.436 367.286H471.527C470.423 367.286 469.527 368.182 469.527 369.286V392.525C469.527 393.63 470.423 394.525 471.527 394.525H481.436C482.54 394.525 483.436 393.63 483.436 392.525V369.286C483.436 368.182 482.54 367.286 481.436 367.286Z" fill="white"/>
<path d="M425.819 367.286H415.91C414.806 367.286 413.91 368.182 413.91 369.286V392.525C413.91 393.63 414.806 394.525 415.91 394.525H425.819C426.923 394.525 427.819 393.63 427.819 392.525V369.286C427.819 368.182 426.923 367.286 425.819 367.286Z" fill="white"/>
<path d="M448.026 416.3H393.695C392.591 416.3 391.695 417.195 391.695 418.3V460.971C391.695 462.076 392.591 462.971 393.695 462.971H448.026C449.131 462.971 450.026 462.076 450.026 460.971V418.3C450.026 417.195 449.131 416.3 448.026 416.3Z" fill="#943939"/>
<path d="M425.266 262.355V245.963C425.266 244.858 426.161 243.963 427.266 243.963H440.677V235.863C440.677 234.758 441.573 233.863 442.677 233.863H461.54V226.845C461.54 225.741 462.435 224.845 463.54 224.845H495.827C496.931 224.845 497.827 225.741 497.827 226.845V260.916L425.266 262.355Z" fill="#F85757"/>
<path d="M257.488 462.969H360.836C360.836 462.969 314.174 387.516 257.488 462.969Z" fill="white"/>
<path opacity="0.3" d="M257.488 462.969H360.836C360.836 462.969 314.174 387.516 257.488 462.969Z" fill="#616066"/>
<path opacity="0.1" d="M318.933 455.473C318.933 455.266 318.872 455.064 318.757 454.893C318.642 454.721 318.479 454.587 318.288 454.508C318.097 454.429 317.887 454.408 317.685 454.448C317.482 454.489 317.296 454.588 317.15 454.734C317.004 454.88 316.904 455.066 316.864 455.269C316.824 455.472 316.844 455.682 316.923 455.873C317.002 456.064 317.136 456.227 317.308 456.342C317.48 456.456 317.682 456.518 317.888 456.518C318.166 456.518 318.431 456.408 318.627 456.212C318.823 456.016 318.933 455.75 318.933 455.473V455.473Z" fill="#616066"/>
<path opacity="0.1" d="M295.945 447.083C295.945 446.877 295.884 446.675 295.769 446.503C295.654 446.331 295.491 446.197 295.3 446.118C295.109 446.039 294.899 446.018 294.696 446.059C294.494 446.099 294.308 446.198 294.161 446.345C294.015 446.491 293.916 446.677 293.876 446.879C293.835 447.082 293.856 447.292 293.935 447.483C294.014 447.674 294.148 447.837 294.32 447.952C294.492 448.067 294.694 448.128 294.9 448.128C295.037 448.128 295.173 448.101 295.3 448.048C295.427 447.996 295.542 447.919 295.639 447.822C295.736 447.725 295.813 447.61 295.865 447.483C295.918 447.356 295.945 447.221 295.945 447.083V447.083Z" fill="#616066"/>
<path opacity="0.1" d="M299.132 453.687C299.132 453.48 299.071 453.278 298.956 453.106C298.842 452.935 298.678 452.801 298.487 452.722C298.297 452.643 298.087 452.622 297.884 452.662C297.681 452.702 297.495 452.802 297.349 452.948C297.203 453.094 297.103 453.28 297.063 453.483C297.023 453.686 297.043 453.896 297.122 454.087C297.202 454.278 297.335 454.441 297.507 454.555C297.679 454.67 297.881 454.732 298.088 454.732C298.365 454.732 298.63 454.621 298.826 454.426C299.022 454.23 299.132 453.964 299.132 453.687V453.687Z" fill="#616066"/>
<path opacity="0.1" d="M317.161 436.293C317.161 436.086 317.222 435.884 317.337 435.712C317.451 435.541 317.615 435.407 317.805 435.328C317.996 435.249 318.206 435.228 318.409 435.268C318.612 435.308 318.798 435.408 318.944 435.554C319.09 435.7 319.19 435.886 319.23 436.089C319.27 436.292 319.25 436.502 319.17 436.693C319.091 436.883 318.958 437.047 318.786 437.161C318.614 437.276 318.412 437.338 318.205 437.338C318.068 437.338 317.932 437.31 317.805 437.258C317.679 437.205 317.564 437.129 317.467 437.032C317.37 436.934 317.293 436.819 317.24 436.693C317.188 436.566 317.161 436.43 317.161 436.293V436.293Z" fill="#616066"/>
<path opacity="0.1" d="M313.977 442.896C313.977 442.69 314.038 442.488 314.153 442.316C314.268 442.144 314.431 442.01 314.622 441.931C314.813 441.852 315.023 441.831 315.226 441.872C315.428 441.912 315.614 442.011 315.76 442.158C315.907 442.304 316.006 442.49 316.046 442.692C316.087 442.895 316.066 443.105 315.987 443.296C315.908 443.487 315.774 443.65 315.602 443.765C315.43 443.88 315.228 443.941 315.022 443.941C314.745 443.941 314.479 443.831 314.283 443.635C314.087 443.439 313.977 443.173 313.977 442.896V442.896Z" fill="#616066"/>
<path opacity="0.1" d="M278.007 451.948C278.009 451.741 277.949 451.538 277.835 451.365C277.72 451.192 277.557 451.057 277.366 450.977C277.175 450.896 276.964 450.875 276.761 450.915C276.557 450.955 276.371 451.055 276.224 451.202C276.077 451.348 275.978 451.535 275.938 451.738C275.898 451.942 275.919 452.152 275.999 452.344C276.079 452.535 276.214 452.698 276.387 452.812C276.56 452.926 276.763 452.987 276.971 452.985C277.245 452.983 277.507 452.873 277.701 452.679C277.895 452.485 278.005 452.223 278.007 451.948V451.948Z" fill="#616066"/>
<path opacity="0.1" d="M324.312 458.177C324.313 458.028 324.271 457.882 324.189 457.758C324.108 457.634 323.991 457.536 323.855 457.478C323.718 457.42 323.567 457.404 323.421 457.432C323.275 457.46 323.141 457.531 323.035 457.636C322.929 457.74 322.857 457.874 322.828 458.019C322.798 458.165 322.812 458.316 322.869 458.454C322.925 458.591 323.021 458.709 323.145 458.791C323.268 458.874 323.413 458.918 323.562 458.918C323.66 458.919 323.757 458.901 323.848 458.864C323.939 458.827 324.022 458.773 324.092 458.704C324.161 458.635 324.217 458.553 324.255 458.462C324.292 458.372 324.312 458.275 324.312 458.177V458.177Z" fill="#616066"/>
<path opacity="0.1" d="M338.628 459.604C338.641 459.459 338.624 459.314 338.577 459.177C338.53 459.04 338.456 458.914 338.358 458.807C338.26 458.7 338.141 458.615 338.008 458.556C337.876 458.498 337.733 458.468 337.588 458.468C337.443 458.468 337.299 458.498 337.167 458.556C337.034 458.615 336.915 458.7 336.817 458.807C336.72 458.914 336.645 459.04 336.598 459.177C336.552 459.314 336.534 459.459 336.547 459.604C336.57 459.864 336.689 460.106 336.882 460.283C337.075 460.459 337.326 460.557 337.588 460.557C337.849 460.557 338.101 460.459 338.293 460.283C338.486 460.106 338.606 459.864 338.628 459.604V459.604Z" fill="#616066"/>
<path opacity="0.1" d="M300.171 460.641C300.149 460.381 300.029 460.138 299.836 459.962C299.644 459.785 299.392 459.688 299.131 459.688C298.869 459.688 298.618 459.785 298.425 459.962C298.232 460.138 298.113 460.381 298.09 460.641C298.077 460.785 298.095 460.931 298.141 461.068C298.188 461.205 298.262 461.331 298.36 461.438C298.458 461.545 298.577 461.63 298.71 461.688C298.842 461.747 298.986 461.777 299.131 461.777C299.276 461.777 299.419 461.747 299.551 461.688C299.684 461.63 299.803 461.545 299.901 461.438C299.999 461.331 300.073 461.205 300.12 461.068C300.167 460.931 300.184 460.785 300.171 460.641V460.641Z" fill="#616066"/>
<path opacity="0.1" d="M306.302 441.86C306.3 441.712 306.343 441.566 306.424 441.442C306.505 441.317 306.622 441.22 306.759 441.162C306.896 441.104 307.047 441.088 307.192 441.116C307.338 441.144 307.473 441.215 307.578 441.319C307.684 441.424 307.756 441.557 307.786 441.703C307.815 441.849 307.801 442 307.745 442.137C307.688 442.275 307.592 442.392 307.468 442.475C307.345 442.558 307.2 442.602 307.051 442.602C306.953 442.603 306.856 442.584 306.765 442.548C306.674 442.511 306.591 442.456 306.522 442.387C306.452 442.318 306.397 442.236 306.359 442.146C306.321 442.055 306.302 441.958 306.302 441.86V441.86Z" fill="#616066"/>
<path opacity="0.1" d="M304.027 451.206C304.028 451.057 303.985 450.911 303.904 450.787C303.822 450.662 303.705 450.565 303.568 450.507C303.43 450.45 303.279 450.434 303.133 450.463C302.987 450.491 302.852 450.563 302.747 450.668C302.642 450.774 302.57 450.908 302.541 451.054C302.513 451.2 302.528 451.352 302.586 451.489C302.644 451.626 302.741 451.743 302.865 451.825C302.99 451.907 303.136 451.95 303.285 451.948C303.481 451.946 303.668 451.867 303.807 451.728C303.946 451.59 304.025 451.402 304.027 451.206V451.206Z" fill="#616066"/>
<path opacity="0.1" d="M329.597 449.277C329.597 449.13 329.553 448.987 329.472 448.865C329.39 448.743 329.274 448.648 329.139 448.592C329.003 448.535 328.854 448.521 328.71 448.549C328.566 448.578 328.434 448.649 328.331 448.752C328.227 448.856 328.156 448.988 328.128 449.132C328.099 449.276 328.114 449.425 328.17 449.561C328.226 449.696 328.321 449.812 328.443 449.894C328.565 449.975 328.708 450.019 328.855 450.019C328.953 450.02 329.05 450.001 329.14 449.964C329.231 449.927 329.313 449.873 329.382 449.804C329.451 449.735 329.505 449.652 329.542 449.562C329.579 449.471 329.598 449.375 329.597 449.277Z" fill="#616066"/>
<path opacity="0.1" d="M284.878 447.793C284.878 447.647 284.834 447.503 284.753 447.381C284.671 447.259 284.556 447.164 284.42 447.108C284.285 447.052 284.135 447.037 283.992 447.066C283.848 447.095 283.715 447.165 283.612 447.269C283.508 447.373 283.437 447.505 283.409 447.649C283.38 447.793 283.395 447.942 283.451 448.077C283.507 448.213 283.602 448.329 283.724 448.41C283.846 448.492 283.99 448.535 284.136 448.535C284.234 448.536 284.331 448.518 284.421 448.481C284.512 448.444 284.594 448.389 284.663 448.32C284.732 448.251 284.787 448.169 284.824 448.079C284.861 447.988 284.879 447.891 284.878 447.793Z" fill="#616066"/>
<path opacity="0.1" d="M348.808 456.518C348.808 456.371 348.764 456.227 348.683 456.106C348.601 455.984 348.485 455.888 348.35 455.832C348.214 455.776 348.065 455.762 347.921 455.79C347.777 455.819 347.645 455.889 347.541 455.993C347.438 456.097 347.367 456.229 347.338 456.373C347.31 456.517 347.325 456.666 347.381 456.801C347.437 456.937 347.532 457.053 347.654 457.134C347.776 457.216 347.919 457.259 348.066 457.259C348.163 457.259 348.26 457.24 348.35 457.203C348.44 457.166 348.521 457.111 348.59 457.042C348.659 456.973 348.714 456.891 348.751 456.801C348.788 456.711 348.808 456.615 348.808 456.518Z" fill="#616066"/>
<path d="M224 462.971H295.392C295.392 462.971 263.157 426.797 224 462.971Z" fill="white"/>
<path opacity="0.2" d="M224 462.971H295.392C295.392 462.971 263.157 426.797 224 462.971Z" fill="#616066"/>
<path opacity="0.1" d="M265.07 456.727C265.069 456.934 265.129 457.137 265.243 457.31C265.357 457.483 265.52 457.618 265.712 457.698C265.903 457.778 266.113 457.8 266.317 457.76C266.52 457.72 266.707 457.62 266.854 457.473C267 457.327 267.1 457.14 267.14 456.937C267.18 456.733 267.159 456.522 267.079 456.331C266.999 456.14 266.864 455.977 266.69 455.863C266.517 455.749 266.314 455.688 266.107 455.69C265.832 455.69 265.568 455.799 265.374 455.994C265.18 456.188 265.07 456.452 265.07 456.727V456.727Z" fill="#616066"/>
<path opacity="0.1" d="M284.879 458.513C284.877 458.721 284.937 458.924 285.052 459.097C285.166 459.27 285.329 459.405 285.52 459.485C285.711 459.565 285.922 459.586 286.126 459.546C286.329 459.506 286.516 459.407 286.662 459.26C286.809 459.113 286.909 458.927 286.949 458.723C286.989 458.52 286.967 458.309 286.887 458.118C286.807 457.927 286.672 457.764 286.499 457.649C286.326 457.535 286.123 457.475 285.916 457.477C285.641 457.479 285.379 457.589 285.185 457.783C284.991 457.977 284.881 458.239 284.879 458.513V458.513Z" fill="#616066"/>
<path opacity="0.1" d="M245.363 452.603C245.363 452.81 245.425 453.012 245.539 453.184C245.654 453.356 245.817 453.489 246.008 453.569C246.199 453.648 246.409 453.668 246.612 453.628C246.814 453.588 247.001 453.488 247.147 453.342C247.293 453.196 247.392 453.01 247.433 452.807C247.473 452.604 247.452 452.394 247.373 452.204C247.294 452.013 247.16 451.849 246.988 451.735C246.817 451.62 246.615 451.559 246.408 451.559C246.131 451.559 245.865 451.669 245.669 451.865C245.473 452.061 245.363 452.326 245.363 452.603V452.603Z" fill="#616066"/>
<path opacity="0.1" d="M259.699 454.031C259.699 454.18 259.743 454.325 259.826 454.448C259.909 454.572 260.026 454.668 260.164 454.724C260.301 454.781 260.452 454.795 260.598 454.766C260.744 454.736 260.877 454.664 260.982 454.558C261.086 454.453 261.157 454.318 261.185 454.172C261.213 454.026 261.197 453.875 261.139 453.739C261.081 453.602 260.984 453.485 260.86 453.404C260.735 453.322 260.59 453.28 260.441 453.281C260.343 453.281 260.246 453.301 260.155 453.339C260.065 453.376 259.983 453.432 259.914 453.501C259.845 453.571 259.79 453.654 259.753 453.745C259.717 453.836 259.698 453.933 259.699 454.031V454.031Z" fill="#616066"/>
<path opacity="0.1" d="M279.973 461.001C279.971 461.15 280.014 461.296 280.096 461.421C280.177 461.545 280.294 461.643 280.432 461.7C280.569 461.758 280.72 461.774 280.867 461.745C281.013 461.716 281.147 461.645 281.252 461.54C281.358 461.434 281.429 461.3 281.458 461.154C281.487 461.008 281.471 460.856 281.413 460.719C281.356 460.582 281.258 460.465 281.134 460.383C281.009 460.301 280.863 460.258 280.714 460.26C280.518 460.26 280.329 460.338 280.19 460.477C280.051 460.616 279.973 460.805 279.973 461.001V461.001Z" fill="#616066"/>
<path opacity="0.1" d="M239.699 458.513C239.698 458.662 239.741 458.808 239.822 458.933C239.904 459.057 240.021 459.154 240.158 459.212C240.296 459.27 240.447 459.285 240.593 459.257C240.739 459.228 240.874 459.157 240.979 459.051C241.084 458.946 241.156 458.812 241.185 458.665C241.213 458.519 241.198 458.368 241.14 458.231C241.082 458.093 240.985 457.976 240.86 457.895C240.736 457.813 240.59 457.77 240.441 457.772C240.245 457.774 240.057 457.852 239.919 457.991C239.78 458.13 239.701 458.317 239.699 458.513V458.513Z" fill="#616066"/>
<path d="M182.145 89.5526L184.863 92.1157L158.603 119.963L155.885 117.4L182.145 89.5526Z" fill="#B7B7B7"/>
<path d="M157.238 117.986H184.137V121.722H157.238V117.986Z" fill="#B7B7B7"/>
<path d="M157.238 88.9644H184.137V92.7003H157.238V88.9644Z" fill="#B7B7B7"/>
<path d="M158.584 89.5906L184.84 117.443L182.121 120.006L155.866 92.1533L158.584 89.5906Z" fill="#B7B7B7"/>
<path d="M182.13 118.58L184.848 121.144L158.587 148.991L155.869 146.428L182.13 118.58Z" fill="#B7B7B7"/>
<path d="M157.238 147.008H184.137V150.744H157.238V147.008Z" fill="#B7B7B7"/>
<path d="M157.238 117.986H184.137V121.722H157.238V117.986Z" fill="#B7B7B7"/>
<path d="M158.576 118.617L184.832 146.47L182.114 149.032L155.858 121.18L158.576 118.617Z" fill="#B7B7B7"/>
<path d="M182.122 147.591L184.84 150.154L158.579 178.002L155.861 175.439L182.122 147.591Z" fill="#B7B7B7"/>
<path d="M157.238 176.013H184.137V179.749H157.238V176.013Z" fill="#B7B7B7"/>
<path d="M157.238 147.008H184.137V150.744H157.238V147.008Z" fill="#B7B7B7"/>
<path d="M158.565 147.627L184.82 175.479L182.102 178.042L155.846 150.19L158.565 147.627Z" fill="#B7B7B7"/>
<path d="M182.145 176.607L184.863 179.17L158.603 207.018L155.885 204.454L182.145 176.607Z" fill="#B7B7B7"/>
<path d="M157.238 205.035H184.137V208.771H157.238V205.035Z" fill="#B7B7B7"/>
<path d="M157.238 176.013H184.137V179.749H157.238V176.013Z" fill="#B7B7B7"/>
<path d="M158.584 176.642L184.84 204.494L182.121 207.057L155.866 179.205L158.584 176.642Z" fill="#B7B7B7"/>
<path d="M182.145 205.635L184.863 208.198L158.603 236.046L155.885 233.483L182.145 205.635Z" fill="#B7B7B7"/>
<path d="M157.238 234.056H184.137V237.792H157.238V234.056Z" fill="#B7B7B7"/>
<path d="M157.238 205.035H184.137V208.771H157.238V205.035Z" fill="#B7B7B7"/>
<path d="M158.576 205.668L184.832 233.521L182.114 236.083L155.858 208.231L158.576 205.668Z" fill="#B7B7B7"/>
<path d="M182.145 234.612L184.863 237.175L158.603 265.022L155.885 262.459L182.145 234.612Z" fill="#B7B7B7"/>
<path d="M157.238 263.062H184.137V266.798H157.238V263.062Z" fill="#B7B7B7"/>
<path d="M157.238 234.056H184.137V237.792H157.238V234.056Z" fill="#B7B7B7"/>
<path d="M158.584 234.678L184.84 262.53L182.121 265.093L155.866 237.241L158.584 234.678Z" fill="#B7B7B7"/>
<path d="M182.153 263.661L184.871 266.224L158.61 294.072L155.892 291.509L182.153 263.661Z" fill="#B7B7B7"/>
<path d="M157.238 292.083H184.137V295.819H157.238V292.083Z" fill="#B7B7B7"/>
<path d="M157.238 263.062H184.137V266.798H157.238V263.062Z" fill="#B7B7B7"/>
<path d="M158.576 263.704L184.832 291.557L182.114 294.119L155.858 266.267L158.576 263.704Z" fill="#B7B7B7"/>
<path d="M182.145 292.672L184.863 295.235L158.603 323.083L155.885 320.519L182.145 292.672Z" fill="#B7B7B7"/>
<path d="M157.238 321.104H184.137V324.84H157.238V321.104Z" fill="#B7B7B7"/>
<path d="M157.238 292.083H184.137V295.819H157.238V292.083Z" fill="#B7B7B7"/>
<path d="M158.576 292.719L184.832 320.571L182.114 323.134L155.858 295.282L158.576 292.719Z" fill="#B7B7B7"/>
<path d="M182.114 321.75L184.832 324.313L158.571 352.161L155.853 349.598L182.114 321.75Z" fill="#B7B7B7"/>
<path d="M157.238 350.126H184.137V353.862H157.238V350.126Z" fill="#B7B7B7"/>
<path d="M157.238 321.104H184.137V324.84H157.238V321.104Z" fill="#B7B7B7"/>
<path d="M158.584 321.746L184.84 349.598L182.121 352.161L155.866 324.309L158.584 321.746Z" fill="#B7B7B7"/>
<path d="M182.144 350.69L184.863 353.252L158.612 381.109L155.893 378.547L182.144 350.69Z" fill="#B7B7B7"/>
<path d="M157.238 379.132H184.137V382.868H157.238V379.132Z" fill="#B7B7B7"/>
<path d="M157.238 350.126H184.137V353.862H157.238V350.126Z" fill="#B7B7B7"/>
<path d="M158.592 350.739L184.848 378.591L182.129 381.153L155.873 353.301L158.592 350.739Z" fill="#B7B7B7"/>
<path d="M182.144 379.708L184.863 382.271L158.612 410.127L155.893 407.565L182.144 379.708Z" fill="#B7B7B7"/>
<path d="M157.238 408.153H184.137V411.889H157.238V408.153Z" fill="#B7B7B7"/>
<path d="M157.238 379.132H184.137V382.868H157.238V379.132Z" fill="#B7B7B7"/>
<path d="M158.592 379.77L184.848 407.622L182.129 410.185L155.873 382.333L158.592 379.77Z" fill="#B7B7B7"/>
<path d="M153.723 424.659V407.763H186.531V424.659H153.723Z" fill="#B7B7B7"/>
<path d="M153.723 408.832L153.723 90.4927H160.447L160.447 408.832H153.723Z" fill="#B7B7B7"/>
<path d="M179.812 408.832L179.812 90.4927H186.537L186.537 408.832H179.812Z" fill="#B7B7B7"/>
<path d="M445.049 88.2171L415.993 59.5859L170.743 13.871L96.2099 59.7896L94.257 56.6141L170.013 9.94824L417.793 56.1216L447.664 85.551L445.049 88.2171Z" fill="#B7B7B7"/>
<path d="M200.301 63.5942L170.43 22.0739L141.85 63.5433L135.702 59.2978L170.311 9.13379L206.363 59.2469L200.301 63.5942Z" fill="#616066"/>
<path d="M388.628 62.8399L416.48 89.0957L413.918 91.8142L386.066 65.5584L388.628 62.8399Z" fill="#B7B7B7"/>
<path d="M414.495 63.5942H418.23V90.4933H414.495V63.5942Z" fill="#B7B7B7"/>
<path d="M385.475 63.5942H389.211V90.4933H385.475V63.5942Z" fill="#B7B7B7"/>
<path d="M413.926 62.842L416.488 65.5605L388.636 91.8164L386.073 89.0979L413.926 62.842Z" fill="#B7B7B7"/>
<path d="M359.613 62.8345L387.465 89.0903L384.902 91.8088L357.05 65.553L359.613 62.8345Z" fill="#B7B7B7"/>
<path d="M385.475 63.5942H389.211V90.4933H385.475V63.5942Z" fill="#B7B7B7"/>
<path d="M356.452 63.5942H360.188V90.4933H356.452V63.5942Z" fill="#B7B7B7"/>
<path d="M384.87 62.9099L387.434 65.6279L359.586 91.8886L357.023 89.1705L384.87 62.9099Z" fill="#B7B7B7"/>
<path d="M330.613 62.8418L358.465 89.0977L355.902 91.8162L328.05 65.5603L330.613 62.8418Z" fill="#B7B7B7"/>
<path d="M356.452 63.5942H360.188V90.4933H356.452V63.5942Z" fill="#B7B7B7"/>
<path d="M327.451 63.5942H331.188V90.4933H327.451V63.5942Z" fill="#B7B7B7"/>
<path d="M355.851 62.9333L358.414 65.6514L330.566 91.9121L328.003 89.194L355.851 62.9333Z" fill="#B7B7B7"/>
<path d="M301.589 62.8369L329.441 89.0928L326.879 91.8113L299.026 65.5554L301.589 62.8369Z" fill="#B7B7B7"/>
<path d="M327.451 63.5942H331.188V90.4933H327.451V63.5942Z" fill="#B7B7B7"/>
<path d="M298.42 63.5942H302.156V90.4933H298.42V63.5942Z" fill="#B7B7B7"/>
<path d="M326.843 62.9275L329.406 65.6455L301.559 91.9062L298.995 89.1882L326.843 62.9275Z" fill="#B7B7B7"/>
<path d="M272.566 62.8316L300.418 89.0874L297.855 91.8059L270.003 65.5501L272.566 62.8316Z" fill="#B7B7B7"/>
<path d="M298.42 63.5942H302.156V90.4933H298.42V63.5942Z" fill="#B7B7B7"/>
<path d="M269.401 63.5942H273.137V90.4933H269.401V63.5942Z" fill="#B7B7B7"/>
<path d="M297.847 62.8874L300.41 65.6055L272.562 91.8662L269.999 89.1481L297.847 62.8874Z" fill="#B7B7B7"/>
<path d="M243.562 62.8389L271.414 89.0947L268.851 91.8132L240.999 65.5574L243.562 62.8389Z" fill="#B7B7B7"/>
<path d="M269.401 63.5942H273.137V90.4933H269.401V63.5942Z" fill="#B7B7B7"/>
<path d="M240.381 63.5942H244.117V90.4933H240.381V63.5942Z" fill="#B7B7B7"/>
<path d="M268.792 62.8981L271.355 65.6162L243.508 91.8769L240.945 89.1588L268.792 62.8981Z" fill="#B7B7B7"/>
<path d="M214.554 62.8345L242.406 89.0903L239.844 91.8088L211.991 65.553L214.554 62.8345Z" fill="#B7B7B7"/>
<path d="M240.381 63.5942H244.117V90.4933H240.381V63.5942Z" fill="#B7B7B7"/>
<path d="M211.381 63.5942H215.117V90.4933H211.381V63.5942Z" fill="#B7B7B7"/>
<path d="M239.788 62.9045L242.352 65.6226L214.504 91.8832L211.941 89.1652L239.788 62.9045Z" fill="#B7B7B7"/>
<path d="M185.531 62.8291L213.383 89.085L210.82 91.8035L182.968 65.5476L185.531 62.8291Z" fill="#B7B7B7"/>
<path d="M211.381 63.5942H215.117V90.4933H211.381V63.5942Z" fill="#B7B7B7"/>
<path d="M182.358 63.5942H186.094V90.4933H182.358V63.5942Z" fill="#B7B7B7"/>
<path d="M210.761 62.9158L213.324 65.6338L185.477 91.8945L182.913 89.1764L210.761 62.9158Z" fill="#B7B7B7"/>
<path d="M156.519 62.836L184.371 89.0918L181.808 91.8103L153.956 65.5545L156.519 62.836Z" fill="#B7B7B7"/>
<path d="M182.358 63.5942H186.094V90.4933H182.358V63.5942Z" fill="#B7B7B7"/>
<path d="M153.338 63.5942H157.074V90.4933H153.338V63.5942Z" fill="#B7B7B7"/>
<path d="M181.726 62.926L184.289 65.644L156.441 91.9047L153.878 89.1867L181.726 62.926Z" fill="#B7B7B7"/>
<path d="M127.503 62.8311L155.355 89.0869L152.793 91.8054L124.941 65.5496L127.503 62.8311Z" fill="#B7B7B7"/>
<path d="M153.338 63.5942H157.074V90.4933H153.338V63.5942Z" fill="#B7B7B7"/>
<path d="M124.327 63.5942H128.062V90.4933H124.327V63.5942Z" fill="#B7B7B7"/>
<path d="M152.734 62.9157L155.297 65.6338L127.449 91.8945L124.886 89.1764L152.734 62.9157Z" fill="#B7B7B7"/>
<path d="M98.4915 62.8272L126.344 89.083L123.781 91.8015L95.9288 65.5457L98.4915 62.8272Z" fill="#B7B7B7"/>
<path d="M124.327 63.5942H128.062V90.4933H124.327V63.5942Z" fill="#B7B7B7"/>
<path d="M95.307 63.5942H99.043V90.4933H95.307V63.5942Z" fill="#B7B7B7"/>
<path d="M123.718 62.9099L126.281 65.6279L98.4336 91.8886L95.8705 89.1706L123.718 62.9099Z" fill="#B7B7B7"/>
<path d="M445.664 92.3438L94.2227 92.3438V85.619L447.664 85.619V90.3438C447.664 91.4483 446.768 92.3438 445.664 92.3438Z" fill="#B7B7B7"/>
<path d="M428.102 66.277H94.2066V59.5522H421.258L428.102 66.277Z" fill="#B7B7B7"/>
<path d="M65.2227 94.8649H80.1025V56.0786H65.2227C64.1181 56.0786 63.2227 56.974 63.2227 58.0786V92.8649C63.2227 93.9695 64.1181 94.8649 65.2227 94.8649Z" fill="#616066"/>
<path d="M80.1055 94.8649H97.0023V56.0786H80.1055V94.8649Z" fill="#616066"/>
<path d="M117.311 111.218H88.9102C87.8056 111.218 86.9102 110.323 86.9102 109.218V91.8591H119.311V109.218C119.311 110.323 118.416 111.218 117.311 111.218Z" fill="#616066"/>
<path d="M420.854 63.5942H424.59V90.4933H420.854V63.5942Z" fill="#B7B7B7"/>
<path d="M375.858 96.3174H379.594V185.336H375.858V96.3174Z" fill="#616066"/>
<path d="M407.412 97.5571H411.148V186.575H407.412V97.5571Z" fill="#616066"/>
<path d="M416.363 100.291H371.184C370.079 100.291 369.184 99.3956 369.184 98.291V92.3309H418.363V98.291C418.363 99.3956 417.467 100.291 416.363 100.291Z" fill="#B7B7B7"/>
<path d="M395.627 194.608L395.22 202.878L394.031 201.452C395.36 201.826 396.625 202.399 397.784 203.15C398.979 203.878 399.99 204.871 400.739 206.054C401.454 207.252 401.815 208.628 401.779 210.023C401.743 211.418 401.311 212.774 400.535 213.933C399.806 215.018 398.812 215.9 397.647 216.494C396.482 217.088 395.185 217.376 393.878 217.329C392.637 217.238 391.434 216.858 390.364 216.222C389.294 215.585 388.387 214.709 387.714 213.661C388.447 214.593 389.384 215.344 390.452 215.856C391.521 216.368 392.693 216.628 393.878 216.616C394.994 216.553 396.077 216.209 397.024 215.615C397.971 215.021 398.752 214.197 399.295 213.22C399.795 212.299 400.025 211.257 399.959 210.211C399.893 209.166 399.533 208.161 398.922 207.31C397.529 205.719 395.602 204.692 393.505 204.423L392.384 204.237V202.997L391.976 194.727L395.627 194.608Z" fill="#616066"/>
<path d="M416.352 177.644C417.456 177.644 418.352 178.539 418.352 179.644V189.564C418.352 190.49 417.715 191.295 416.814 191.509L394.224 196.876C393.92 196.948 393.604 196.948 393.3 196.876L370.727 191.51C369.826 191.295 369.189 190.49 369.189 189.564V179.644C369.189 178.539 370.085 177.644 371.189 177.644H416.352Z" fill="#F85757"/>
<path d="M380.473 185.556C380.473 186.12 380.305 186.672 379.992 187.141C379.678 187.61 379.233 187.976 378.712 188.192C378.19 188.408 377.617 188.464 377.063 188.354C376.51 188.244 376.001 187.972 375.602 187.573C375.203 187.174 374.932 186.666 374.822 186.113C374.712 185.559 374.768 184.986 374.984 184.464C375.2 183.943 375.566 183.497 376.035 183.184C376.504 182.87 377.055 182.703 377.62 182.703C378.376 182.703 379.102 183.004 379.637 183.539C380.172 184.074 380.473 184.799 380.473 185.556V185.556Z" fill="#616066"/>
<path d="M412.777 185.557C412.777 186.121 412.61 186.673 412.297 187.142C411.983 187.611 411.538 187.977 411.016 188.193C410.495 188.409 409.921 188.465 409.368 188.355C408.814 188.245 408.306 187.973 407.907 187.574C407.508 187.175 407.236 186.667 407.126 186.114C407.016 185.56 407.073 184.987 407.289 184.465C407.505 183.944 407.87 183.498 408.339 183.185C408.809 182.871 409.36 182.704 409.924 182.704C410.681 182.704 411.407 183.005 411.942 183.54C412.477 184.075 412.777 184.8 412.777 185.557V185.557Z" fill="#616066"/>
<path d="M176.668 11.9184C176.668 13.1645 176.298 14.3825 175.606 15.4186C174.914 16.4547 173.93 17.2622 172.779 17.739C171.628 18.2159 170.361 18.3407 169.139 18.0976C167.917 17.8545 166.794 17.2544 165.913 16.3733C165.032 15.4922 164.432 14.3696 164.189 13.1475C163.946 11.9254 164.07 10.6586 164.547 9.50739C165.024 8.35618 165.831 7.37222 166.868 6.67994C167.904 5.98767 169.122 5.61816 170.368 5.61816C172.039 5.61816 173.641 6.28194 174.823 7.46346C176.004 8.64498 176.668 10.2475 176.668 11.9184V11.9184Z" fill="#B7B7B7"/>
<path d="M422.66 59.5517C422.66 60.7978 422.291 62.0158 421.598 63.0519C420.906 64.088 419.922 64.8955 418.771 65.3723C417.62 65.8492 416.353 65.974 415.131 65.7309C413.909 65.4878 412.786 64.8877 411.905 64.0066C411.024 63.1255 410.424 62.0029 410.181 60.7808C409.938 59.5587 410.062 58.2919 410.539 57.1407C411.016 55.9895 411.824 55.0055 412.86 54.3132C413.896 53.621 415.114 53.2515 416.36 53.2515C418.031 53.2515 419.633 53.9152 420.815 55.0968C421.996 56.2783 422.66 57.8808 422.66 59.5517V59.5517Z" fill="#616066"/>
<path d="M173.332 11.9183C173.335 12.5034 173.165 13.0764 172.842 13.5645C172.52 14.0527 172.059 14.434 171.52 14.6603C170.98 14.8865 170.385 14.9475 169.811 14.8354C169.237 14.7233 168.709 14.4432 168.294 14.0307C167.879 13.6181 167.596 13.0917 167.48 12.518C167.365 11.9444 167.423 11.3494 167.646 10.8085C167.869 10.2676 168.248 9.80509 168.734 9.47965C169.22 9.15421 169.792 8.98048 170.377 8.98047C171.158 8.98046 171.907 9.28944 172.461 9.83991C173.014 10.3904 173.327 11.1376 173.332 11.9183V11.9183Z" fill="#616066"/>
<path d="M419.32 59.5516C419.324 60.1367 419.153 60.7097 418.831 61.1978C418.508 61.686 418.048 62.0673 417.508 62.2936C416.968 62.5198 416.374 62.5808 415.799 62.4687C415.225 62.3566 414.697 62.0765 414.282 61.664C413.867 61.2514 413.584 60.725 413.469 60.1513C413.353 59.5777 413.411 58.9827 413.634 58.4418C413.857 57.9009 414.236 57.4384 414.722 57.113C415.208 56.7875 415.78 56.6138 416.365 56.6138C417.146 56.6138 417.895 56.9227 418.449 57.4732C419.002 58.0237 419.316 58.7709 419.32 59.5516V59.5516Z" fill="#B7B7B7"/>
<path d="M197.304 437.481H142.996V426.643C142.996 425.539 143.892 424.643 144.996 424.643H195.304C196.408 424.643 197.304 425.539 197.304 426.643V437.481Z" fill="#616066"/>
<path d="M209.071 462.648H131.227V439.481C131.227 438.377 132.122 437.481 133.227 437.481H207.071C208.175 437.481 209.071 438.377 209.071 439.481V462.648Z" fill="#616066"/>
<path d="M201.413 115.536C201.573 116.734 200.64 117.8 199.431 117.8H145.603C144.499 117.8 143.603 116.904 143.603 115.8V55.4727C143.603 54.3681 144.499 53.4727 145.603 53.4727H181.541C184.757 53.4662 187.865 54.6315 190.284 56.7505C192.703 58.8696 194.267 61.7974 194.684 64.9863L201.413 115.536Z" fill="#F85757"/>
<path d="M185.904 98.2369H158.649C158.356 98.2414 158.063 98.2013 157.782 98.118C157.148 97.9275 156.591 97.5369 156.196 97.0044C155.802 96.4719 155.59 95.826 155.592 95.1632V62.8091C155.592 61.7045 156.487 60.8091 157.592 60.8091H174.968C175.618 60.8023 176.267 60.8649 176.904 60.9959C178.367 61.269 179.756 61.8477 180.98 62.6941C182.247 63.5586 183.319 64.6793 184.126 65.9839C184.934 67.2885 185.458 68.7479 185.667 70.2679L188.893 94.7556C188.948 95.1846 188.912 95.6202 188.788 96.0345C188.664 96.4487 188.454 96.8323 188.172 97.1604C187.891 97.4885 187.543 97.7539 187.152 97.9393C186.762 98.1247 186.337 98.2261 185.904 98.2369Z" fill="white"/>
<g opacity="0.5">
<path opacity="0.8" d="M163.87 60.8086L187.543 84.1925L185.675 70.1825C185.444 68.6028 184.864 67.0944 183.977 65.7673V65.7673L180.58 62.4728C179.424 61.749 178.138 61.2586 176.793 61.0294C176.157 60.8984 175.508 60.8358 174.858 60.8426L163.87 60.8086Z" fill="#E9E9E9"/>
<path opacity="0.8" d="M155.595 69.0615V78.2487L175.82 98.2362H185.109L155.595 69.0615Z" fill="#E9E9E9"/>
<path opacity="0.8" d="M155.592 81.8486V83.2411L170.757 98.236H172.184L155.592 81.8486Z" fill="#E9E9E9"/>
</g>
</svg>
