<svg width="296" height="228" viewBox="0 0 296 228" fill="none" xmlns="http://www.w3.org/2000/svg">
<circle opacity="0.09" cx="142.533" cy="113.65" r="110.65" fill="#F85757"/>
<g filter="url(#filter0_dd_1139_42408)">
<path fill-rule="evenodd" clip-rule="evenodd" d="M185.971 127.015C185.971 121.937 190.718 117.814 193.363 113.479C194.241 112.04 194.747 110.348 194.747 108.539V44.165C194.747 38.9183 190.494 34.665 185.247 34.665H37.5C32.2533 34.665 28 38.9183 28 44.165V108.539C28 110.348 28.506 112.04 29.3842 113.479C32.029 117.815 36.7764 121.937 36.7764 127.015V170.696V183.136C36.7764 183.792 36.8428 184.432 36.9694 185.051C37.8552 189.38 41.6855 192.636 46.2764 192.636H176.471C181.718 192.636 185.971 188.383 185.971 183.136V170.696V127.015Z" fill="#FF0000" fill-opacity="0.01" shape-rendering="crispEdges"/>
</g>
<path d="M185.971 183.136C185.971 188.383 181.718 192.636 176.471 192.636H46.2764C41.0297 192.636 36.7764 188.383 36.7764 183.136V65.3818H185.971V183.136Z" fill="white"/>
<path d="M36.7764 170.696H185.971V183.136C185.971 188.383 181.718 192.636 176.471 192.636H46.2764C41.0297 192.636 36.7764 188.383 36.7764 183.136V170.696Z" fill="#F6F6F6"/>
<path d="M128.926 192.636V148.395C128.926 138.899 120.948 131.203 111.312 131.203C101.684 131.203 93.8691 138.899 93.8691 148.395V192.636H128.926Z" fill="#F85757"/>
<path opacity="0.8" d="M146.478 130.815C146.478 128.606 148.269 126.815 150.478 126.815H164.418C166.627 126.815 168.418 128.606 168.418 130.815V157.92C168.418 160.129 166.627 161.92 164.418 161.92H150.478C148.269 161.92 146.478 160.129 146.478 157.92V130.815ZM54.3281 130.815C54.3281 128.606 56.119 126.815 58.3281 126.815H72.2685C74.4777 126.815 76.2685 128.606 76.2685 130.815V157.92C76.2685 160.129 74.4777 161.92 72.2685 161.92H58.3281C56.119 161.92 54.3281 160.129 54.3281 157.92V130.815Z" fill="#B7B7B7"/>
<path d="M194.747 108.539C194.747 113.785 190.494 118.039 185.247 118.039H138.615L111.374 76.2728L84.128 118.039H37.5C32.2533 118.039 28 113.785 28 108.539V44.165C28 38.9183 32.2533 34.665 37.5 34.665H185.247C190.494 34.665 194.747 38.9183 194.747 44.165V108.539Z" fill="#F85757"/>
<path d="M69.1123 118.039H84.1239L107.181 82.6928C109.154 79.6684 113.584 79.6686 115.557 82.6931L138.611 118.039H155.25L116.365 58.6114C114.391 55.595 109.971 55.595 107.997 58.6114L69.1123 118.039Z" fill="#EA4545"/>
<g filter="url(#filter1_dd_1139_42408)">
<path fill-rule="evenodd" clip-rule="evenodd" d="M254.637 84.1596C253.618 85.2654 252.339 86.0992 250.916 86.5851C250.282 86.7975 249.626 86.9357 248.96 86.9969V82.1409C249.569 82.0021 250.165 81.8109 250.742 81.5694C251.798 81.127 252.78 80.5235 253.651 79.7803L254.637 84.1596ZM217.541 84.5539L214.469 84.8459L216.57 87.1067L215.901 90.1161L218.698 88.816L221.356 90.3831L220.984 87.3213L223.295 85.2776L220.268 84.6862L219.038 81.8564L217.541 84.5539ZM225.98 162.822L226.755 162.444L226.765 162.441C227.129 162.313 227.477 162.143 227.801 161.935L228.166 161.758L228.121 161.713C228.243 161.62 228.361 161.522 228.475 161.418C229.379 160.514 229.796 159.209 229.77 157.603C236.666 160.267 242.702 164.856 247.127 170.878C247.447 169.449 247.767 168.032 248.086 166.619L248.449 165.012C244.557 160.209 239.572 156.408 233.911 153.926C232.127 153.144 230.292 152.5 228.423 151.997C226.656 147.662 223.219 142.466 218.515 137.263C219.113 136.984 219.713 136.709 220.308 136.436C225.368 134.118 230.129 131.937 230.955 128.507L232.202 123.322C232.187 123.376 232.171 123.429 232.153 123.482L232.195 123.304C233.396 118.302 230.885 114.626 228.532 111.18C227.171 109.186 225.862 107.268 225.355 105.216C227.687 103.378 232.166 104.745 236.422 106.043C241.232 107.511 245.758 108.892 246.581 105.463L247.825 100.291C246.998 103.703 242.479 102.325 237.676 100.86C232.299 99.22 226.565 97.4712 225.251 102.208C225.273 102.092 225.297 101.974 225.326 101.856L224.078 107.039C222.807 111.905 225.272 115.511 227.626 118.956C229.027 121.006 230.389 122.999 230.902 125.165C228.971 126.737 225.293 127.638 221.334 128.608L221.334 128.608L221.103 128.665L221.676 126.761C220.816 126.616 219.989 126.313 219.238 125.867C217.911 125.055 216.873 123.845 216.274 122.409C215.349 123.974 214.424 125.538 213.499 127.1C213.942 128.268 214.663 129.31 215.6 130.135C214.533 130.466 213.498 130.828 212.526 131.238C209.55 128.56 206.325 126.171 202.894 124.106C205.166 121.494 207.053 119.015 206.318 116.529L205.077 113.269L205.072 113.243C204.967 112.858 204.827 112.498 204.655 112.16L204.437 111.586C204.468 111.692 204.494 111.797 204.516 111.903C202.731 108.8 198.197 107.716 193.933 106.697L193.933 106.697L193.933 106.697C191.563 106.131 189.277 105.584 187.592 104.722C188.948 102.169 192.351 99.9826 195.591 97.9008C199.636 95.3012 203.428 92.8646 202.665 90.081L199.941 82.4626C200.703 85.2449 197.085 88.2639 193.225 91.4852C189.209 94.8361 184.931 98.4058 185.048 102.156C185.026 102.09 185.006 102.024 184.987 101.957L185.058 102.346C185.08 102.656 185.132 102.967 185.218 103.279L185.236 103.324L185.933 107.167C186.695 109.949 190.652 110.893 194.875 111.901C198.177 112.69 201.642 113.517 203.867 115.293C203.055 116.845 201.665 118.422 200.226 120.055C199.71 120.641 199.187 121.234 198.682 121.836C193.978 119.752 190.399 119.625 188.539 121.485C188.357 121.667 188.195 121.865 188.052 122.078L188.036 122.062L187.922 122.287C187.835 122.435 187.757 122.589 187.687 122.75C185.832 126.425 183.963 130.367 182.127 134.563C180.872 137.463 179.619 140.472 178.401 143.624C177.936 144.786 177.494 145.973 177.049 147.173L177.048 147.173L177.048 147.174C176.945 147.452 176.841 147.731 176.737 148.011C175.876 150.376 174.998 152.792 174.174 155.227C173.136 158.247 172.133 161.281 171.257 164.236L171.237 164.253C170.159 167.704 169.228 170.948 168.492 173.943C168.329 175.109 168.439 176.297 168.812 177.414C169.185 178.531 169.811 179.546 170.642 180.38C171.473 181.215 172.486 181.845 173.601 182.223C174.717 182.6 175.904 182.715 177.071 182.557C180.296 181.752 183.464 180.735 186.554 179.512C187.931 178.985 189.321 178.43 190.745 177.861L190.746 177.861C192.128 177.309 193.541 176.745 195.005 176.181C196.725 175.5 198.514 174.821 200.395 174.157C202.384 173.459 204.415 172.69 206.412 171.829C209.361 170.629 212.318 169.321 215.146 167.996C219.001 166.224 222.676 164.433 225.98 162.822ZM174.464 113.421L177.969 112.453L179.154 109.017L181.161 112.049L184.794 112.116L182.531 114.96L183.589 118.437L180.184 117.162L177.204 119.243L177.365 115.614L174.464 113.421ZM244.176 149.808L241.264 148.79L242.224 151.72L240.355 154.175L243.442 154.165L245.196 156.701L246.142 153.764L249.097 152.878L246.596 151.071L246.664 147.987L244.176 149.808ZM253.567 117.302L259.236 119.284L264.078 115.738L263.947 121.742L268.814 125.258L263.063 126.983L261.222 132.7L257.808 127.765L251.799 127.784L255.437 123.005L253.567 117.302ZM211.999 115.789C212.941 115.425 213.787 114.849 214.47 114.104L213.666 110.782C212.277 111.637 210.667 112.063 209.037 112.008V116.202C210.043 116.295 211.057 116.154 211.999 115.789ZM176.854 88.8907C176.118 88.2008 175.552 87.3504 175.198 86.4056L177.182 83.6133C177.802 84.4578 178.574 85.1795 179.458 85.7418C179.947 86.0446 180.466 86.2955 181.007 86.4904L179.44 90.3832C178.475 90.0914 177.59 89.5807 176.854 88.8907ZM243.194 143.28C242.175 144.389 240.896 145.227 239.473 145.717C238.839 145.93 238.182 146.068 237.517 146.129V141.261C239.247 140.865 240.856 140.055 242.205 138.9L243.194 143.28ZM255.286 109.692C256.792 111.153 258.672 112.17 260.719 112.632L261.54 108.851C260.551 108.622 259.622 108.189 258.81 107.579C257.999 106.97 257.324 106.198 256.828 105.313L255.286 109.692Z" fill="#FF0000" fill-opacity="0.01" shape-rendering="crispEdges"/>
</g>
<path d="M228.166 161.758C224.333 163.619 219.874 165.823 215.146 167.996C212.318 169.321 209.361 170.629 206.412 171.829C204.415 172.69 202.384 173.459 200.395 174.157C198.514 174.821 196.725 175.5 195.005 176.181C192.031 177.326 189.266 178.474 186.554 179.512C183.464 180.735 180.296 181.752 177.071 182.557C175.904 182.715 174.717 182.6 173.601 182.223C172.486 181.845 171.473 181.215 170.642 180.38C169.811 179.546 169.185 178.531 168.812 177.414C168.439 176.297 168.329 175.109 168.492 173.943C169.228 170.948 170.159 167.704 171.237 164.253L171.257 164.236C172.133 161.281 173.136 158.247 174.174 155.227C174.998 152.792 175.876 150.376 176.737 148.011C177.291 146.526 177.827 145.056 178.401 143.624C179.619 140.472 180.872 137.463 182.127 134.563C184.078 130.104 186.067 125.932 188.036 122.062C201.418 135.287 214.795 148.519 228.166 161.758Z" fill="#F85757"/>
<path d="M228.031 160.978C231.748 157.262 226.018 145.506 215.233 134.721C204.448 123.936 192.693 118.206 188.976 121.923C185.259 125.64 190.989 137.396 201.774 148.18C212.558 158.965 224.314 164.695 228.031 160.978Z" fill="#CE3737"/>
<path d="M224.792 162.716C219.274 162.716 210.082 157.371 201.335 148.622C190.139 137.425 184.517 125.505 188.539 121.485C190.535 119.489 194.51 119.781 199.731 122.324C205.649 125.436 211.032 129.473 215.679 134.281C226.873 145.478 232.495 157.398 228.475 161.418C227.979 161.87 227.398 162.218 226.765 162.441C226.132 162.664 225.461 162.757 224.792 162.716ZM192.237 121.418C191.728 121.381 191.216 121.447 190.732 121.609C190.248 121.772 189.801 122.029 189.417 122.366C186.381 125.403 190.8 136.323 202.214 147.741C213.627 159.16 224.552 163.577 227.589 160.538C230.626 157.498 226.207 146.578 214.793 135.162C210.244 130.453 204.974 126.498 199.182 123.446C197.04 122.278 194.671 121.586 192.237 121.418Z" fill="#FF8080"/>
<path d="M214.47 84.8459L217.542 84.5539L219.039 81.8564L220.269 84.6862L223.296 85.2776L220.985 87.3213L221.357 90.3831L218.699 88.816L215.902 90.1161L216.571 87.1067L214.47 84.8459Z" fill="#FFC01F"/>
<path d="M174.464 113.421L177.969 112.453L179.155 109.017L181.161 112.049L184.795 112.116L182.532 114.96L183.59 118.437L180.185 117.163L177.205 119.244L177.365 115.614L174.464 113.421Z" fill="#FFC01F"/>
<path d="M241.264 148.79L244.176 149.808L246.664 147.987L246.596 151.071L249.097 152.878L246.142 153.764L245.196 156.701L243.442 154.165L240.355 154.175L242.224 151.72L241.264 148.79Z" fill="#FFC01F"/>
<path d="M253.568 117.302L259.236 119.284L264.079 115.738L263.948 121.742L268.815 125.258L263.064 126.983L261.223 132.7L257.808 127.765L251.8 127.784L255.438 123.005L253.568 117.302Z" fill="#FFC01F"/>
<path d="M223.948 107.603C226.207 98.1933 244.824 112.781 246.581 105.462L247.829 100.277C246.082 107.596 227.457 93.0105 225.196 102.42L223.948 107.603Z" fill="#FFAA5B"/>
<path d="M230.95 128.499C232.575 120.914 221.68 116.217 224.078 107.039L225.326 101.856C223.579 109.175 234.454 113.894 232.195 123.304L230.95 128.499Z" fill="#FFAA5B"/>
<path d="M207.249 146.871C209.507 137.461 229.193 135.826 230.955 128.507L232.202 123.322C230.43 129.677 208.247 127.669 205.983 137.58L207.249 146.871Z" fill="#FFAA5B"/>
<path d="M215.907 150.743C213.159 151.043 210.461 151.691 207.877 152.672L207.899 152.689C208.87 153.416 209.484 153.89 209.781 154.117C210.188 154.426 210.779 154.865 211.553 155.379C214.284 155.033 217.046 154.987 219.787 155.242C221.252 155.389 222.707 155.611 224.149 155.906C233.37 157.946 241.535 163.267 247.127 170.878C247.568 168.907 248.01 166.958 248.449 165.012C244.557 160.209 239.572 156.408 233.911 153.926C228.249 151.444 222.076 150.352 215.907 150.743Z" fill="#FFAA5B"/>
<path d="M187.147 108.22C185.011 100.42 204.3 96.0476 202.665 90.0812L199.941 82.4629C201.575 88.4268 183.082 95.4787 185.218 103.279L187.147 108.22Z" fill="#FFAA5B"/>
<path d="M206.018 118.451C203.882 110.65 187.568 113.131 185.933 107.167L184.987 101.957C186.619 107.923 202.936 105.45 205.072 113.243L206.018 118.451Z" fill="#FFAA5B"/>
<path d="M197.185 136.113C194.892 128.355 208.072 122.461 206.318 116.529L204.437 111.586C206.183 117.517 193.008 123.414 195.301 131.17L197.185 136.113Z" fill="#FFAA5B"/>
<path d="M220.102 131.993C218.467 131.877 216.912 131.244 215.66 130.187C214.694 129.354 213.951 128.293 213.499 127.1C214.424 125.538 215.349 123.974 216.274 122.409C216.873 123.845 217.911 125.055 219.238 125.867C219.989 126.313 220.816 126.616 221.676 126.761L220.102 131.993Z" fill="#B7B7B7"/>
<path d="M214.47 114.104C213.787 114.849 212.941 115.426 211.999 115.79C211.057 116.154 210.043 116.295 209.037 116.203V112.008C210.667 112.063 212.277 111.637 213.666 110.783L214.47 114.104Z" fill="#B7B7B7"/>
<path d="M254.637 84.1596C253.618 85.2654 252.339 86.0992 250.916 86.5851C250.282 86.7975 249.626 86.9357 248.96 86.9969V82.1409C249.569 82.0021 250.165 81.8109 250.742 81.5694C251.798 81.127 252.78 80.5235 253.651 79.7803L254.637 84.1596Z" fill="#B7B7B7"/>
<path d="M175.198 86.4056C175.552 87.3504 176.118 88.2008 176.854 88.8907C177.59 89.5807 178.475 90.0914 179.44 90.3832L181.007 86.4904C180.466 86.2955 179.947 86.0446 179.458 85.7418C178.574 85.1795 177.802 84.4578 177.182 83.6133L175.198 86.4056Z" fill="#E9E9E9"/>
<path d="M243.194 143.28C242.175 144.389 240.896 145.227 239.473 145.718C238.839 145.93 238.182 146.068 237.517 146.129V141.261C239.247 140.865 240.856 140.055 242.205 138.9L243.194 143.28Z" fill="#B7B7B7"/>
<path d="M260.719 112.631C258.672 112.17 256.792 111.153 255.286 109.692L256.828 105.312C257.324 106.198 257.999 106.97 258.81 107.579C259.622 108.188 260.551 108.621 261.54 108.851L260.719 112.631Z" fill="#B7B7B7"/>
<defs>
<filter id="filter0_dd_1139_42408" x="10.72" y="17.385" width="201.307" height="197.093" filterUnits="userSpaceOnUse" color-interpolation-filters="sRGB">
<feFlood flood-opacity="0" result="BackgroundImageFix"/>
<feColorMatrix in="SourceAlpha" type="matrix" values="0 0 0 0 0 0 0 0 0 0 0 0 0 0 0 0 0 0 127 0" result="hardAlpha"/>
<feOffset dy="4.85375"/>
<feGaussianBlur stdDeviation="8.49406"/>
<feComposite in2="hardAlpha" operator="out"/>
<feColorMatrix type="matrix" values="0 0 0 0 0.132391 0 0 0 0 0.13228 0 0 0 0 0.137836 0 0 0 0.04 0"/>
<feBlend mode="normal" in2="BackgroundImageFix" result="effect1_dropShadow_1139_42408"/>
<feColorMatrix in="SourceAlpha" type="matrix" values="0 0 0 0 0 0 0 0 0 0 0 0 0 0 0 0 0 0 127 0" result="hardAlpha"/>
<feOffset/>
<feGaussianBlur stdDeviation="8.64"/>
<feComposite in2="hardAlpha" operator="out"/>
<feColorMatrix type="matrix" values="0 0 0 0 0 0 0 0 0 0 0 0 0 0 0 0 0 0 0.04 0"/>
<feBlend mode="normal" in2="effect1_dropShadow_1139_42408" result="effect2_dropShadow_1139_42408"/>
<feBlend mode="normal" in="SourceGraphic" in2="effect2_dropShadow_1139_42408" result="shape"/>
</filter>
<filter id="filter1_dd_1139_42408" x="151.139" y="62.5003" width="134.956" height="141.967" filterUnits="userSpaceOnUse" color-interpolation-filters="sRGB">
<feFlood flood-opacity="0" result="BackgroundImageFix"/>
<feColorMatrix in="SourceAlpha" type="matrix" values="0 0 0 0 0 0 0 0 0 0 0 0 0 0 0 0 0 0 127 0" result="hardAlpha"/>
<feOffset dy="4.85375"/>
<feGaussianBlur stdDeviation="8.49406"/>
<feComposite in2="hardAlpha" operator="out"/>
<feColorMatrix type="matrix" values="0 0 0 0 0.132391 0 0 0 0 0.13228 0 0 0 0 0.137836 0 0 0 0.05 0"/>
<feBlend mode="normal" in2="BackgroundImageFix" result="effect1_dropShadow_1139_42408"/>
<feColorMatrix in="SourceAlpha" type="matrix" values="0 0 0 0 0 0 0 0 0 0 0 0 0 0 0 0 0 0 127 0" result="hardAlpha"/>
<feOffset/>
<feGaussianBlur stdDeviation="8.64"/>
<feComposite in2="hardAlpha" operator="out"/>
<feColorMatrix type="matrix" values="0 0 0 0 0 0 0 0 0 0 0 0 0 0 0 0 0 0 0.09 0"/>
<feBlend mode="normal" in2="effect1_dropShadow_1139_42408" result="effect2_dropShadow_1139_42408"/>
<feBlend mode="normal" in="SourceGraphic" in2="effect2_dropShadow_1139_42408" result="shape"/>
</filter>
</defs>
</svg>
