<svg width="210" height="36" viewBox="0 0 210 36" fill="none" xmlns="http://www.w3.org/2000/svg">
<path d="M72.6751 25.1563C70.9899 25.1563 69.5044 24.7904 68.2184 24.0587C66.9324 23.3271 65.9124 22.3071 65.1586 20.9989C64.4269 19.6908 64.061 18.1942 64.061 16.509C64.061 14.8239 64.4269 13.3274 65.1586 12.0192C65.9124 10.711 66.9324 9.69104 68.2184 8.95935C69.5044 8.22766 70.9899 7.86182 72.6751 7.86182C74.7814 7.86182 76.5552 8.41613 77.9964 9.52475C79.4376 10.6112 80.3577 12.1189 80.7569 14.0479H76.267C76.0452 13.2497 75.6018 12.6289 74.9366 12.1854C74.2936 11.7198 73.5286 11.487 72.6418 11.487C71.4666 11.487 70.4688 11.9305 69.6484 12.8173C68.8281 13.7042 68.4179 14.9348 68.4179 16.509C68.4179 18.0833 68.8281 19.3139 69.6484 20.2008C70.4688 21.0877 71.4666 21.5311 72.6418 21.5311C73.5286 21.5311 74.2936 21.3094 74.9366 20.866C75.6018 20.4225 76.0452 19.7906 76.267 18.9702H80.7569C80.3577 20.8327 79.4376 22.3293 77.9964 23.4601C76.5552 24.591 74.7814 25.1563 72.6751 25.1563Z" fill="#B7B7B7"/>
<path d="M91.7855 25.1563C90.1892 25.1563 88.7479 24.7904 87.4619 24.0587C86.1981 23.3271 85.1893 22.3182 84.4354 21.0322C83.7037 19.724 83.3379 18.2164 83.3379 16.509C83.3379 14.8018 83.7148 13.3052 84.4687 12.0192C85.2226 10.711 86.2314 9.69104 87.4952 8.95935C88.7812 8.22766 90.2224 7.86182 91.8188 7.86182C93.3931 7.86182 94.8121 8.22766 96.0759 8.95935C97.3619 9.69104 98.3708 10.711 99.1025 12.0192C99.8563 13.3052 100.233 14.8018 100.233 16.509C100.233 18.2164 99.8563 19.724 99.1025 21.0322C98.3708 22.3182 97.3619 23.3271 96.0759 24.0587C94.79 24.7904 93.3598 25.1563 91.7855 25.1563ZM91.7855 21.4646C92.8942 21.4646 93.8587 21.0544 94.6791 20.2341C95.4994 19.3915 95.9097 18.1498 95.9097 16.509C95.9097 14.8683 95.4994 13.6377 94.6791 12.8173C93.8587 11.9748 92.9053 11.5535 91.8188 11.5535C90.688 11.5535 89.7125 11.9748 88.8921 12.8173C88.0938 13.6377 87.6948 14.8683 87.6948 16.509C87.6948 18.1498 88.0938 19.3915 88.8921 20.2341C89.7125 21.0544 90.6769 21.4646 91.7855 21.4646Z" fill="#B7B7B7"/>
<path d="M103.375 24.7572V8.26092H107.133L107.499 10.4892C108.03 9.69104 108.729 9.05912 109.594 8.59351C110.481 8.10572 111.501 7.86182 112.654 7.86182C115.204 7.86182 117.011 8.84849 118.074 10.8218C118.674 9.91277 119.472 9.19216 120.47 8.66002C121.49 8.12788 122.598 7.86182 123.795 7.86182C125.946 7.86182 127.598 8.50481 128.751 9.79082C129.904 11.0768 130.48 12.9615 130.48 15.4448V24.7572H126.223V15.8439C126.223 14.4249 125.946 13.3384 125.391 12.5846C124.86 11.8307 124.028 11.4538 122.898 11.4538C121.744 11.4538 120.813 11.875 120.104 12.7176C119.416 13.5601 119.072 14.7352 119.072 16.243V24.7572H114.816V15.8439C114.816 14.4249 114.539 13.3384 113.984 12.5846C113.43 11.8307 112.576 11.4538 111.424 11.4538C110.293 11.4538 109.372 11.875 108.663 12.7176C107.975 13.5601 107.632 14.7352 107.632 16.243V24.7572H103.375Z" fill="#B7B7B7"/>
<path d="M133.857 32.0742V8.26092H137.649L138.114 10.6223C138.646 9.89059 139.344 9.24759 140.209 8.69328C141.096 8.13897 142.238 7.86182 143.635 7.86182C145.187 7.86182 146.573 8.23875 147.792 8.9926C149.012 9.74647 149.976 10.7775 150.686 12.0857C151.395 13.3938 151.749 14.8794 151.749 16.5423C151.749 18.2053 151.395 19.6908 150.686 20.9989C149.976 22.285 149.012 23.305 147.792 24.0587C146.573 24.7904 145.187 25.1563 143.635 25.1563C142.394 25.1563 141.307 24.9235 140.376 24.4579C139.444 23.9922 138.691 23.3382 138.114 22.4956V32.0742H133.857ZM142.737 21.4314C144.089 21.4314 145.208 20.9768 146.096 20.0678C146.983 19.1586 147.426 17.9835 147.426 16.5423C147.426 15.1011 146.983 13.9149 146.096 12.9836C145.208 12.0524 144.089 11.5868 142.737 11.5868C141.362 11.5868 140.231 12.0524 139.344 12.9836C138.479 13.8927 138.047 15.0679 138.047 16.509C138.047 17.9503 138.479 19.1365 139.344 20.0678C140.231 20.9768 141.362 21.4314 142.737 21.4314Z" fill="#B7B7B7"/>
<path d="M160.574 25.1563C159.156 25.1563 157.991 24.9346 157.082 24.4912C156.173 24.0255 155.498 23.4157 155.054 22.6619C154.611 21.9081 154.389 21.0766 154.389 20.1675C154.389 18.6376 154.987 17.396 156.185 16.4426C157.382 15.4891 159.178 15.0124 161.572 15.0124H165.763V14.6134C165.763 13.4825 165.441 12.6511 164.798 12.1189C164.156 11.5868 163.358 11.3207 162.404 11.3207C161.54 11.3207 160.785 11.5313 160.142 11.9526C159.499 12.3517 159.1 12.9504 158.945 13.7486H154.787C154.898 12.5513 155.298 11.5092 155.985 10.6223C156.694 9.73539 157.603 9.05912 158.712 8.59351C159.821 8.10572 161.063 7.86182 162.437 7.86182C164.788 7.86182 166.639 8.44938 167.992 9.62452C169.344 10.7997 170.02 12.4626 170.02 14.6134V24.7572H166.395L165.996 22.0966C165.508 22.9834 164.821 23.7151 163.934 24.2916C163.069 24.8681 161.95 25.1563 160.574 25.1563ZM161.54 21.8304C162.758 21.8304 163.701 21.4314 164.366 20.6331C165.053 19.8349 165.485 18.8483 165.663 17.6732H162.038C160.907 17.6732 160.098 17.8837 159.61 18.3051C159.122 18.7041 158.879 19.203 158.879 19.8016C158.879 20.4446 159.122 20.9435 159.61 21.2983C160.098 21.653 160.74 21.8304 161.54 21.8304Z" fill="#B7B7B7"/>
<path d="M173.418 24.7572V8.26092H177.176L177.509 11.0546C178.018 10.0791 178.751 9.30303 179.704 8.72654C180.68 8.15006 181.821 7.86182 183.129 7.86182C185.169 7.86182 186.755 8.50481 187.886 9.79082C189.017 11.0768 189.581 12.9615 189.581 15.4448V24.7572H185.324V15.8439C185.324 14.4249 185.036 13.3384 184.46 12.5846C183.884 11.8307 182.985 11.4538 181.765 11.4538C180.569 11.4538 179.582 11.875 178.806 12.7176C178.052 13.5601 177.675 14.7352 177.675 16.243V24.7572H173.418Z" fill="#B7B7B7"/>
<path d="M194.497 32.074L198.321 23.6595H197.324L190.905 8.26074H195.528L200.151 19.868L204.973 8.26074H209.496L199.02 32.074H194.497Z" fill="#B7B7B7"/>
<path d="M15.4464 29.3006C14.3857 30.3613 12.6653 30.3598 11.6064 29.2973L0.79133 18.4451C-0.26506 17.3851 -0.263586 15.6698 0.794617 14.6116L11.6097 3.79657C12.6679 2.73836 14.3831 2.73689 15.4431 3.79329L26.2953 14.6083C27.3579 15.6673 27.3593 17.3876 26.2986 18.4484L15.4464 29.3006Z" fill="#B7B7B7"/>
<path d="M30.1387 29.2958C29.0798 30.3584 27.3595 30.3598 26.2987 29.2991L15.4465 18.4469C14.3857 17.3861 14.3872 15.6658 15.4498 14.6069L26.302 3.79182C27.362 2.73543 29.0773 2.7369 30.1355 3.79511L40.9504 14.6101C42.0086 15.6683 42.0101 17.3836 40.9537 18.4436L30.1387 29.2958Z" fill="#8D8D91"/>
<path d="M41.0299 29.2977C39.97 30.3592 38.2499 30.3592 37.1901 29.2977L26.3546 18.4452C25.2959 17.3848 25.2974 15.6668 26.3579 14.6081L37.1934 3.79283C38.2524 2.73572 39.9675 2.73572 41.0266 3.79283L51.862 14.6081C52.9226 15.6668 52.9241 17.3848 51.8653 18.4452L41.0299 29.2977Z" fill="#B7B7B7"/>
</svg>
