<svg width="156" height="36" viewBox="0 0 156 36" fill="none" xmlns="http://www.w3.org/2000/svg">
<path d="M0.828415 15.0203V34.5076C0.828415 34.9814 1.21252 35.3655 1.68634 35.3655H25.0482C25.2262 35.3655 25.3999 35.3101 25.5451 35.207L33.2973 29.6991C33.5237 29.5382 33.6583 29.2776 33.6583 28.9998V11.1952C33.6583 10.9317 33.5371 10.6827 33.3297 10.5201L20.7621 0.665534C20.1002 0.146533 19.1699 0.145161 18.5065 0.662207C17.568 1.3936 17.5654 2.8117 18.501 3.54664L29.8349 12.4491C29.9591 12.5467 30.0316 12.6959 30.0316 12.8539V27.2519C30.0316 27.4187 29.9508 27.5752 29.8147 27.6717L24.3243 31.5651C24.2372 31.6268 24.1332 31.66 24.0265 31.66H4.9698C4.68551 31.66 4.45505 31.4295 4.45505 31.1452V16.657C4.45505 16.4997 4.52696 16.3511 4.65027 16.2535L13.3794 9.34221C13.5667 9.19397 13.8312 9.19397 14.0185 9.34221L22.8102 16.303C22.894 16.3693 22.9429 16.4704 22.9429 16.5773V24.5762C22.9429 26.0547 24.6172 26.9118 25.8165 26.0472C26.2893 25.7064 26.5695 25.1591 26.5695 24.5762V15.0203C26.5695 14.758 26.4495 14.5101 26.2437 14.3474L14.2311 4.84743C13.9192 4.60077 13.4787 4.60077 13.1668 4.84743L1.15417 14.3474C0.948419 14.5101 0.828415 14.758 0.828415 15.0203Z" fill="#F85757" stroke="#F85757" stroke-width="0.343169"/>
<path d="M55.6579 27.4878L52.0899 21.1852H48.7042V27.4878H45.2925V9.25712H52.6889C53.7654 9.25712 54.7637 9.52624 55.684 10.0645C56.6042 10.5854 57.3247 11.3059 57.8456 12.2261C58.3838 13.1463 58.653 14.1447 58.653 15.2212C58.653 16.3324 58.3752 17.3481 57.8196 18.2683C57.2639 19.1885 56.5174 19.909 55.5798 20.4299L59.5384 27.4878H55.6579ZM48.7042 12.4865V17.9297H52.6889C53.4355 17.9297 54.0779 17.6693 54.6162 17.1484C55.1544 16.6102 55.4235 15.9677 55.4235 15.2212C55.4235 14.4572 55.1544 13.8148 54.6162 13.2939C54.0953 12.7557 53.4529 12.4865 52.6889 12.4865H48.7042ZM66.7957 14.1273C68.0458 14.1273 69.1657 14.4398 70.1554 15.0649C71.1624 15.6726 71.9437 16.4973 72.4993 17.5391C73.0549 18.5808 73.3327 19.7354 73.3327 21.0029C73.3327 21.4196 73.298 21.8016 73.2285 22.1488H63.1756C63.4361 23.069 63.8962 23.7896 64.5559 24.3104C65.2157 24.814 66.0578 25.0657 67.0822 25.0657C67.7073 25.0657 68.3063 24.9268 68.8792 24.649C69.4695 24.3712 69.9123 24.0153 70.2075 23.5812L72.6816 25.0397C72.0739 25.9425 71.2839 26.637 70.3116 27.1232C69.3567 27.592 68.2542 27.8264 67.0041 27.8264C65.6151 27.8264 64.3823 27.5312 63.3058 26.9409C62.2294 26.3505 61.396 25.5345 60.8056 24.4928C60.2327 23.451 59.9462 22.279 59.9462 20.9768C59.9462 19.692 60.2327 18.5287 60.8056 17.487C61.396 16.4452 62.212 15.6292 63.2538 15.0388C64.2955 14.4312 65.4762 14.1273 66.7957 14.1273ZM70.3116 19.6226C70.1727 18.7892 69.7821 18.1381 69.1397 17.6693C68.5146 17.1831 67.7246 16.94 66.7697 16.94C66.1099 16.94 65.5022 17.0616 64.9466 17.3047C64.4084 17.5477 63.9743 17.8776 63.6444 18.2943C63.3145 18.711 63.1409 19.1538 63.1235 19.6226H70.3116ZM85.5851 14.4659H88.8145V27.4878H85.5851V26.2116C84.9774 26.7325 84.309 27.1405 83.5797 27.4357C82.8679 27.7135 82.1126 27.8524 81.3139 27.8524C79.9944 27.8524 78.8398 27.5572 77.8501 26.9669C76.8604 26.3766 76.0965 25.5605 75.5582 24.5188C75.0374 23.477 74.7769 22.3051 74.7769 21.0029C74.7769 19.7007 75.0374 18.5287 75.5582 17.487C76.0965 16.4452 76.8604 15.6292 77.8501 15.0388C78.8398 14.4312 79.9944 14.1273 81.3139 14.1273C82.1126 14.1273 82.8679 14.2749 83.5797 14.5701C84.309 14.8479 84.9774 15.2472 85.5851 15.7681V14.4659ZM81.7306 24.7532C82.4425 24.7532 83.0849 24.5969 83.6579 24.2844C84.2482 23.9545 84.7083 23.5031 85.0382 22.9301C85.3854 22.3572 85.5591 21.7061 85.5591 20.9768C85.5591 19.883 85.1858 18.9888 84.4392 18.2943C83.71 17.5998 82.8071 17.2526 81.7306 17.2526C80.6368 17.2526 79.7339 17.6085 79.0221 18.3204C78.3276 19.0149 77.9803 19.909 77.9803 21.0029C77.9803 22.0967 78.3276 22.9996 79.0221 23.7114C79.7339 24.4059 80.6368 24.7532 81.7306 24.7532ZM94.9845 23.8156C94.9845 24.0934 95.0539 24.2931 95.1928 24.4146C95.3317 24.5362 95.5488 24.5969 95.8439 24.5969C96.0697 24.5969 96.3388 24.5709 96.6513 24.5188V27.4878C96.0089 27.592 95.4099 27.6441 94.8543 27.6441C93.8472 27.6441 93.0746 27.3836 92.5364 26.8627C92.0155 26.3245 91.7551 25.3782 91.7551 24.024V9.25712H94.9845V23.8156ZM103.611 23.0343C103.611 23.6246 103.75 24.0326 104.028 24.2584C104.305 24.4841 104.748 24.5969 105.356 24.5969C105.72 24.5969 106.12 24.5709 106.554 24.5188V27.4878C105.738 27.5746 105.061 27.618 104.522 27.618C103.133 27.618 102.092 27.3055 101.397 26.6804C100.72 26.038 100.381 24.8921 100.381 23.2426V17.3567H97.9333V14.4659H100.381V11.2625L103.611 10.1686V14.4659H106.502V17.3567H103.611V23.0343ZM114.839 27.8524C113.607 27.8524 112.461 27.5486 111.402 26.9409C110.36 26.3158 109.527 25.4824 108.901 24.4407C108.294 23.3816 107.99 22.2356 107.99 21.0029C107.99 19.7701 108.294 18.6329 108.901 17.5911C109.527 16.532 110.36 15.6986 111.402 15.0909C112.461 14.4659 113.607 14.1534 114.839 14.1534C116.072 14.1534 117.209 14.4659 118.251 15.0909C119.31 15.6986 120.144 16.532 120.751 17.5911C121.376 18.6329 121.689 19.7701 121.689 21.0029C121.689 22.2356 121.376 23.3816 120.751 24.4407C120.144 25.4824 119.31 26.3158 118.251 26.9409C117.209 27.5486 116.072 27.8524 114.839 27.8524ZM114.813 24.623C115.473 24.623 116.081 24.4667 116.636 24.1542C117.192 23.8243 117.635 23.3816 117.965 22.8259C118.295 22.2703 118.46 21.6627 118.46 21.0029C118.46 20.3431 118.295 19.7354 117.965 19.1798C117.635 18.6242 117.192 18.1815 116.636 17.8516C116.081 17.5217 115.473 17.3567 114.813 17.3567C114.154 17.3567 113.546 17.5217 112.99 17.8516C112.435 18.1815 111.992 18.6242 111.662 19.1798C111.35 19.7354 111.193 20.3431 111.193 21.0029C111.193 21.6627 111.35 22.2703 111.662 22.8259C111.992 23.3816 112.435 23.8243 112.99 24.1542C113.546 24.4667 114.154 24.623 114.813 24.623ZM131.485 14.2054L131.251 17.2526C131.147 17.2178 130.964 17.2005 130.704 17.2005C129.628 17.2005 128.733 17.513 128.021 18.1381C127.327 18.7631 126.98 19.6139 126.98 20.6904V27.4878H123.75V14.4659H126.98V16.6536C127.275 15.9591 127.778 15.3774 128.49 14.9086C129.202 14.4398 130.062 14.2054 131.069 14.2054H131.485ZM149.813 18.3464L155.725 27.4878H151.662L147.443 20.9508L143.224 27.4878H139.161L145.073 18.3464L139.187 9.25712H143.25L147.443 15.742L151.636 9.25712H155.699L149.813 18.3464Z" fill="#222223"/>
</svg>
