<svg width="197" height="36" viewBox="0 0 197 36" fill="none" xmlns="http://www.w3.org/2000/svg">
<path d="M68.047 19.2871C66.6181 21.6049 64.586 22.9385 61.9507 22.9385C58.1405 22.9385 55.3463 19.8586 55.3463 15.8896C55.3463 11.9207 58.0135 8.87256 62.0142 8.87256C64.5543 8.87256 66.8404 10.3014 67.9835 12.4605L71.6666 9.53934C69.7933 6.20542 66.3959 4.20508 62.0777 4.20508C55.1558 4.20508 50.2979 9.34883 50.2979 15.8896C50.2979 22.4305 55.2511 27.606 62.0142 27.606C66.2689 27.606 69.8251 25.3516 71.7619 22.1447L68.047 19.2871Z" fill="#B7B7B7"/>
<path d="M81.848 10.5554C76.7677 10.5554 73.1163 14.2386 73.1163 19.0648C73.1163 23.8593 76.7677 27.606 81.848 27.606C86.9282 27.606 90.5797 23.8593 90.5797 19.0648C90.5797 14.2386 86.9282 10.5554 81.848 10.5554ZM81.848 14.8418C84.0388 14.8418 85.6899 16.5247 85.6899 19.0648C85.6899 21.6049 84.0388 23.3195 81.848 23.3195C79.6571 23.3195 78.006 21.6049 78.006 19.0648C78.006 16.5247 79.6571 14.8418 81.848 14.8418Z" fill="#B7B7B7"/>
<path d="M93.7342 10.9364V27.2249H98.5605V18.7473C98.5605 16.6199 99.6718 14.8101 101.704 14.8101C103.482 14.8101 104.625 15.9214 104.625 18.0488V27.2249H109.451V18.7473C109.451 16.6199 110.563 14.8101 112.595 14.8101C114.373 14.8101 115.484 15.9214 115.484 18.0488V27.2249H120.31V17.3185C120.31 13.0955 117.929 10.5554 114.023 10.5554C111.261 10.5554 109.705 11.7619 108.53 13.413C107.419 11.6032 105.641 10.5554 103.133 10.5554C101.005 10.5554 99.4177 11.3809 98.3699 13.032V10.9364H93.7342Z" fill="#B7B7B7"/>
<path d="M132.973 14.8101C135.037 14.8101 136.751 16.4929 136.751 19.1283C136.751 21.6684 135.037 23.3513 132.973 23.3513C130.814 23.3513 129.131 21.7002 129.131 19.1283C129.131 16.4612 130.814 14.8101 132.973 14.8101ZM128.908 10.9364H124.432V33.5753H129.258V25.4469C130.274 26.9709 132.211 27.606 133.957 27.606C138.402 27.606 141.609 23.9228 141.609 19.0648C141.609 14.0481 138.148 10.5554 133.989 10.5554C132.401 10.5554 130.179 11.2222 128.908 13.1908V10.9364Z" fill="#B7B7B7"/>
<path d="M153.218 17.0962L148.773 17.9535C145.344 18.6838 143.471 20.3349 143.471 22.748C143.471 25.5739 145.693 27.606 148.868 27.606C151.027 27.606 152.615 26.6534 153.377 25.2246V27.2249H157.854V16.9692C157.854 13.0003 155.155 10.5554 150.615 10.5554C147.566 10.5554 145.122 11.8254 143.629 13.6353L146.138 16.6834C147.122 15.5721 148.519 14.7148 150.329 14.7148C151.98 14.7148 153.218 15.3499 153.218 16.9692V17.0962ZM149.948 24.018C148.805 24.018 148.075 23.383 148.075 22.4622C148.075 21.5732 148.71 21.0016 150.011 20.7794L153.25 20.1444V20.6206C153.25 22.5575 151.948 24.018 149.948 24.018Z" fill="#B7B7B7"/>
<path d="M161.919 10.9364V27.2249H166.746V18.7473C166.746 16.6199 167.857 14.8101 169.953 14.8101C171.731 14.8101 172.874 15.9214 172.874 18.0488V27.2249H177.7V17.3185C177.7 13.0955 175.287 10.5554 171.381 10.5554C169.191 10.5554 167.603 11.3809 166.555 13.032V10.9364H161.919Z" fill="#B7B7B7"/>
<path d="M185.58 26.6217L185.39 27.1614C184.691 29.4793 183.516 29.8921 182.246 29.8921C181.707 29.8921 180.881 29.8286 180.024 29.3523V33.353C180.754 33.7023 181.802 33.9563 182.945 33.9563C186.025 33.9563 187.993 32.4957 189.613 28.5585L196.725 10.9364H191.804L187.993 21.6049L184.215 10.9364H179.166L185.58 26.6217Z" fill="#B7B7B7"/>
<path d="M21.3389 2H16.2559C15.7311 2 15.3057 2.42544 15.3057 2.95024V29.9446C15.3057 30.4694 15.7311 30.8948 16.2559 30.8948H21.3389C21.8638 30.8948 22.2892 30.4694 22.2892 29.9446V2.95024C22.2892 2.42544 21.8638 2 21.3389 2Z" fill="#8D8D91"/>
<path d="M31.6589 30.8944C34.9374 30.8944 37.5951 28.2367 37.5951 24.9582C37.5951 21.6797 34.9374 19.022 31.6589 19.022C28.3804 19.022 25.7227 21.6797 25.7227 24.9582C25.7227 28.2367 28.3804 30.8944 31.6589 30.8944Z" fill="#B7B7B7"/>
<path d="M31.6589 13.8724C34.9374 13.8724 37.5951 11.2147 37.5951 7.93622C37.5951 4.65774 34.9374 2 31.6589 2C28.3804 2 25.7227 4.65774 25.7227 7.93622C25.7227 11.2147 28.3804 13.8724 31.6589 13.8724Z" fill="#B7B7B7"/>
<path d="M5.93622 30.8944C9.21471 30.8944 11.8724 28.2367 11.8724 24.9582C11.8724 21.6797 9.21471 19.022 5.93622 19.022C2.65774 19.022 0 21.6797 0 24.9582C0 28.2367 2.65774 30.8944 5.93622 30.8944Z" fill="#B7B7B7"/>
</svg>
