<svg width="203" height="36" viewBox="0 0 203 36" fill="none" xmlns="http://www.w3.org/2000/svg">
<path d="M44.875 14.9068C44.875 12.761 45.3542 10.8443 46.3125 9.15677C47.2917 7.44842 48.6146 6.1255 50.2813 5.188C51.9688 4.22966 53.8542 3.75049 55.9376 3.75049C58.3751 3.75049 60.5105 4.37549 62.3438 5.6255C64.1772 6.87551 65.4584 8.60468 66.1876 10.813H61.1563C60.6563 9.77135 59.948 8.9901 59.0313 8.46926C58.1355 7.94843 57.0938 7.68801 55.9063 7.68801C54.6355 7.68801 53.5 7.99009 52.5 8.59426C51.5209 9.1776 50.75 10.0109 50.1875 11.0943C49.6459 12.1776 49.375 13.4485 49.375 14.9068C49.375 16.3443 49.6459 17.6151 50.1875 18.7193C50.75 19.8027 51.5209 20.6464 52.5 21.2506C53.5 21.8339 54.6355 22.1256 55.9063 22.1256C57.0938 22.1256 58.1355 21.8652 59.0313 21.3443C59.948 20.8027 60.6563 20.011 61.1563 18.9693H66.1876C65.4584 21.1985 64.1772 22.9381 62.3438 24.1881C60.5313 25.4173 58.3959 26.0319 55.9376 26.0319C53.8542 26.0319 51.9688 25.5631 50.2813 24.6256C48.6146 23.6673 47.2917 22.3443 46.3125 20.6568C45.3542 18.9693 44.875 17.0526 44.875 14.9068Z" fill="#B7B7B7"/>
<path d="M77.612 26.1256C75.9453 26.1256 74.4453 25.761 73.112 25.0319C71.7786 24.2819 70.7265 23.2298 69.9557 21.8756C69.2057 20.5214 68.8307 18.9589 68.8307 17.1881C68.8307 15.4172 69.2161 13.8547 69.9869 12.5005C70.7786 11.1464 71.8515 10.1047 73.2057 9.37552C74.5599 8.62552 76.0703 8.25051 77.737 8.25051C79.4037 8.25051 80.9141 8.62552 82.2683 9.37552C83.6224 10.1047 84.6849 11.1464 85.4558 12.5005C86.2475 13.8547 86.6433 15.4172 86.6433 17.1881C86.6433 18.9589 86.237 20.5214 85.4245 21.8756C84.6329 23.2298 83.5495 24.2819 82.1745 25.0319C80.8203 25.761 79.2995 26.1256 77.612 26.1256ZM77.612 22.3131C78.4037 22.3131 79.1432 22.1256 79.8308 21.7506C80.5391 21.3548 81.1016 20.7714 81.5183 20.0006C81.9349 19.2297 82.1433 18.2922 82.1433 17.1881C82.1433 15.5422 81.7058 14.2818 80.8308 13.4068C79.9766 12.511 78.9245 12.063 77.6745 12.063C76.4245 12.063 75.3724 12.511 74.5182 13.4068C73.6849 14.2818 73.2682 15.5422 73.2682 17.1881C73.2682 18.8339 73.6745 20.1047 74.487 21.0006C75.3203 21.8756 76.362 22.3131 77.612 22.3131Z" fill="#B7B7B7"/>
<path d="M111.353 8.28176C113.478 8.28176 115.186 8.93802 116.478 10.2505C117.79 11.5422 118.446 13.3547 118.446 15.6881V25.8444H114.071V16.2818C114.071 14.9276 113.728 13.8964 113.04 13.188C112.353 12.4589 111.415 12.0943 110.228 12.0943C109.04 12.0943 108.092 12.4589 107.384 13.188C106.696 13.8964 106.353 14.9276 106.353 16.2818V25.8444H101.978V16.2818C101.978 14.9276 101.634 13.8964 100.946 13.188C100.259 12.4589 99.3213 12.0943 98.1338 12.0943C96.9255 12.0943 95.9671 12.4589 95.2588 13.188C94.5713 13.8964 94.2276 14.9276 94.2276 16.2818V25.8444H89.8525V8.53177H94.2276V10.6255C94.7901 9.89636 95.5088 9.32344 96.3838 8.90677C97.2797 8.4901 98.2588 8.28176 99.3213 8.28176C100.676 8.28176 101.884 8.57343 102.946 9.15677C104.009 9.71927 104.832 10.5318 105.415 11.5943C105.978 10.5943 106.79 9.79219 107.853 9.18802C108.936 8.58385 110.103 8.28176 111.353 8.28176Z" fill="#B7B7B7"/>
<path d="M126.973 11.0318C127.536 10.2401 128.306 9.58385 129.286 9.06302C130.286 8.52135 131.421 8.25051 132.692 8.25051C134.171 8.25051 135.504 8.6151 136.692 9.34427C137.9 10.0734 138.848 11.1151 139.536 12.4693C140.244 13.8026 140.598 15.3547 140.598 17.1256C140.598 18.8964 140.244 20.4693 139.536 21.8443C138.848 23.1985 137.9 24.2506 136.692 25.0006C135.504 25.7506 134.171 26.1256 132.692 26.1256C131.421 26.1256 130.296 25.8652 129.317 25.3444C128.359 24.8235 127.577 24.1673 126.973 23.3756V34.0944H122.598V8.53177H126.973V11.0318ZM136.129 17.1256C136.129 16.0839 135.911 15.1881 135.473 14.438C135.056 13.6672 134.494 13.0839 133.786 12.688C133.098 12.2922 132.348 12.0943 131.536 12.0943C130.744 12.0943 129.994 12.3026 129.286 12.7193C128.598 13.1151 128.036 13.6985 127.598 14.4693C127.181 15.2401 126.973 16.1464 126.973 17.1881C126.973 18.2297 127.181 19.136 127.598 19.9068C128.036 20.6777 128.598 21.2714 129.286 21.6881C129.994 22.0839 130.744 22.2818 131.536 22.2818C132.348 22.2818 133.098 22.0735 133.786 21.6568C134.494 21.2402 135.056 20.6464 135.473 19.8756C135.911 19.1047 136.129 18.1881 136.129 17.1256Z" fill="#B7B7B7"/>
<path d="M142.652 17.1256C142.652 15.3756 142.996 13.8235 143.684 12.4693C144.392 11.1151 145.34 10.0734 146.527 9.34427C147.736 8.6151 149.079 8.25051 150.559 8.25051C151.85 8.25051 152.975 8.51093 153.934 9.03177C154.913 9.5526 155.694 10.2089 156.277 11.0005V8.53177H160.684V25.8444H156.277V23.3131C155.715 24.1256 154.934 24.8027 153.934 25.3444C152.955 25.8652 151.819 26.1256 150.527 26.1256C149.069 26.1256 147.736 25.7506 146.527 25.0006C145.34 24.2506 144.392 23.1985 143.684 21.8443C142.996 20.4693 142.652 18.8964 142.652 17.1256ZM156.277 17.1881C156.277 16.1256 156.069 15.2193 155.652 14.4693C155.236 13.6985 154.673 13.1151 153.965 12.7193C153.257 12.3026 152.496 12.0943 151.684 12.0943C150.871 12.0943 150.121 12.2922 149.434 12.688C148.746 13.0839 148.184 13.6672 147.746 14.438C147.329 15.1881 147.121 16.0839 147.121 17.1256C147.121 18.1672 147.329 19.0839 147.746 19.8756C148.184 20.6464 148.746 21.2402 149.434 21.6568C150.142 22.0735 150.892 22.2818 151.684 22.2818C152.496 22.2818 153.257 22.0839 153.965 21.6881C154.673 21.2714 155.236 20.6881 155.652 19.9381C156.069 19.1672 156.277 18.2506 156.277 17.1881Z" fill="#B7B7B7"/>
<path d="M174.55 8.28176C176.613 8.28176 178.28 8.93802 179.551 10.2505C180.821 11.5422 181.457 13.3547 181.457 15.6881V25.8444H177.082V16.2818C177.082 14.9068 176.738 13.8547 176.05 13.1255C175.363 12.3755 174.425 12.0005 173.238 12.0005C172.03 12.0005 171.071 12.3755 170.363 13.1255C169.675 13.8547 169.332 14.9068 169.332 16.2818V25.8444H164.957V8.53177H169.332V10.688C169.915 9.93802 170.655 9.35469 171.55 8.93802C172.467 8.50051 173.467 8.28176 174.55 8.28176Z" fill="#B7B7B7"/>
<path d="M202.18 8.53177L191.461 34.0319H186.805L190.555 25.4069L183.617 8.53177H188.523L192.992 20.6256L197.523 8.53177H202.18Z" fill="#B7B7B7"/>
<path d="M12.0735 33.8638C5.39366 33.8638 0 28.4286 0 21.7903C0 15.1519 5.39366 9.7168 12.0735 9.7168C18.7118 9.7168 24.147 15.1105 24.147 21.7903C24.1055 28.4286 18.7118 33.8638 12.0735 33.8638Z" fill="#8D8D91"/>
<path d="M30.2308 2H13.7062C12.8043 2 12.0732 2.7311 12.0732 3.63297V20.1576C12.0732 21.0595 12.8043 21.7906 13.7062 21.7906H30.2308C31.1327 21.7906 31.8638 21.0595 31.8638 20.1576V3.63297C31.8638 2.73111 31.1327 2 30.2308 2Z" fill="#B7B7B7"/>
</svg>
