<svg width="193" height="36" viewBox="0 0 193 36" fill="none" xmlns="http://www.w3.org/2000/svg">
<g clip-path="url(#clip0_1144_42665)">
<path d="M56.197 25.6221C54.5119 25.6221 53.0263 25.2562 51.7403 24.5246C50.4543 23.7929 49.4344 22.7729 48.6805 21.4647C47.9488 20.1567 47.583 18.66 47.583 16.9749C47.583 15.2897 47.9488 13.7932 48.6805 12.485C49.4344 11.1768 50.4543 10.1569 51.7403 9.42517C53.0263 8.69348 54.5119 8.32764 56.197 8.32764C58.3034 8.32764 60.0772 8.88195 61.5184 9.99057C62.9595 11.077 63.8797 12.5847 64.2788 14.5138H59.789C59.5672 13.7155 59.1238 13.0947 58.4586 12.6513C57.8156 12.1856 57.0506 11.9528 56.1637 11.9528C54.9886 11.9528 53.9908 12.3963 53.1704 13.2832C52.35 14.17 51.9399 15.4006 51.9399 16.9749C51.9399 18.5491 52.35 19.7797 53.1704 20.6666C53.9908 21.5535 54.9886 21.997 56.1637 21.997C57.0506 21.997 57.8156 21.7752 58.4586 21.3318C59.1238 20.8883 59.5672 20.2564 59.789 19.436H64.2788C63.8797 21.2985 62.9595 22.7951 61.5184 23.926C60.0772 25.0568 58.3034 25.6221 56.197 25.6221Z" fill="#B7B7B7"/>
<path d="M75.307 25.6221C73.7107 25.6221 72.2694 25.2562 70.9834 24.5246C69.7196 23.7929 68.7108 22.784 67.9569 21.498C67.2252 20.1899 66.8594 18.6822 66.8594 16.9749C66.8594 15.2676 67.2363 13.771 67.9902 12.485C68.7441 11.1768 69.7529 10.1569 71.0167 9.42517C72.3027 8.69348 73.7439 8.32764 75.3403 8.32764C76.9146 8.32764 78.3336 8.69348 79.5974 9.42517C80.8834 10.1569 81.8923 11.1768 82.6239 12.485C83.3778 13.771 83.7548 15.2676 83.7548 16.9749C83.7548 18.6822 83.3778 20.1899 82.6239 21.498C81.8923 22.784 80.8834 23.7929 79.5974 24.5246C78.3114 25.2562 76.8813 25.6221 75.307 25.6221ZM75.307 21.9304C76.4156 21.9304 77.3802 21.5202 78.2006 20.6999C79.0209 19.8573 79.4312 18.6156 79.4312 16.9749C79.4312 15.3341 79.0209 14.1035 78.2006 13.2832C77.3802 12.4406 76.4267 12.0193 75.3403 12.0193C74.2095 12.0193 73.234 12.4406 72.4136 13.2832C71.6153 14.1035 71.2163 15.3341 71.2163 16.9749C71.2163 18.6156 71.6153 19.8573 72.4136 20.6999C73.234 21.5202 74.1984 21.9304 75.307 21.9304Z" fill="#B7B7B7"/>
<path d="M86.896 25.223V8.72674H90.6545L91.0202 10.9551C91.5519 10.1569 92.2506 9.52494 93.1153 9.05933C94.0021 8.57154 95.0222 8.32764 96.1754 8.32764C98.725 8.32764 100.533 9.31431 101.596 11.2877C102.195 10.3786 102.993 9.65798 103.991 9.12584C105.011 8.5937 106.119 8.32764 107.317 8.32764C109.468 8.32764 111.12 8.97063 112.272 10.2566C113.425 11.5426 114.001 13.4273 114.001 15.9106V25.223H109.745V16.3097C109.745 14.8907 109.468 13.8042 108.913 13.0504C108.381 12.2965 107.549 11.9196 106.419 11.9196C105.266 11.9196 104.335 12.3408 103.625 13.1834C102.937 14.0259 102.594 15.2011 102.594 16.7088V25.223H98.3371V16.3097C98.3371 14.8907 98.0601 13.8042 97.5052 13.0504C96.9513 12.2965 96.0972 11.9196 94.945 11.9196C93.814 11.9196 92.8933 12.3408 92.184 13.1834C91.497 14.0259 91.1534 15.2011 91.1534 16.7088V25.223H86.896Z" fill="#B7B7B7"/>
<path d="M117.379 32.54V8.72674H121.171L121.636 11.0881C122.168 10.3564 122.866 9.71341 123.731 9.1591C124.618 8.60479 125.76 8.32764 127.157 8.32764C128.709 8.32764 130.095 8.70457 131.314 9.45842C132.534 10.2123 133.498 11.2433 134.208 12.5515C134.917 13.8597 135.271 15.3452 135.271 17.0082C135.271 18.6711 134.917 20.1567 134.208 21.4647C133.498 22.7508 132.534 23.7708 131.314 24.5246C130.095 25.2562 128.709 25.6221 127.157 25.6221C125.916 25.6221 124.829 25.3893 123.898 24.9237C122.966 24.4581 122.213 23.804 121.636 22.9614V32.54H117.379ZM126.259 21.8972C127.611 21.8972 128.73 21.4427 129.618 20.5336C130.505 19.6244 130.948 18.4493 130.948 17.0082C130.948 15.5669 130.505 14.3807 129.618 13.4494C128.73 12.5182 127.611 12.0526 126.259 12.0526C124.884 12.0526 123.753 12.5182 122.866 13.4494C122.001 14.3585 121.569 15.5337 121.569 16.9749C121.569 18.4161 122.001 19.6024 122.866 20.5336C123.753 21.4427 124.884 21.8972 126.259 21.8972Z" fill="#B7B7B7"/>
<path d="M144.096 25.6221C142.678 25.6221 141.513 25.4004 140.604 24.957C139.695 24.4914 139.019 23.8816 138.576 23.1277C138.133 22.3739 137.911 21.5424 137.911 20.6333C137.911 19.1034 138.509 17.8618 139.707 16.9084C140.904 15.9549 142.7 15.4782 145.094 15.4782H149.285V15.0792C149.285 13.9484 148.963 13.1169 148.32 12.5847C147.678 12.0526 146.88 11.7865 145.926 11.7865C145.062 11.7865 144.307 11.9972 143.664 12.4185C143.021 12.8176 142.622 13.4162 142.466 14.2144H138.309C138.42 13.0171 138.82 11.975 139.507 11.0881C140.216 10.2012 141.125 9.52494 142.234 9.05933C143.343 8.57154 144.585 8.32764 145.959 8.32764C148.31 8.32764 150.161 8.9152 151.514 10.0903C152.866 11.2655 153.542 12.9284 153.542 15.0792V25.223H149.916L149.518 22.5624C149.03 23.4492 148.343 24.1809 147.456 24.7574C146.591 25.3339 145.472 25.6221 144.096 25.6221ZM145.062 22.2962C146.28 22.2962 147.223 21.8972 147.888 21.0989C148.575 20.3007 149.007 19.3141 149.185 18.139H145.56C144.429 18.139 143.62 18.3495 143.132 18.7709C142.644 19.1699 142.401 19.6688 142.401 20.2674C142.401 20.9104 142.644 21.4094 143.132 21.7641C143.62 22.1188 144.262 22.2962 145.062 22.2962Z" fill="#B7B7B7"/>
<path d="M156.94 25.223V8.72674H160.697L161.03 11.5205C161.54 10.5449 162.272 9.76885 163.226 9.19236C164.202 8.61588 165.343 8.32764 166.651 8.32764C168.691 8.32764 170.276 8.97063 171.407 10.2566C172.538 11.5426 173.103 13.4273 173.103 15.9106V25.223H168.846V16.3097C168.846 14.8907 168.558 13.8042 167.982 13.0504C167.405 12.2965 166.507 11.9196 165.287 11.9196C164.091 11.9196 163.103 12.3408 162.327 13.1834C161.574 14.0259 161.196 15.2011 161.196 16.7088V25.223H156.94Z" fill="#B7B7B7"/>
<path d="M178.019 32.5398L181.843 24.1253H180.846L174.427 8.72656H179.05L183.673 20.3339L188.495 8.72656H193.018L182.542 32.5398H178.019Z" fill="#B7B7B7"/>
<rect width="16.6011" height="16.6011" rx="6" fill="#8D8D91"/>
<rect x="19.0239" width="16.6011" height="16.6011" rx="6" fill="#8D8D91"/>
<rect x="19.0239" y="19.0239" width="16.6011" height="16.6011" rx="6" fill="#8D8D91"/>
<rect y="19.0239" width="16.6011" height="16.6011" rx="6" fill="#8D8D91"/>
</g>
<defs>
<clipPath id="clip0_1144_42665">
<rect width="193" height="36" fill="white"/>
</clipPath>
</defs>
</svg>
