<svg width="256" height="256" viewBox="0 0 256 256" fill="none" xmlns="http://www.w3.org/2000/svg">
<g clip-path="url(#clip0_1165_40153)">
<path d="M6.77465 106.598V245.764C6.77465 249.148 9.5177 251.891 12.9014 251.891H179.737C181.009 251.891 182.249 251.495 183.286 250.758L238.647 211.425C240.265 210.276 241.225 208.415 241.225 206.431V79.2815C241.225 77.3993 240.36 75.6216 238.879 74.4602L149.129 4.08487C144.402 0.378484 137.758 0.368686 133.02 4.06111C126.319 9.28426 126.3 19.4114 132.981 24.6599L213.921 88.236C214.808 88.9329 215.326 89.9986 215.326 91.1268V193.948C215.326 195.14 214.749 196.257 213.777 196.947L174.568 224.751C173.946 225.192 173.203 225.428 172.441 225.428H36.3499C34.3196 225.428 32.6738 223.782 32.6738 221.752V118.286C32.6738 117.163 33.1874 116.101 34.068 115.404L96.4062 66.0484C97.7433 64.9897 99.6329 64.9897 100.97 66.0484L163.755 115.758C164.353 116.232 164.702 116.953 164.702 117.717V174.84C164.702 185.399 176.659 191.519 185.224 185.345C188.601 182.911 190.602 179.003 190.602 174.84V106.598C190.602 104.725 189.745 102.954 188.275 101.792L102.489 33.9494C100.261 32.1879 97.1151 32.1879 94.8876 33.9494L9.10097 101.792C7.63164 102.954 6.77465 104.725 6.77465 106.598Z" fill="#F85757" stroke="#F85757" stroke-width="2.4507"/>
</g>
<defs>
<clipPath id="clip0_1165_40153">
<rect width="256" height="256" fill="white"/>
</clipPath>
</defs>
</svg>
